<?xml version="1.0" standalone="no"?>
<!DOCTYPE svg PUBLIC "-//W3C//DTD SVG 1.1//EN" "http://www.w3.org/Graphics/SVG/1.1/DTD/svg11.dtd" >
<svg xmlns="http://www.w3.org/2000/svg">
<metadata></metadata>
<defs>
<font id="americansans_mediumregular" horiz-adv-x="622" >
<font-face units-per-em="1000" ascent="750" descent="-250" />
<missing-glyph horiz-adv-x="250" />
<glyph unicode="ff" horiz-adv-x="661" d="M285 727q49 0 77 -10l-6 -73q0 -14 -10 -14l-18 4q-18 3 -39 3q-88 0 -88 -105v-38h200v29q0 204 201 204q49 0 79 -11l-6 -73q0 -14 -10 -14l-19 4q-19 4 -40 4q-93 0 -93 -105v-38h119v-85h-119v-409h-112v409h-200v-409h-112v409h-69v85h69v29q0 204 196 204z" />
<glyph unicode="fi" horiz-adv-x="561" d="M201 494h290v-494h-112v409h-178v-409h-112v409h-69v85h69v33q0 209 231 209q30 0 69 -7t51 -11l-6 -73q0 -14 -10 -14q-4 0 -40 7.5t-64 7.5q-119 0 -119 -118v-34z" />
<glyph unicode="fl" horiz-adv-x="562" d="M492 711v-711h-112v636q-30 10 -68 10q-48 0 -78.5 -28.5t-30.5 -76.5v-47h101v-85h-101v-409h-113v409h-70v85h70v38q0 106 58.5 155t176.5 49q35 0 75.5 -6t62.5 -11t29 -8z" />
<glyph unicode="ffi" horiz-adv-x="872" d="M513 494h289v-494h-112v409h-177v-409h-113v409h-200v-409h-112v409h-68v85h68v38q0 204 201 204q47 0 80 -11l-7 -73q0 -14 -10 -14l-19 4q-19 4 -39 4q-94 0 -94 -105v-47h200v33q0 209 232 209q29 0 68.5 -7t51.5 -11l-6 -73q-2 -14 -11 -14q-4 0 -40 7.5t-63 7.5 q-119 0 -119 -118v-34z" />
<glyph unicode="ffl" horiz-adv-x="872" d="M621 736q37 0 81 -6t69 -11.5t31 -7.5v-711h-112v636q-30 10 -63 10q-54 0 -84 -29t-30 -76v-47h101v-85h-101v-409h-113v409h-200v-409h-112v409h-68v85h68v38q0 204 202 204q47 0 80 -11l-7 -73q0 -14 -10 -14l-19 4q-19 4 -40 4q-94 0 -94 -105v-47h200v38 q0 102 57.5 153t163.5 51z" />
<glyph unicode="&#xd;" horiz-adv-x="360" />
<glyph unicode=" "  horiz-adv-x="250" />
<glyph unicode="&#x09;" horiz-adv-x="250" />
<glyph unicode="&#xa0;" horiz-adv-x="250" />
<glyph unicode="!" horiz-adv-x="273" d="M194 198h-86l-16 476h118zM93 0v114h116v-114h-116z" />
<glyph unicode="&#x22;" horiz-adv-x="360" d="M225 461l-26 213h111l-26 -213h-59zM76 461l-26 213h111l-26 -213h-59z" />
<glyph unicode="#" d="M584 431h-119l-18 -168h110v-79h-119l-19 -184h-92l20 184h-105l-20 -184h-91l19 184h-113v79h122l18 168h-111v79h119l18 164h91l-17 -164h105l17 164h92l-18 -164h111v-79zM355 263l18 168h-105l-17 -168h104z" />
<glyph unicode="$" horiz-adv-x="582" d="M502 194q0 -71 -41 -121.5t-114 -70.5v-108h-94v96q-104 0 -151 15l6 105q72 -24 132 -24q70 0 106 24.5t36 69.5q0 34 -25 57t-72 42l-64 26q-141 59 -141 189q0 68 45 116.5t128 64.5v87h94v-79q74 0 110 -12l-7 -101q-51 17 -117 17q-67 0 -99 -25t-32 -63 q0 -33 20 -53.5t58 -35.5l67 -28q155 -62 155 -188z" />
<glyph unicode="%" horiz-adv-x="847" d="M575 674l-403 -674h93l403 674h-93zM60 524q0 76 39.5 122.5t122.5 46.5q79 0 120 -45.5t41 -123.5q0 -75 -40 -122t-121 -47q-78 0 -120 44t-42 125zM222 617q-35 0 -52.5 -25t-17.5 -68q0 -93 70 -93q33 0 51 25t18 68t-17.5 68t-51.5 25zM464 158q0 76 39.5 122.5 t122.5 46.5q79 0 120 -45.5t41 -123.5q0 -75 -40 -121.5t-121 -46.5q-78 0 -120 43.5t-42 124.5zM626 252q-35 0 -53 -25.5t-18 -68.5q0 -44 18.5 -68.5t52.5 -24.5q33 0 51 25t18 68t-17.5 68.5t-51.5 25.5z" />
<glyph unicode="&#x26;" horiz-adv-x="726" d="M298 684q72 0 118 -41t46 -101q0 -34 -11 -63t-31 -51t-36.5 -35.5t-39.5 -28.5q104 -106 163 -154q51 81 56 181h107q-4 -130 -84 -244q29 -24 120 -88l-79 -71q-86 61 -113 83q-104 -81 -237 -81q-52 0 -99.5 19t-82.5 64.5t-35 110.5q0 30 11.5 58t22 44t38 38 t33.5 26t34 22q-72 81 -72 166q0 56 46 101t125 45zM357 534v3q0 25 -16.5 43t-48.5 18q-27 0 -44 -20t-17 -49q0 -42 54 -101q22 17 34.5 28.5t25 33t12.5 44.5zM258 307q-87 -57 -87 -121q0 -45 33.5 -76t87.5 -31q87 0 148 51q-77 62 -182 177z" />
<glyph unicode="'" horiz-adv-x="210" d="M76 461l-26 213h110l-26 -213h-58z" />
<glyph unicode="(" horiz-adv-x="361" d="M321 -231h-89q-52 80 -92 197.5t-40 255.5t40 255t92 197h89q-44 -77 -79.5 -198t-35.5 -254t35.5 -254.5t79.5 -198.5z" />
<glyph unicode=")" horiz-adv-x="361" d="M129 -231h-89q44 77 79.5 198.5t35.5 254.5t-35.5 254t-79.5 198h89q52 -80 92 -197t40 -255t-40 -255.5t-92 -197.5z" />
<glyph unicode="*" horiz-adv-x="394" d="M334 548l-100 -20l69 -74l-57 -41l-51 89l-48 -89l-57 42l69 75l-99 19l21 67l94 -42l-13 100h70l-11 -102l92 44z" />
<glyph unicode="+" d="M366 288h201v-87h-201v-201h-109v201h-202v87h202v201h109v-201z" />
<glyph unicode="," horiz-adv-x="236" d="M60 0v114h116v-96q0 -53 -27.5 -90.5t-66.5 -56.5l-19 22q56 36 52 107h-55z" />
<glyph unicode="-" horiz-adv-x="400" d="M320 288v-87h-240v87h240z" />
<glyph unicode="." horiz-adv-x="236" d="M60 0v114h116v-114h-116z" />
<glyph unicode="/" horiz-adv-x="402" d="M125 0h-105l257 674h105z" />
<glyph unicode="0" d="M60 337q0 347 251 347q68 0 119.5 -35t78.5 -90t40 -111.5t13 -110.5q0 -88 -25.5 -164.5t-84.5 -129.5t-141 -53q-251 0 -251 347zM311 87q63 0 99.5 66t36.5 184q0 32 -3.5 64t-15.5 79.5t-42 77t-75 29.5q-77 0 -106 -62.5t-29 -187.5q0 -128 30 -189t105 -61z" />
<glyph unicode="1" horiz-adv-x="356" d="M256 0h-113v553q-49 -32 -126 -40l-17 88q53 6 101 30t68 53h87v-684z" />
<glyph unicode="2" horiz-adv-x="479" d="M20 89q120 138 142 164q117 139 117 223q0 45 -29 78t-85 33q-63 0 -123 -40l-17 97q80 40 160 40q98 0 155 -57t57 -139q0 -114 -115 -251l-118 -145h255v-92h-399v89z" />
<glyph unicode="3" horiz-adv-x="444" d="M20 654q74 30 149 30q87 0 143.5 -47.5t56.5 -127.5q0 -35 -13.5 -64t-34.5 -46t-36 -25.5t-27 -12.5v-3q17 -6 33.5 -15.5t40 -28.5t38 -51t14.5 -72q0 -92 -67 -146.5t-189 -54.5q-23 0 -95 9l-6 97q50 -10 97 -10q65 0 105 29t40 80q0 50 -38 81t-119 31h-34v81h31 q64 0 105.5 30t41.5 80q0 40 -29 68t-83 28q-51 0 -105 -30z" />
<glyph unicode="4" d="M350 260v312h-4l-185 -312h189zM350 168h-278l-19 87l260 419h149v-414h106v-92h-106v-168h-112v168z" />
<glyph unicode="5" horiz-adv-x="533" d="M192 582v-168q15 5 58 5q92 0 147.5 -59.5t55.5 -146.5q0 -102 -72 -162.5t-201 -60.5q-72 0 -96 6l-4 98q32 -7 103 -7q67 0 111 34.5t44 93.5q0 55 -44 88.5t-121 33.5q-46 0 -93 -10v347h349v-92h-237z" />
<glyph unicode="6" d="M193 206q0 -56 35 -91t88 -35t87.5 36t34.5 90q0 57 -35 92t-87 35t-87.5 -35t-35.5 -92zM336 428q94 0 153.5 -56.5t59.5 -157.5q0 -22 -5 -47t-20.5 -58t-40 -58.5t-68.5 -43t-100 -17.5q-60 0 -105.5 19.5t-71 49t-41 70t-20 75t-4.5 72.5q0 103 28 183t76.5 128 t109.5 72.5t131 24.5q19 0 79 -6l-11 -101q-27 10 -72 10q-52 0 -93.5 -19t-64 -43.5t-38.5 -58.5t-20.5 -54t-7.5 -39l3 -1q56 56 143 56z" />
<glyph unicode="7" horiz-adv-x="457" d="M96 0q19 101 78.5 277.5t116.5 304.5h-291v92h407v-91q-52 -110 -110 -288.5t-81 -294.5h-120z" />
<glyph unicode="8" horiz-adv-x="573" d="M288 398q1 1 5 3q96 57 96 113q0 37 -29 58.5t-75 21.5q-45 0 -74.5 -22.5t-29.5 -55.5q0 -20 7.5 -36.5t25.5 -31.5t32.5 -24.5t41.5 -25.5zM401 169q0 34 -28 63.5t-95 65.5q-18 -11 -23 -14.5t-25.5 -19t-29.5 -27t-18.5 -30t-9.5 -37.5q0 -40 34 -62t87 -22 q51 0 79.5 23.5t28.5 59.5zM60 161q0 25 8 49t18.5 40.5t28 33.5t28 25t28.5 20t19 13q-21 12 -35 22t-36 30.5t-34 48.5t-12 61q0 77 55 128.5t158 51.5q111 0 161.5 -45.5t50.5 -109.5q0 -51 -24.5 -88.5t-96.5 -85.5q71 -41 103.5 -83t32.5 -97q0 -79 -63 -132t-177 -53 q-93 0 -153 43.5t-60 127.5z" />
<glyph unicode="9" d="M429 467q0 57 -35 92t-88 35t-88 -36t-35 -91q0 -56 35.5 -91t87.5 -35t87.5 34.5t35.5 91.5zM285 245q-93 0 -152.5 57t-59.5 158q0 22 5 47t20 58t39.5 58t68.5 43t100 18q61 0 106.5 -19.5t71 -49t41 -70t20 -75.5t4.5 -73q0 -103 -28 -183t-76.5 -128t-109.5 -72 t-131 -24q-20 0 -80 6l12 100q33 -9 72 -9q52 0 93 19t63.5 44t38.5 58t21 53.5t7 38.5l-3 1q-56 -56 -143 -56z" />
<glyph unicode=":" horiz-adv-x="236" d="M60 284v114h116v-114h-116zM60 0v114h116v-114h-116z" />
<glyph unicode=";" horiz-adv-x="236" d="M60 284v114h116v-114h-116zM60 0v114h116v-96q0 -53 -27.5 -90.5t-66.5 -56.5l-19 22q56 36 52 107h-55z" />
<glyph unicode="&#x3c;" horiz-adv-x="493" d="M433 470l-241 -224l240 -229l-61 -62l-311 292l311 288z" />
<glyph unicode="=" d="M568 380v-87h-514v87h514zM568 196v-87h-514v87h514z" />
<glyph unicode="&#x3e;" horiz-adv-x="493" d="M301 246l-241 224l62 65l311 -288l-311 -292l-61 62z" />
<glyph unicode="?" horiz-adv-x="458" d="M60 566l9 99q55 19 123 19q103 0 154.5 -51.5t51.5 -110.5q0 -22 -4 -42t-8.5 -32.5t-16 -28.5t-16.5 -22t-21 -22l-20 -20q-34 -34 -47 -61t-13 -69v-26h-108v31q0 100 71 168q23 21 33 32t20.5 31.5t10.5 41.5q0 38 -28 61t-80 23q-55 0 -111 -21zM145 0v114h116v-114 h-116z" />
<glyph unicode="@" horiz-adv-x="897" d="M498 685q143 0 231 -81t88 -189q0 -107 -62.5 -172.5t-141.5 -65.5q-45 0 -68.5 24t-24.5 54h-3q-8 -22 -38 -49.5t-76 -27.5q-49 0 -82.5 32.5t-33.5 95.5q0 97 64.5 159.5t154.5 62.5q53 0 109 -14q-33 -182 -38 -210q-6 -22 -6 -42q0 -45 39 -45q43 0 79 58t36 141 q0 40 -11 77t-36.5 73t-76.5 57.5t-121 21.5q-58 0 -112.5 -21.5t-98 -61.5t-70 -103t-26.5 -139q0 -141 79.5 -213.5t214.5 -72.5q19 0 38.5 2.5t34 5.5t30 7.5t24 7.5t18 7t10.5 4l7 -47q-65 -31 -182 -31q-177 0 -272 87.5t-95 255.5q0 151 120 251.5t298 100.5zM489 458 q-43 0 -79 -43t-36 -109q0 -68 55 -68q32 0 51 32.5t27 73.5l19 106q-16 8 -37 8z" />
<glyph unicode="A" horiz-adv-x="663" d="M10 0l256 674h136l251 -674h-129l-53 152h-285l-54 -152h-122zM330 551h-4l-108 -308h220z" />
<glyph unicode="B" horiz-adv-x="575" d="M80 0v674h235q63 0 107.5 -15t66.5 -41t31.5 -53t9.5 -58q0 -38 -14 -67.5t-37 -45t-36 -21.5t-26 -10v-4q42 -7 85 -46t43 -113q0 -87 -59 -143.5t-182 -56.5h-224zM199 591v-200h75q136 0 136 101t-136 101q-16 0 -34 -0.5t-30 -0.5zM199 308v-216q19 -3 74 -3 q150 0 150 110q0 109 -150 109h-74z" />
<glyph unicode="C" horiz-adv-x="575" d="M545 656l-14 -101q-74 32 -151 32q-92 0 -153 -64.5t-61 -185.5q0 -42 11 -83t34 -80t67 -63t102 -24q59 0 151 33l14 -101q-87 -29 -156 -29q-178 0 -263.5 95t-85.5 252q0 71 18 130.5t57 109.5t109 78.5t165 28.5q80 0 156 -28z" />
<glyph unicode="D" horiz-adv-x="679" d="M80 0v674h221q155 0 246.5 -89t91.5 -248q0 -148 -86 -242.5t-252 -94.5h-221zM199 582v-491q24 -4 76 -4q117 0 179 66t62 184q0 122 -64 186t-177 64q-26 0 -76 -5z" />
<glyph unicode="E" horiz-adv-x="496" d="M80 0v674h364v-92h-245v-190h232v-92h-232v-208h247v-92h-366z" />
<glyph unicode="F" horiz-adv-x="494" d="M80 0v674h364v-92h-245v-190h231v-92h-231v-300h-119z" />
<glyph unicode="G" horiz-adv-x="668" d="M586 657l-14 -102l-6 3q-5 2 -12 4.5t-18 6t-25 6.5t-30.5 6t-37.5 4.5t-43 1.5q-101 0 -167.5 -67.5t-66.5 -182.5q0 -109 63.5 -179.5t164.5 -70.5q73 0 100 10v203h-108v92h227v-363q-89 -39 -218 -39q-91 0 -160.5 28.5t-111 77.5t-62.5 110t-21 131q0 69 21 130 t62.5 110.5t110.5 78t158 28.5q121 0 194 -27z" />
<glyph unicode="H" horiz-adv-x="696" d="M497 674h119v-674h-119v300h-298v-300h-119v674h119v-282h298v282z" />
<glyph unicode="I" horiz-adv-x="279" d="M80 0v674h119v-674h-119z" />
<glyph unicode="J" horiz-adv-x="346" d="M147 178v496h119v-474q0 -210 -178 -210q-55 0 -88 10v98q33 -11 62 -11q39 0 62 24t23 67z" />
<glyph unicode="K" horiz-adv-x="598" d="M588 0h-145l-245 330v-330h-118v674h118v-312l245 312h135l-257 -325z" />
<glyph unicode="L" horiz-adv-x="464" d="M199 674v-582h245v-92h-364v674h119z" />
<glyph unicode="M" horiz-adv-x="859" d="M140 0h-110l95 674h139l161 -526l168 526h135l101 -674h-116l-69 512h-4l-155 -512h-129l-152 512h-4z" />
<glyph unicode="N" horiz-adv-x="705" d="M186 0h-106v674h151l284 -516h4v516h106v-674h-147l-288 525h-4v-525z" />
<glyph unicode="O" horiz-adv-x="727" d="M364 684q152 0 237.5 -95t85.5 -252t-85.5 -252t-237.5 -95q-148 0 -236 92.5t-88 254.5q0 161 87.5 254t236.5 93zM166 337q0 -116 53.5 -183t144.5 -67q90 0 143.5 67.5t53.5 182.5q0 117 -54 183.5t-143 66.5q-90 0 -144 -66t-54 -184z" />
<glyph unicode="P" horiz-adv-x="550" d="M199 339q14 -2 50 -2q73 0 110.5 34t37.5 93t-38.5 92t-109.5 33q-42 0 -50 -2v-248zM272 247q-37 0 -73 4v-251h-119v674h200q112 0 176 -59t64 -149q0 -103 -66 -161t-182 -58z" />
<glyph unicode="Q" horiz-adv-x="726" d="M686 337q0 -124 -54.5 -211t-154.5 -119l36 -122h-119l-31 105q-148 0 -235.5 92t-87.5 255q0 161 87 254t236 93q152 0 237.5 -95t85.5 -252zM447 106q54 27 84 86.5t30 144.5q0 117 -54.5 183.5t-143.5 66.5q-90 0 -144 -66t-54 -184q0 -106 45.5 -171.5t123.5 -76.5 l-26 86h119z" />
<glyph unicode="R" horiz-adv-x="593" d="M286 268h-88v-268h-118v674h223q114 0 177 -54.5t63 -146.5q0 -49 -17 -87.5t-43.5 -59t-43.5 -29.5t-32 -14l166 -283h-137zM266 353q76 0 115 32.5t39 87.5q0 53 -38 85t-116 32q-14 0 -30 -0.5t-26.5 -1t-11.5 -0.5v-232q21 -3 68 -3z" />
<glyph unicode="S" horiz-adv-x="503" d="M417 673l-6 -102q-45 17 -118 17q-67 0 -99 -25t-32 -63q0 -58 78 -89l67 -28q156 -63 156 -188q0 -94 -69.5 -149.5t-186.5 -55.5q-95 0 -145 16l6 105q72 -24 132 -24q70 0 106 24.5t36 69.5q0 34 -25 57t-72 42l-64 27q-141 57 -141 189q0 84 68 136.5t190 52.5 q81 0 119 -12z" />
<glyph unicode="T" horiz-adv-x="520" d="M319 582v-582h-118v582h-181v92h480v-92h-181z" />
<glyph unicode="U" horiz-adv-x="692" d="M612 242q0 -118 -67 -185t-199 -67q-137 0 -201.5 69t-64.5 183v432h119v-430q0 -76 39 -116.5t108 -40.5q75 0 111 45t36 112v430h119v-432z" />
<glyph unicode="V" horiz-adv-x="641" d="M10 674h128l184 -552h4l183 552h122l-242 -674h-141z" />
<glyph unicode="W" horiz-adv-x="964" d="M206 0l-176 674h123l124 -521h4l135 521h137l139 -521h4l123 521h115l-173 -674h-142l-139 546h-4l-136 -546h-134z" />
<glyph unicode="X" horiz-adv-x="609" d="M232 342l-209 332h135l146 -232l146 232h129l-208 -319l228 -355h-142l-157 252l-157 -252h-133z" />
<glyph unicode="Y" horiz-adv-x="562" d="M227 0v233l-217 441h128l150 -322l146 322h118l-206 -441v-233h-119z" />
<glyph unicode="Z" horiz-adv-x="515" d="M30 0v92l305 490h-297v92h437v-92l-305 -490h315v-92h-455z" />
<glyph unicode="[" horiz-adv-x="358" d="M318 674v-88h-108v-729h108v-88h-218v905h218z" />
<glyph unicode="\" horiz-adv-x="392" d="M270 0l-260 674h109l263 -674h-112z" />
<glyph unicode="]" horiz-adv-x="358" d="M40 586v88h218v-905h-218v88h108v729h-108z" />
<glyph unicode="^" horiz-adv-x="460" d="M120 391h-100l156 283h99l165 -283h-106l-110 204z" />
<glyph unicode="_" horiz-adv-x="508" d="M-2 -177h512v-54h-512v54z" />
<glyph unicode="`" horiz-adv-x="228" d="M208 573h-60l-128 147h108z" />
<glyph unicode="a" horiz-adv-x="496" d="M71 472q82 32 163 32q208 0 208 -180v-197q0 -66 9 -127h-94q-11 0 -14 5.5t-4 16.5l-3 41h-4q-48 -73 -147 -73q-69 0 -112 45.5t-43 114.5q0 47 24 82t64.5 54t86.5 28t97 9h28v16q0 81 -106 81q-68 0 -124 -28q-15 -6 -17 -6q-3 0 -5 1.5t-2.5 3t-1.5 3.5v2 q-3 54 -3 76zM305 251q-162 0 -162 -99q0 -34 21 -57t58 -23q50 0 79 41t29 102v36h-25z" />
<glyph unicode="b" horiz-adv-x="555" d="M305 415q-57 0 -90 -51t-33 -117v-161q30 -11 78 -11q143 0 143 185q0 155 -98 155zM182 426h4q50 78 147 78q187 0 187 -234q0 -57 -15 -105.5t-46.5 -88.5t-85 -63t-124.5 -23q-91 0 -179 24v703h112v-291z" />
<glyph unicode="c" horiz-adv-x="442" d="M277 504q64 0 130 -33q0 -31 -3 -70q0 -15 -9 -15q-3 0 -11 4q-50 25 -97 25q-135 0 -135 -168t134 -168q43 0 89 21q18 8 20 8q7 0 9 -11q3 -36 3 -74q-62 -33 -131 -33q-112 0 -176.5 65.5t-64.5 191.5q0 121 62 189t180 68z" />
<glyph unicode="d" horiz-adv-x="560" d="M372 494v223h113v-566q0 -86 5 -151h-90q-13 0 -13 13l-1 62h-4q-45 -85 -151 -85q-49 0 -86 16t-57.5 40t-33 57.5t-16 61.5t-3.5 59q0 127 70.5 203.5t190.5 76.5q49 0 76 -10zM295 417q-143 0 -143 -187q0 -70 22 -111.5t83 -41.5q48 0 81.5 42.5t33.5 125.5v162 q-33 10 -77 10z" />
<glyph unicode="e" horiz-adv-x="506" d="M260 504q58 0 101 -19.5t66 -52t33.5 -67.5t10.5 -73q0 -30 -4 -70h-317q0 -64 39.5 -104.5t113.5 -40.5q54 0 107 24q16 7 18 7q8 0 9 -11q4 -52 4 -80q-73 -27 -149 -27q-257 0 -257 256q0 118 60 188t165 70zM152 298h207q0 1 0.5 5.5t0.5 6.5q0 42 -23.5 77t-77.5 35 q-32 0 -54.5 -13.5t-33 -34t-15 -39.5t-4.5 -37z" />
<glyph unicode="f" horiz-adv-x="349" d="M290 727q49 0 79 -11l-6 -73q0 -14 -10 -14l-19 4q-19 4 -40 4q-93 0 -93 -105v-38h119v-85h-119v-409h-112v409h-69v85h69v29q0 204 201 204z" />
<glyph unicode="g" horiz-adv-x="532" d="M504 -59q0 -81 -70 -135t-185 -54q-105 0 -159.5 39.5t-54.5 111.5q0 45 27.5 73t60.5 39q-54 19 -54 74q0 59 65 80q-32 10 -60 46.5t-28 98.5q0 81 59 135.5t160 54.5q36 0 81 -10h166q0 -30 -3 -60q-2 -23 -29 -23h-44q12 -8 23 -30.5t11 -51.5q0 -82 -55.5 -131.5 t-156.5 -49.5q-31 0 -56 5q-10 -2 -19.5 -11.5t-9.5 -21.5q0 -42 64 -42h95q86 0 129 -35.5t43 -101.5zM394 -72q0 66 -98 66h-75q-21 0 -29 1q-18 -8 -34 -28t-16 -49q0 -38 31 -59t84 -21q66 0 101.5 25t35.5 65zM364 323q0 47 -27.5 74t-76.5 27q-51 0 -79 -27.5 t-28 -72.5q0 -48 27 -74t79 -26q49 0 77 26t28 73z" />
<glyph unicode="h" horiz-adv-x="559" d="M182 0h-112v717h112v-279h4q48 66 138 66q79 0 122 -45.5t43 -111.5v-347h-112v315q0 102 -79 102q-48 0 -82 -45.5t-34 -128.5v-243z" />
<glyph unicode="i" horiz-adv-x="256" d="M72 0h112v494h-112v-494zM70 606v114h116v-114h-116z" />
<glyph unicode="j" horiz-adv-x="267" d="M78 -81q0 -40 -21.5 -58t-50.5 -18q-17 0 -32.5 4t-16.5 4q-10 0 -10 -14q-5 -55 -7 -73q24 -11 70 -11q84 0 132 43t48 132v566h-112v-575zM77 606v114h116v-114h-116z" />
<glyph unicode="k" horiz-adv-x="492" d="M182 0h-112v717h112v-432l160 209h132l-183 -226l201 -268h-140l-170 250v-250z" />
<glyph unicode="l" horiz-adv-x="252" d="M182 0h-112v717h112v-717z" />
<glyph unicode="m" horiz-adv-x="852" d="M70 494h87q15 0 15 -14l1 -61h4q4 9 11.5 20t24 27.5t45.5 27t65 10.5q59 0 93 -28t49 -62q16 33 53 61.5t98 28.5q72 0 119 -40t47 -124v-340h-112v300q0 33 -4.5 55.5t-23.5 41t-53 18.5q-50 0 -77 -46.5t-27 -113.5v-255h-112v312q0 103 -83 103q-51 0 -77 -48 t-26 -112v-255h-112v345q0 64 -5 149z" />
<glyph unicode="n" horiz-adv-x="565" d="M187 0h-112v343q0 56 -5 151h89q13 0 13 -13l1 -62h4q48 85 151 85q78 0 122.5 -45.5t44.5 -111.5v-347h-113v315q0 102 -79 102q-48 0 -82 -45.5t-34 -128.5v-243z" />
<glyph unicode="o" horiz-adv-x="550" d="M275 415q-57 0 -90.5 -44t-33.5 -124q0 -30 6 -57t19 -53.5t38.5 -42t60.5 -15.5q57 0 90 45t33 123q0 75 -32 121.5t-91 46.5zM35 247q0 50 13 94.5t40 82t75 59t112 21.5q117 0 178.5 -71t61.5 -186q0 -111 -60 -184t-180 -73q-112 0 -176 67.5t-64 189.5z" />
<glyph unicode="p" horiz-adv-x="561" d="M188 0v-231h-112v574q0 75 -6 151h89q13 0 13 -13l1 -62h4q45 85 152 85q49 0 86 -16t57.5 -40t33 -57.5t16.5 -61.5t4 -59q0 -127 -71 -203.5t-190 -76.5q-50 0 -77 10zM265 77q70 0 107 47.5t37 139.5q0 70 -22.5 111.5t-83.5 41.5q-48 0 -81.5 -43t-33.5 -125v-162 q33 -10 77 -10z" />
<glyph unicode="q" horiz-adv-x="555" d="M250 79q58 0 90.5 51t32.5 117v162q-28 10 -78 10q-143 0 -143 -185q0 -155 98 -155zM373 68h-4q-48 -78 -147 -78q-187 0 -187 235q0 56 15 104.5t46.5 88.5t85 63t124.5 23q87 0 179 -23v-712h-112v299z" />
<glyph unicode="r" horiz-adv-x="389" d="M70 494h88q14 0 14 -13q0 -5 0.5 -30.5t0.5 -31.5h4q2 6 5 12t14 21t24 25t37 18.5t53 8.5q37 0 59 -11q-2 -66 -4 -80q0 -11 -8 -11q-4 0 -19 5q-13 4 -34 4q-50 0 -83.5 -40t-33.5 -126v-245h-112v355q0 4 -5 139z" />
<glyph unicode="s" horiz-adv-x="394" d="M223 504q63 0 113 -10q0 -4 -1.5 -29t-2.5 -40q-2 -20 -11 -20q-3 0 -12 3q-38 15 -76 15q-41 0 -63 -16.5t-22 -40.5q0 -25 15 -39.5t50 -27.5l52 -20q38 -14 68.5 -47t30.5 -83q0 -81 -61.5 -120t-150.5 -39q-79 0 -109 9q0 45 4 81q2 13 11 13q4 0 16 -3 q55 -11 82 -11q45 0 69 17t24 41q0 40 -62 63l-56 21q-96 36 -96 136q0 70 55.5 108.5t132.5 38.5z" />
<glyph unicode="t" horiz-adv-x="345" d="M256 -10q-168 0 -168 174v245h-68v85h68v109h113v-109h118v-85h-118v-263q0 -67 62 -67q18 0 36 4.5t20 4.5q10 0 10 -14q4 -55 6 -73q-30 -11 -79 -11z" />
<glyph unicode="u" horiz-adv-x="565" d="M377 494h112v-343q0 -73 6 -151h-89q-13 0 -13 13l-1 62h-4q-48 -85 -152 -85q-78 0 -122 45.5t-44 111.5v347h112v-315q0 -102 79 -102q48 0 82 45.5t34 128.5v243z" />
<glyph unicode="v" horiz-adv-x="512" d="M196 0l-186 494h124l124 -362h4l120 362h120l-187 -494h-119z" />
<glyph unicode="w" horiz-adv-x="809" d="M168 0l-148 494h115l99 -366h7l106 366h122l106 -366h7l100 366h107l-153 -494h-127l-104 364h-4l-104 -364h-129z" />
<glyph unicode="x" horiz-adv-x="517" d="M198 248l-170 246h135l102 -165l107 165h122l-167 -238l180 -256h-144l-105 169l-119 -169h-129z" />
<glyph unicode="y" horiz-adv-x="520" d="M214 1l-184 493h126l119 -344h4l112 344h119q-149 -405 -194 -524q-18 -48 -26.5 -68.5t-29 -56t-39.5 -51t-51 -28.5t-72 -13q-63 0 -88 11q3 40 6 74q2 13 10 13q1 0 17 -4t32 -4q23 0 38.5 4t36.5 23.5t35 55.5z" />
<glyph unicode="z" horiz-adv-x="421" d="M45 409v85h342v-71l-217 -338h221v-85h-361v76l215 333h-200z" />
<glyph unicode="{" horiz-adv-x="389" d="M160 226v-6q31 -7 51.5 -24.5t28.5 -43t10 -43t2 -41.5v-125q0 -87 87 -87v-87h-25q-161 0 -161 181v133q0 45 -21.5 71t-81.5 29v79q59 2 81 28t22 71v132q0 181 161 181h25v-87q-87 0 -87 -87v-124q0 -24 -2 -41.5t-10 -42.5t-28.5 -42t-51.5 -24z" />
<glyph unicode="|" horiz-adv-x="258" d="M80 -231v905h98v-905h-98z" />
<glyph unicode="}" horiz-adv-x="390" d="M230 220v5q-31 7 -51.5 24t-28.5 42.5t-10 43t-2 41.5v124q0 87 -88 87v87h26q161 0 161 -181v-132q0 -45 22 -71t81 -28v-79q-60 -3 -81.5 -29t-21.5 -71v-133q0 -181 -161 -181h-26v87q88 0 88 87v125q0 24 2 41.5t10 43t28.5 43t51.5 24.5z" />
<glyph unicode="~" horiz-adv-x="606" d="M93 225l-33 79q66 56 137 56q54 0 113.5 -30t97.5 -30q51 0 103 47l35 -76q-64 -64 -142 -64q-51 0 -115.5 30t-98.5 30q-49 0 -97 -42z" />
<glyph unicode="&#xa1;" horiz-adv-x="182" d="M111 263h-80l-16 -476h112zM13 342v114h116v-114h-116z" />
<glyph unicode="&#xa2;" horiz-adv-x="532" d="M449 137q3 -36 3 -82q-46 -23 -91 -30v-80h-96v81q-88 15 -136.5 79t-48.5 174q0 106 47 171t138 81v81h96v-79q55 -10 91 -31q0 -39 -3 -78q0 -15 -9 -15q-4 0 -12 4q-44 25 -97 25q-69 0 -101.5 -43t-32.5 -116q0 -74 33 -116.5t101 -42.5q34 0 89 20q16 8 20 8 q7 0 9 -11z" />
<glyph unicode="&#xa3;" horiz-adv-x="524" d="M439 675l-8 -96q-48 8 -79 8q-48 0 -72.5 -24.5t-24.5 -65.5q0 -48 19 -105h128v-92h-113q0 -72 -18.5 -119.5t-54.5 -88.5h248v-92h-384v73q96 59 96 174q0 35 -2 53h-92v92h74q-22 66 -22 121q0 88 55.5 129.5t150.5 41.5q63 0 99 -9z" />
<glyph unicode="&#xa4;" d="M515 264q0 -60 -34 -113l61 -61l-69 -69l-63 66q-47 -26 -98 -26q-52 0 -99 26l-64 -66l-69 69l63 62q-34 51 -34 112q0 62 34 113l-63 62l69 69l64 -66q45 25 99 25q53 0 98 -25l63 66l69 -69l-61 -61q34 -53 34 -114zM200 264q0 -46 33 -78.5t79 -32.5t79 32.5t33 78.5 t-33 79t-79 33t-79 -33t-33 -79z" />
<glyph unicode="&#xa5;" d="M582 674l-164 -350h81v-91h-124v-1v-48h124v-92h-124v-92h-118v92h-122v92h122v48v1h-122v91h77l-172 350h128l150 -322l146 322h118z" />
<glyph unicode="&#xa6;" horiz-adv-x="258" d="M80 273v401h98v-401h-98zM80 -231v402h98v-402h-98z" />
<glyph unicode="&#xa7;" horiz-adv-x="477" d="M321 34q56 -54 56 -117q0 -77 -51.5 -120.5t-137.5 -43.5q-65 0 -130 23l11 84q54 -25 112 -25q45 0 68.5 22t23.5 54q0 39 -77 101q-33 28 -55 44q-31 26 -49.5 45t-35 54t-16.5 74q0 95 95 175q-55 55 -55 117q0 77 51.5 120.5t136.5 43.5q66 0 131 -23l-12 -84 q-63 25 -112 25q-45 0 -68 -22t-23 -54q0 -19 13 -39t26 -32t37 -30l55 -44q31 -26 50 -45.5t35.5 -54t16.5 -73.5q0 -96 -96 -175zM229 112l23 -19q56 49 56 97q0 71 -80 135l-24 20q-55 -48 -55 -97q0 -71 80 -136z" />
<glyph unicode="&#xa8;" horiz-adv-x="359" d="M225 533v103h104v-103h-104zM30 533v103h104v-103h-104z" />
<glyph unicode="&#xa9;" horiz-adv-x="858" d="M524 496l-6 -54q-35 16 -77 16q-46 0 -77 -32t-31 -93q0 -47 26 -85t82 -38q54 0 77 13l6 -52q-6 -4 -30.5 -10t-48.5 -6q-91 0 -136 49t-45 129q0 77 44 127.5t137 50.5q49 0 79 -15zM430 684q143 0 245.5 -102t102.5 -245q0 -144 -102 -245.5t-246 -101.5 q-145 0 -247.5 101.5t-102.5 245.5q0 143 102.5 245t247.5 102zM430 619q-119 0 -202.5 -82t-83.5 -200t83.5 -200.5t202.5 -82.5q118 0 200.5 82t82.5 201q0 118 -82 200t-201 82z" />
<glyph unicode="&#xaa;" horiz-adv-x="387" d="M77 663q46 21 106 21q135 0 135 -118v-127q0 -39 6 -83h-58q-12 0 -12 14l-2 27h-4q-31 -47 -97 -47q-45 0 -73 29.5t-28 74.5q0 58 52 85t125 27h18v10q0 53 -69 53q-45 0 -81 -18q-8 -4 -10 -4q-6 0 -6 7q-2 22 -2 49zM229 519q-106 0 -106 -64q0 -22 14 -37t38 -15 q32 0 51 26.5t19 66.5v23h-16zM337 300v-75h-283v75h283z" />
<glyph unicode="&#xab;" horiz-adv-x="523" d="M50 237l171 210l64 -43l-138 -167l138 -168l-64 -42zM238 237l171 210l64 -43l-137 -167l137 -168l-64 -42z" />
<glyph unicode="&#xac;" d="M55 288h512v-288h-109v201h-403v87z" />
<glyph unicode="&#xad;" horiz-adv-x="400" d="M320 288v-87h-240v87h240z" />
<glyph unicode="&#xae;" horiz-adv-x="426" d="M195 541l4 -1h7q34 0 34 26q0 25 -34 25q-3 0 -5.5 -0.5t-4.5 -0.5h-1v-49zM243 458l-34 63h-14v-63h-27v152h45q26 0 40 -12t14 -33q0 -14 -7 -23.5t-12.5 -12.5t-10.5 -4l37 -67h-31zM213 684q64 0 108.5 -45t44.5 -108q0 -64 -44.5 -108.5t-108.5 -44.5t-108.5 44.5 t-44.5 108.5q0 63 44.5 108t108.5 45zM213 654q-51 0 -87 -36t-36 -87t36 -87t87 -36t87 36t36 87t-36 87t-87 36z" />
<glyph unicode="&#xaf;" horiz-adv-x="261" d="M241 674v-85h-221v85h221z" />
<glyph unicode="&#xb0;" d="M309 549q0 -56 -39.5 -95t-95.5 -39t-95 39.5t-39 94.5q0 56 39.5 95.5t94.5 39.5q56 0 95.5 -39.5t39.5 -95.5zM174 617q-28 0 -48 -20t-20 -48t20 -48t48 -20t48 20t20 48q0 29 -20 48.5t-48 19.5z" />
<glyph unicode="&#xb1;" d="M54 0v85h513v-85h-513zM365 383h202v-87h-202v-170h-109v170h-202v87h202v163h109v-163z" />
<glyph unicode="&#xb2;" horiz-adv-x="259" d="M20 382q60 69 71 82q58 70 58 111q0 23 -14.5 39.5t-41.5 16.5q-34 0 -62 -20l-9 48q30 20 81 20q48 0 76.5 -28t28.5 -69q0 -57 -57 -126l-59 -73h127v-46h-199v45z" />
<glyph unicode="&#xb3;" horiz-adv-x="252" d="M39 619l-9 45q35 15 74 15q44 0 72.5 -23.5t28.5 -63.5q0 -23 -12.5 -40.5t-23.5 -23t-20 -8.5v-4q12 -4 24 -11t25.5 -26.5t13.5 -45.5q0 -46 -33.5 -73.5t-94.5 -27.5q-27 0 -47 5l-3 48q14 -4 48 -4q33 0 53 14.5t20 39.5q0 56 -79 56h-17v40h15q32 0 53 15t21 40 q0 20 -14 34t-42 14t-53 -15z" />
<glyph unicode="&#xb4;" horiz-adv-x="228" d="M80 573h-60l80 147h108z" />
<glyph unicode="&#xb5;" d="M518 151q0 -86 5 -151h-90q-13 0 -13 13l-1 62h-3q-48 -85 -151 -85q-31 0 -55 7v-244h-112v741h113v-314q0 -103 79 -103q48 0 81.5 45.5t33.5 128.5v243h113v-343z" />
<glyph unicode="&#xb6;" horiz-adv-x="575" d="M446 -246h-91v828h-75v-828h-92v525q-32 2 -63 13.5t-60 32.5t-47 59t-18 86q0 99 65 151.5t177 52.5h273v-92h-69v-828z" />
<glyph unicode="&#xb7;" horiz-adv-x="316" d="M100 188v114h116v-114h-116z" />
<glyph unicode="&#xb8;" horiz-adv-x="203" d="M55 -17h57l-26 -47q10 4 27 4q32 0 51 -20t19 -51q0 -45 -42 -84t-93 -46l-28 37q38 7 65.5 30t27.5 52q0 40 -52 40h-31z" />
<glyph unicode="&#xb9;" horiz-adv-x="188" d="M138 337h-56v277q-25 -16 -63 -20l-9 44q26 3 50.5 15t34.5 26h43v-342z" />
<glyph unicode="&#xba;" horiz-adv-x="413" d="M206 626q-37 0 -58.5 -28.5t-21.5 -80.5q0 -43 18.5 -76t61.5 -33q38 0 59.5 29t21.5 80q0 49 -21 79t-60 30zM50 517q0 70 38 118.5t118 48.5q76 0 116.5 -46.5t40.5 -120.5q0 -72 -39 -119.5t-118 -47.5q-73 0 -114.5 44t-41.5 123zM348 300v-75h-283v75h283z" />
<glyph unicode="&#xbb;" horiz-adv-x="523" d="M302 447l171 -210l-171 -210l-64 42l138 168l-138 167zM114 447l171 -210l-171 -210l-64 42l137 168l-137 167z" />
<glyph unicode="&#xbc;" horiz-adv-x="621" d="M499 130v156h-4l-90 -156h94zM499 84h-139l-9 44l128 209h76v-207h53v-46h-53v-84h-56v84zM129 337h-56v277q-26 -16 -63 -20l-9 44q27 3 51 15t34 26h43v-342zM453 674l-403 -674h77l403 674h-77z" />
<glyph unicode="&#xbd;" horiz-adv-x="643" d="M128 337h-56v277q-25 -16 -63 -20l-9 44q27 3 51 15t34 26h43v-342zM414 45q60 69 70 82q59 68 59 111q0 23 -14.5 39.5t-42.5 16.5q-33 0 -61 -20l-9 48q30 20 80 20q49 0 77.5 -28t28.5 -69q0 -58 -58 -126l-59 -73h128v-46h-199v45zM49 0l403 674h77l-403 -674h-77z " />
<glyph unicode="&#xbe;" horiz-adv-x="687" d="M49 619l-9 45q35 15 74 15q44 0 72.5 -23.5t28.5 -63.5q0 -23 -12.5 -40.5t-23.5 -23t-20 -8.5v-4q12 -4 24 -11t25.5 -26.5t13.5 -45.5q0 -46 -33.5 -73.5t-94.5 -27.5q-27 0 -47 5l-3 48q14 -4 48 -4q33 0 53 14.5t20 39.5q0 56 -79 56h-17v40h15q32 0 53 15.5t21 39.5 q0 20 -14 34t-42 14t-53 -15zM548 130v156h-4l-90 -156h94zM548 84h-139l-9 44l128 209h76v-207h53v-46h-53v-84h-56v84zM99 0l403 674h77l-403 -674h-77z" />
<glyph unicode="&#xbf;" horiz-adv-x="349" d="M339 -104l-9 -100q-59 -18 -123 -18q-103 0 -154.5 51.5t-51.5 110.5q0 19 2 35.5t8 31t10 24t15 22.5t15.5 18t18 18.5l17.5 17.5q33 33 46.5 60.5t13.5 69.5v26h108v-31q0 -37 -6.5 -65.5t-20 -49.5t-21.5 -30t-24 -23q-24 -23 -34.5 -34t-19.5 -30.5t-9 -41.5 q0 -37 28 -60.5t80 -23.5q61 0 111 22zM143 343v114h116v-114h-116z" />
<glyph unicode="&#xc0;" horiz-adv-x="664" d="M360 736h-61l-127 147h108zM10 0l256 674h136l252 -674h-129l-54 152h-285l-54 -152h-122zM329 551h-4l-107 -308h221z" />
<glyph unicode="&#xc1;" horiz-adv-x="664" d="M357 736h-60l80 147h107zM10 0l256 674h136l252 -674h-129l-54 152h-285l-54 -152h-122zM329 551h-4l-107 -308h221z" />
<glyph unicode="&#xc2;" horiz-adv-x="664" d="M470 736h-74l-68 88l-70 -88h-69l91 147h99zM10 0l256 674h136l252 -674h-129l-54 152h-285l-54 -152h-122zM329 551h-4l-107 -308h221z" />
<glyph unicode="&#xc3;" horiz-adv-x="663" d="M178 754l-32 51q52 63 108 63q40 0 82 -24t70 -24q39 0 67 34l33 -51q-52 -64 -108 -64q-41 0 -82.5 24t-71.5 24q-37 0 -66 -33zM10 0l256 674h136l251 -674h-129l-53 152h-286l-53 -152h-122zM329 551h-4l-107 -308h220z" />
<glyph unicode="&#xc4;" horiz-adv-x="663" d="M10 0l256 674h136l251 -674h-129l-53 152h-285l-54 -152h-122zM330 551h-4l-108 -308h220zM375 770v103h104v-103h-104zM180 770v103h104v-103h-104z" />
<glyph unicode="&#xc5;" horiz-adv-x="663" d="M427 789q0 -41 -29.5 -70t-70.5 -29t-70 29t-29 70t29 70t70 29t70.5 -29t29.5 -70zM327 832q-17 0 -29.5 -12.5t-12.5 -30.5q0 -17 12.5 -29.5t29.5 -12.5q18 0 30.5 12.5t12.5 29.5q0 18 -12.5 30.5t-30.5 12.5zM10 0l256 674h136l251 -674h-129l-53 152h-285l-54 -152 h-122zM330 551h-4l-108 -308h220z" />
<glyph unicode="&#xc6;" horiz-adv-x="856" d="M806 0h-340v152h-230l-99 -152h-147l435 674h379v-92h-220v-190h207v-92h-207v-208h222v-92zM466 537h-4l-171 -294h175v294z" />
<glyph unicode="&#xc7;" horiz-adv-x="574" d="M399 -33q32 0 51.5 -20.5t19.5 -52.5q0 -45 -42.5 -84.5t-94.5 -46.5l-28 37q38 8 66 31t28 52q0 17 -13 29t-40 12h-31l19 68q-150 15 -222 108t-72 237q0 71 18 130.5t57 109.5t109 78.5t165 28.5q79 0 155 -28l-14 -101q-82 32 -151 32q-91 0 -152 -64.5t-61 -185.5 q0 -42 11 -83t34 -80t66.5 -63t101.5 -24q72 0 151 33l14 -102q-78 -28 -155 -28h-4l-13 -27q10 4 27 4z" />
<glyph unicode="&#xc8;" horiz-adv-x="495" d="M80 674v-674h365v92h-247v208h232v92h-232v190h245v92h-363zM334 736h-60l-128 147h108z" />
<glyph unicode="&#xc9;" horiz-adv-x="495" d="M80 674v-674h365v92h-246v208h231v92h-231v190h244v92h-363zM291 746h-61l81 147h107z" />
<glyph unicode="&#xca;" horiz-adv-x="495" d="M80 674v-674h365v92h-246v208h231v92h-231v190h244v92h-363zM398 736h-73l-68 88l-70 -88h-69l90 147h100z" />
<glyph unicode="&#xcb;" horiz-adv-x="495" d="M80 674v-674h365v92h-246v208h231v92h-231v190h244v92h-363zM311 770v103h104v-103h-104zM116 770v103h104v-103h-104z" />
<glyph unicode="&#xcc;" horiz-adv-x="279" d="M81 674v-674h118v674h-118zM172 736h-61l-127 147h108z" />
<glyph unicode="&#xcd;" horiz-adv-x="279" d="M80 674v-674h119v674h-119zM169 736h-60l80 147h108z" />
<glyph unicode="&#xce;" horiz-adv-x="279" d="M81 674v-674h118v674h-118zM280 736h-73l-69 88l-69 -88h-70l91 147h99z" />
<glyph unicode="&#xcf;" horiz-adv-x="279" d="M78 674v-674h119v674h-119zM185 770v103h104v-103h-104zM-10 770v103h104v-103h-104z" />
<glyph unicode="&#xd0;" horiz-adv-x="689" d="M311 674q155 0 246.5 -89t91.5 -248q0 -148 -86 -242.5t-252 -94.5h-221v293h-70v92h70v289h221zM285 87q117 0 179 66t62 184q0 122 -64 186t-177 64q-26 0 -76 -5v-197h176v-92h-176v-202q24 -4 76 -4z" />
<glyph unicode="&#xd1;" horiz-adv-x="704" d="M80 0h105v526h4l289 -526h146v674h-105v-516h-5l-284 516h-150v-674zM194 760l-32 51q52 63 108 63q40 0 82 -24t70 -24q39 0 67 34l33 -51q-52 -64 -108 -64q-41 0 -82.5 24t-71.5 24q-37 0 -66 -33z" />
<glyph unicode="&#xd2;" horiz-adv-x="726" d="M363 684q-149 0 -236 -93t-87 -254q0 -163 87.5 -255t235.5 -92q152 0 237.5 95t85.5 252t-85.5 252t-237.5 95zM165 337q0 118 54 184t144 66q89 0 143.5 -66.5t54.5 -183.5q0 -115 -54 -182.5t-144 -67.5q-91 0 -144.5 67t-53.5 183zM394 736h-60l-128 147h108z" />
<glyph unicode="&#xd3;" horiz-adv-x="726" d="M363 684q-149 0 -236 -93t-87 -254q0 -163 87.5 -255t235.5 -92q152 0 237.5 95t85.5 252t-85.5 252t-237.5 95zM165 337q0 118 54 184t144 66q89 0 143.5 -66.5t54.5 -183.5q0 -115 -54 -182.5t-144 -67.5q-91 0 -144.5 67t-53.5 183zM393 736h-61l80 147h108z" />
<glyph unicode="&#xd4;" horiz-adv-x="727" d="M363 684q-148 0 -235.5 -93t-87.5 -254q0 -162 88 -254.5t235 -92.5q152 0 238 95t86 252t-86 252t-238 95zM166 337q0 118 54 184t143 66q90 0 144 -66.5t54 -183.5q0 -115 -54 -182.5t-144 -67.5q-91 0 -144 67t-53 183zM505 736h-73l-69 88l-69 -88h-69l90 147h100z " />
<glyph unicode="&#xd5;" horiz-adv-x="727" d="M363 684q-148 0 -235.5 -93t-87.5 -254q0 -162 88 -254.5t235 -92.5q152 0 238 95t86 252t-86 252t-238 95zM166 337q0 118 54 184t143 66q90 0 144 -66.5t54 -183.5q0 -115 -54 -182.5t-144 -67.5q-91 0 -144 67t-53 183zM214 754l-32 51q52 63 107 63q40 0 82 -24 t71 -24q37 0 67 34l32 -51q-52 -64 -107 -64q-41 0 -82.5 24t-72.5 24q-38 0 -65 -33z" />
<glyph unicode="&#xd6;" horiz-adv-x="726" d="M363 684q152 0 237.5 -95t85.5 -252t-85.5 -252t-237.5 -95q-147 0 -235 92.5t-88 254.5q0 161 87 254t236 93zM165 337q0 -116 53.5 -183t144.5 -67q90 0 144 67.5t54 182.5q0 117 -54.5 183.5t-143.5 66.5q-90 0 -144 -66t-54 -184zM408 770v103h104v-103h-104z M213 770v103h104v-103h-104z" />
<glyph unicode="&#xd7;" d="M318 317l142 143l62 -63l-142 -142l144 -143l-77 -77l-144 143l-143 -143l-62 62l143 143l-144 144l77 77z" />
<glyph unicode="&#xd8;" horiz-adv-x="726" d="M686 337q0 -157 -85.5 -252t-237.5 -95q-40 0 -78 8l-33 -94l-77 24l34 95q-81 39 -125 119.5t-44 194.5q0 161 87.5 254t235.5 93q43 0 77 -7l38 105l76 -24l-37 -106q81 -40 125 -122t44 -193zM249 124l162 458q-25 5 -48 5q-90 0 -144 -66t-54 -184q0 -148 84 -213z M477 550l-163 -457q24 -6 49 -6q90 0 144 67.5t54 182.5q0 148 -84 213z" />
<glyph unicode="&#xd9;" horiz-adv-x="691" d="M346 -10q131 0 198 67t67 185v432h-119v-430q0 -67 -35.5 -112t-110.5 -45q-69 0 -108 40.5t-39 116.5v430h-119v-432q0 -114 64.5 -183t201.5 -69zM377 736h-60l-128 147h108z" />
<glyph unicode="&#xda;" horiz-adv-x="691" d="M346 -10q132 0 198.5 67t66.5 185v432h-119v-430q0 -67 -35.5 -112t-110.5 -45q-69 0 -108 40.5t-39 116.5v430h-119v-432q0 -114 64.5 -183t201.5 -69zM376 736h-61l80 147h108z" />
<glyph unicode="&#xdb;" horiz-adv-x="691" d="M346 -10q132 0 198.5 67t66.5 185v432h-119v-430q0 -67 -35.5 -112t-110.5 -45q-69 0 -108 40.5t-39 116.5v430h-119v-432q0 -114 64.5 -183t201.5 -69zM488 736h-73l-69 88l-69 -88h-69l90 147h100z" />
<glyph unicode="&#xdc;" horiz-adv-x="691" d="M346 -10q132 0 198.5 67t66.5 185v432h-119v-430q0 -67 -35.5 -112t-110.5 -45q-69 0 -108 40.5t-39 116.5v430h-119v-432q0 -114 64.5 -183t201.5 -69zM391 770v103h104v-103h-104zM196 770v103h104v-103h-104z" />
<glyph unicode="&#xdd;" horiz-adv-x="562" d="M227 233v-233h118v233l207 441h-118l-146 -322l-150 322h-128zM291 736h-61l81 147h107z" />
<glyph unicode="&#xde;" horiz-adv-x="549" d="M198 217q14 -2 50 -2q73 0 111 34t38 93q0 60 -38.5 92.5t-110.5 32.5q-40 0 -50 -2v-248zM272 125q-38 0 -74 4v-129h-118v674h118v-122h82q112 0 175.5 -59t63.5 -149q0 -103 -65.5 -161t-181.5 -58z" />
<glyph unicode="&#xdf;" horiz-adv-x="593" d="M70 484q0 138 65 195t176 57q102 0 146.5 -44t44.5 -106q0 -31 -13.5 -55.5t-32 -40t-37.5 -29.5t-32.5 -30.5t-13.5 -36.5q0 -23 11.5 -38.5t40.5 -32.5l42 -26q96 -57 96 -144q0 -78 -61 -120.5t-146 -42.5q-67 0 -100 12q-2 39 0 78q2 11 7 11q3 0 8.5 -2.5t8.5 -3.5 q35 -11 72 -11q41 0 69.5 17t28.5 49q0 25 -13 40.5t-42 32.5l-57 35q-77 47 -77 131q0 32 13 57.5t31.5 42t37.5 32t32 36t13 44.5q0 27 -23.5 45t-64.5 18q-55 0 -86 -38t-31 -110v-506h-113v484z" />
<glyph unicode="&#xe0;" horiz-adv-x="497" d="M72 471q0 -21 3 -75q0 -11 9 -11q4 0 20 8q54 27 121 27q106 0 106 -82v-15h-28q-52 0 -98 -9t-86.5 -27.5t-64.5 -53.5t-24 -82q0 -69 43.5 -115t111.5 -46q99 0 150 74h4l3 -42q0 -22 18 -22h92q-9 61 -9 128v196q0 180 -209 180q-82 0 -162 -33zM305 251h26v-35 q0 -61 -29.5 -102t-79.5 -41q-36 0 -57.5 23t-21.5 57q0 98 162 98zM274 594h-61l-127 147h108z" />
<glyph unicode="&#xe1;" horiz-adv-x="496" d="M71 471q0 -21 3 -75q0 -11 9 -11q2 0 16 7q14 9 49.5 18.5t75.5 9.5q106 0 106 -82v-16h-28q-51 0 -97 -9t-86.5 -27.5t-64.5 -53.5t-24 -82q0 -69 43 -114.5t112 -45.5q101 0 149 73h4l3 -41q2 -22 18 -22h92q-9 61 -9 127v196q0 181 -208 181q-83 0 -163 -33zM304 250 h26v-35q0 -61 -29 -102t-79 -41q-37 0 -58.5 23t-21.5 57q0 98 162 98zM264 594h-61l81 147h107z" />
<glyph unicode="&#xe2;" horiz-adv-x="496" d="M71 472q0 -7 1.5 -36.5t1.5 -38.5v-3q1 -4 3 -6t6 -2q3 0 17 7q52 28 124 28q106 0 106 -82v-16h-28q-51 0 -97 -9t-86.5 -27.5t-64.5 -53.5t-24 -82q0 -69 43 -114.5t112 -45.5q101 0 149 73h4l3 -42q2 -22 18 -22h92q-9 61 -9 128v196q0 181 -208 181q-78 0 -163 -33z M305 251h25v-35q0 -61 -29 -102t-79 -41q-37 0 -58 23t-21 57q0 98 162 98zM380 594h-73l-69 88l-69 -88h-69l90 147h100z" />
<glyph unicode="&#xe3;" horiz-adv-x="496" d="M71 472q0 -7 1.5 -36.5t1.5 -38.5v-3q1 -4 3 -6t6 -2q3 0 17 7q56 28 124 28q106 0 106 -82v-16h-28q-51 0 -97 -9t-86.5 -27.5t-64.5 -53.5t-24 -82q0 -69 43 -114.5t112 -45.5q101 0 149 73h4l3 -42q2 -22 18 -22h92q-9 61 -9 128v196q0 181 -208 181q-78 0 -163 -33z M305 251h25v-35q0 -61 -29 -102t-79 -41q-37 0 -58 23t-21 57q0 98 162 98zM99 604l-32 51q50 64 107 64q40 0 82 -24t71 -24q38 0 67 33l32 -51q-48 -63 -107 -63q-41 0 -82.5 24t-72.5 24q-35 0 -65 -34z" />
<glyph unicode="&#xe4;" horiz-adv-x="497" d="M72 471q80 33 162 33q209 0 209 -180v-196q0 -67 9 -128h-92q-18 0 -18 22l-3 42h-4q-51 -74 -150 -74q-68 0 -111.5 46t-43.5 115q0 47 24 82t64.5 53.5t86.5 27.5t98 9h28v15q0 82 -106 82q-69 0 -125 -28q-14 -7 -16 -7q-9 0 -9 11q-3 54 -3 75zM305 251 q-162 0 -162 -98q0 -34 21.5 -57t57.5 -23q50 0 79.5 41t29.5 102v35h-26zM287 612v103h104v-103h-104zM92 612v103h104v-103h-104z" />
<glyph unicode="&#xe5;" horiz-adv-x="496" d="M337 655q0 -41 -29 -70t-70 -29t-70 29t-29 70t29 70t70 29t70 -29t29 -70zM238 698q-17 0 -29.5 -12.5t-12.5 -30.5q0 -17 12.5 -29.5t29.5 -12.5q18 0 30.5 12.5t12.5 29.5q0 18 -12.5 30.5t-30.5 12.5zM71 472q82 32 163 32q208 0 208 -180v-197q0 -66 9 -127h-94 q-11 0 -14 5.5t-4 16.5l-3 41h-4q-48 -73 -147 -73q-69 0 -112 45.5t-43 114.5q0 47 24 82t64.5 54t86.5 28t97 9h28v16q0 81 -106 81q-68 0 -124 -28q-15 -6 -17 -6q-3 0 -5 1.5t-2.5 3t-1.5 3.5v2q-3 54 -3 76zM305 251q-162 0 -162 -99q0 -34 21 -57t58 -23q50 0 79 41 t29 102v36h-25z" />
<glyph unicode="&#xe6;" horiz-adv-x="801" d="M305 223q-162 0 -162 -81q0 -28 19.5 -49t59.5 -21q43 0 76 37.5t33 83.5v30h-26zM762 223h-317q0 -64 39.5 -105t113.5 -41q53 0 106 24l19 7q8 0 9 -11q3 -39 3 -80q-69 -27 -148 -27q-158 0 -219 98h-3q-58 -98 -180 -98q-73 0 -114 40.5t-41 109.5q0 80 78 119.5 t195 39.5h28v40q0 81 -106 81q-69 0 -125 -28q-12 -6 -16 -6q-9 0 -9 10q-3 54 -3 76q78 32 162 32q117 0 168 -57q59 57 153 57q58 0 101 -19.5t66 -52t33.5 -67.5t10.5 -73q0 -33 -4 -69zM447 299h207v11q0 42 -23 77t-77 35q-32 0 -54.5 -13t-33 -34t-15 -39.5 t-4.5 -36.5z" />
<glyph unicode="&#xe7;" horiz-adv-x="442" d="M406 25q-54 -29 -113 -33l-15 -28q10 4 27 4q32 0 51.5 -20.5t19.5 -52.5q0 -45 -42.5 -84.5t-94.5 -46.5l-28 37q38 8 66 31t28 52q0 17 -12.5 29t-40.5 12h-31l19 68q-96 10 -150.5 74t-54.5 180q0 121 61.5 189t180.5 68q64 0 130 -33q0 -9 -1 -25t-1.5 -27.5 t-0.5 -17.5q0 -1 -0.5 -4t-1 -5t-2.5 -4t-5 -2q-4 0 -12 4q-50 25 -97 25q-135 0 -135 -168q0 -166 135 -166q48 0 88 20q18 8 20 8q9 0 9 -11q3 -18 3 -73z" />
<glyph unicode="&#xe8;" horiz-adv-x="506" d="M298 594h-61l-127 147h108zM260 504q-105 0 -165 -70t-60 -188q0 -256 257 -256q76 0 149 27q0 28 -4 80q-1 11 -9 11q-2 0 -18 -7q-53 -24 -107 -24q-74 0 -113.5 40.5t-39.5 104.5h317q4 40 4 70q0 38 -10.5 73t-33.5 67.5t-66 52t-101 19.5zM152 298q0 18 4.5 37 t15 39.5t33 34t54.5 13.5q54 0 77.5 -35t23.5 -77q0 -2 -0.5 -6.5t-0.5 -5.5h-207z" />
<glyph unicode="&#xe9;" horiz-adv-x="506" d="M260 505q-105 0 -165 -70t-60 -189q0 -255 257 -255q82 0 149 26q0 53 -4 81q-1 11 -9 11q-4 0 -18 -8q-36 -23 -106 -23q-74 0 -113.5 40.5t-39.5 104.5h316q4 40 4 70q0 38 -10.5 73t-33.5 67.5t-66 52t-101 19.5zM152 298q0 18 4.5 37t15 40t33 34.5t54.5 13.5 q54 0 77.5 -35t23.5 -78q0 -10 -1 -12h-207zM286 594h-60l80 147h107z" />
<glyph unicode="&#xea;" horiz-adv-x="506" d="M403 594h-73l-69 88l-69 -88h-70l91 147h99zM260 504q-105 0 -165 -70t-60 -188q0 -256 257 -256q76 0 149 27q0 28 -4 80q-1 11 -9 11q-2 0 -18 -7q-53 -24 -107 -24q-74 0 -113.5 40.5t-39.5 104.5h317q4 40 4 70q0 38 -10.5 73t-33.5 67.5t-66 52t-101 19.5zM152 298 q0 18 4.5 37t15 39.5t33 34t54.5 13.5q54 0 77.5 -35t23.5 -77q0 -2 -0.5 -6.5t-0.5 -5.5h-207z" />
<glyph unicode="&#xeb;" horiz-adv-x="506" d="M260 504q58 0 101 -19.5t66 -52t33.5 -67.5t10.5 -73q0 -30 -4 -70h-317q0 -64 39.5 -104.5t113.5 -40.5q54 0 107 24q16 7 18 7q8 0 9 -11q4 -52 4 -80q-73 -27 -149 -27q-257 0 -257 256q0 118 60 188t165 70zM152 298h207q0 1 0.5 5.5t0.5 6.5q0 42 -23.5 77t-77.5 35 q-32 0 -54.5 -13.5t-33 -34t-15 -39.5t-4.5 -37zM308 612v103h104v-103h-104zM113 612v103h104v-103h-104z" />
<glyph unicode="&#xec;" horiz-adv-x="256" d="M74 0h112v494h-112v-494zM169 594h-61l-127 147h108z" />
<glyph unicode="&#xed;" horiz-adv-x="256" d="M70 0h112v494h-112v-494zM152 594h-60l80 147h108z" />
<glyph unicode="&#xee;" horiz-adv-x="256" d="M71 0h112v494h-112v-494zM269 594h-73l-69 88l-69 -88h-70l91 147h99z" />
<glyph unicode="&#xef;" horiz-adv-x="256" d="M183 0h-112v494h112v-494zM174 612v103h104v-103h-104zM-21 612v103h104v-103h-104z" />
<glyph unicode="&#xf0;" horiz-adv-x="550" d="M412 598q44 -57 73.5 -147t29.5 -192q0 -123 -59 -196t-181 -73q-112 0 -176 64.5t-64 180.5q0 102 58.5 173t181.5 71q49 0 86 -12q-16 44 -43 87l-87 -42l-35 73l69 33q-20 18 -25 21q-15 11 -15 19q0 5 9 18l33 48q52 -29 89 -63l93 44l35 -73zM275 80q58 0 90.5 40.5 t32.5 114.5q0 71 -31.5 113t-91.5 42q-57 0 -90 -39.5t-33 -115.5q0 -28 6 -53.5t19 -49.5t38 -38t60 -14z" />
<glyph unicode="&#xf1;" horiz-adv-x="565" d="M75 0h112v243q0 83 34 128.5t82 45.5q79 0 79 -103v-314h113v346q0 67 -44.5 112.5t-122.5 45.5q-102 0 -151 -85h-5q-1 50 -1 61q0 14 -13 14h-88q5 -97 5 -151v-343zM140 604l-32 51q50 64 108 64q39 0 81 -24t71 -24q38 0 67 33l32 -51q-48 -63 -107 -63 q-41 0 -82.5 24t-71.5 24q-36 0 -66 -34z" />
<glyph unicode="&#xf2;" horiz-adv-x="550" d="M275 415q-57 0 -90 -44t-33 -124q0 -67 28.5 -117.5t94.5 -50.5q57 0 90 44.5t33 123.5q0 75 -32 121.5t-91 46.5zM35 247q0 50 13 94t40 81.5t75 59.5t112 22q117 0 178.5 -71.5t61.5 -185.5q0 -111 -60 -184t-180 -73q-112 0 -176 68t-64 189zM312 594h-61l-127 147 h107z" />
<glyph unicode="&#xf3;" horiz-adv-x="550" d="M275 415q-57 0 -90 -44t-33 -124q0 -41 9.5 -76.5t39 -63.5t74.5 -28q57 0 90 44.5t33 123.5q0 75 -32 121.5t-91 46.5zM35 247q0 50 13 94t40 81.5t75 59.5t112 22q117 0 178.5 -71.5t61.5 -185.5q0 -112 -59.5 -184.5t-180.5 -72.5q-112 0 -176 68t-64 189zM301 594 h-61l81 147h107z" />
<glyph unicode="&#xf4;" horiz-adv-x="550" d="M275 415q-57 0 -90 -44t-33 -124q0 -41 9.5 -76.5t39 -63.5t74.5 -28q57 0 90 44.5t33 123.5q0 75 -32 121.5t-91 46.5zM35 247q0 50 13 94t40 81.5t75 59.5t112 22q117 0 178.5 -71.5t61.5 -185.5q0 -112 -59.5 -184.5t-180.5 -72.5q-112 0 -176 68t-64 189zM417 594 h-73l-68 88l-70 -88h-69l90 147h100z" />
<glyph unicode="&#xf5;" horiz-adv-x="550" d="M275 416q-57 0 -90 -44t-33 -124q0 -67 28.5 -117.5t94.5 -50.5q57 0 90 44.5t33 123.5q0 75 -32 121.5t-91 46.5zM35 248q0 50 13 94t40 81.5t75 59.5t112 22q117 0 178.5 -71.5t61.5 -185.5q0 -111 -60 -184t-180 -73q-112 0 -176 68t-64 189zM137 604l-33 51 q53 64 108 64q40 0 82 -24t70 -24q39 0 68 33l32 -51q-51 -63 -108 -63q-41 0 -82.5 24t-71.5 24q-37 0 -65 -34z" />
<glyph unicode="&#xf6;" horiz-adv-x="550" d="M275 415q-57 0 -90 -44t-33 -124q0 -41 9.5 -76.5t39 -63.5t74.5 -28q57 0 90 44.5t33 123.5q0 75 -32 121.5t-91 46.5zM35 247q0 50 13 94t40 81.5t75 59.5t112 22q117 0 178.5 -71.5t61.5 -185.5q0 -112 -59.5 -184.5t-180.5 -72.5q-112 0 -176 68t-64 189zM319 612 v103h104v-103h-104zM124 612v103h104v-103h-104z" />
<glyph unicode="&#xf7;" d="M55 288h512v-87h-512v87zM251 351v114h116v-114h-116zM252 17v114h116v-114h-116z" />
<glyph unicode="&#xf8;" horiz-adv-x="550" d="M515 247q0 -111 -60 -184t-180 -73q-28 0 -56 5l-40 -103l-76 24l41 106q-109 64 -109 225q0 50 13 94.5t40 82t75 59t112 21.5q30 0 53 -4l37 97l77 -23l-39 -101q112 -63 112 -226zM185 123l112 290q-14 2 -22 2q-57 0 -90 -44t-33 -124q0 -79 33 -124zM360 376 l-113 -294q13 -3 28 -3q57 0 90 44.5t33 123.5q0 83 -38 129z" />
<glyph unicode="&#xf9;" horiz-adv-x="564" d="M377 494h112v-343q0 -53 5 -151h-89q-13 0 -13 14l-1 62h-4q-47 -86 -151 -86q-78 0 -122 45.5t-44 112.5v346h112v-314q0 -103 79 -103q48 0 82 46t34 128v243zM299 594h-60l-127 147h107z" />
<glyph unicode="&#xfa;" horiz-adv-x="565" d="M377 494h112v-343q0 -73 6 -151h-89q-12 0 -13 14l-1 62h-4q-49 -86 -152 -86q-78 0 -122 45.5t-44 112.5v346h112v-314q0 -55 22.5 -79t57.5 -24q48 0 81.5 45.5t33.5 128.5v243zM289 594h-60l80 147h107z" />
<glyph unicode="&#xfb;" horiz-adv-x="565" d="M489 494h-112v-243q0 -83 -33.5 -128.5t-81.5 -45.5q-35 0 -57.5 24t-22.5 79v314h-112v-346q0 -67 44 -112.5t122 -45.5q103 0 152 86h4q1 -50 1 -62q1 -14 13 -14h89q-6 78 -6 151v343zM423 594h-73l-69 88l-69 -88h-70l91 147h100z" />
<glyph unicode="&#xfc;" horiz-adv-x="564" d="M489 494h-112v-243q0 -82 -34 -128t-82 -46q-79 0 -79 103v314h-112v-346q0 -67 44 -112.5t122 -45.5q104 0 151 86h4q1 -50 1 -62q0 -14 13 -14h89q-5 98 -5 151v343zM321 612v103h104v-103h-104zM126 612v103h104v-103h-104z" />
<glyph unicode="&#xfd;" horiz-adv-x="521" d="M31 494l184 -492q-16 -42 -29 -76q-14 -36 -35 -55.5t-36.5 -23t-38.5 -3.5q-16 0 -32 3.5t-17 3.5q-9 0 -10 -12l-7 -75q30 -10 89 -10q29 0 53.5 7t42 15t34.5 27.5t27 32.5t23 42t19 43.5t19 49.5l194 523h-119l-113 -343h-4l-118 343h-126zM264 594h-61l81 147h107z " />
<glyph unicode="&#xfe;" horiz-adv-x="555" d="M182 0v-230h-112v947h112v-278h4q46 66 137 66q49 0 86 -16.5t57.5 -40.5t33 -57t16.5 -61.5t4 -58.5q0 -127 -70.5 -203.5t-190.5 -76.5q-36 0 -77 9zM260 77q70 0 106.5 47.5t36.5 139.5q0 70 -22 112t-83 42q-48 0 -82 -43t-34 -126v-162q33 -10 78 -10z" />
<glyph unicode="&#xff;" horiz-adv-x="520" d="M30 494l184 -492q-16 -42 -29 -76q-14 -36 -35 -55.5t-36.5 -23t-38.5 -3.5q-16 0 -31.5 3.5t-17.5 3.5q-8 0 -10 -12l-6 -75q30 -10 89 -10q29 0 53.5 7t41.5 15t34 27.5t27 32.5t23 42t19 43.5t19 49.5l194 523h-119l-112 -343h-4l-119 343h-126zM321 612v103h104v-103 h-104zM126 612v103h104v-103h-104z" />
<glyph unicode="&#x100;" horiz-adv-x="663" d="M10 0l256 674h136l251 -674h-129l-53 152h-285l-54 -152h-122zM330 551h-4l-108 -308h220zM457 883v-85h-221v85h221z" />
<glyph unicode="&#x101;" horiz-adv-x="496" d="M71 472q82 32 163 32q208 0 208 -180v-197q0 -66 9 -127h-94q-11 0 -14 5.5t-4 16.5l-3 41h-4q-48 -73 -147 -73q-69 0 -112 45.5t-43 114.5q0 47 24 82t64.5 54t86.5 28t97 9h28v16q0 81 -106 81q-68 0 -124 -28q-15 -6 -17 -6q-3 0 -5 1.5t-2.5 3t-1.5 3.5v2 q-3 54 -3 76zM305 251q-162 0 -162 -99q0 -34 21 -57t58 -23q50 0 79 41t29 102v36h-25zM351 741v-85h-221v85h221z" />
<glyph unicode="&#x102;" horiz-adv-x="663" d="M266 674l-256 -674h122l54 152h285l53 -152h129l-251 674h-136zM326 551h4l108 -308h-220zM407 883h70q0 -49 -32 -88.5t-100 -39.5q-36 0 -62.5 13.5t-40 34t-19.5 41t-6 39.5h69q0 -22 14 -42t47 -20q32 0 46 20.5t14 41.5z" />
<glyph unicode="&#x103;" horiz-adv-x="496" d="M71 472q0 -22 3 -76v-2q1 -2 1.5 -3.5t2.5 -3t5 -1.5q2 0 17 6q56 28 124 28q106 0 106 -81v-16h-28q-51 0 -97 -9t-86.5 -28t-64.5 -54t-24 -82q0 -69 43 -114.5t112 -45.5q99 0 147 73h4l3 -41q1 -8 1.5 -11.5t4.5 -7t12 -3.5h94q-9 61 -9 127v197q0 180 -208 180 q-81 0 -163 -32zM305 251h25v-36q0 -61 -29 -102t-79 -41q-37 0 -58 23t-21 57q0 99 162 99zM330 741h70q0 -49 -32 -88.5t-100 -39.5q-36 0 -62.5 13.5t-40 34t-19.5 41t-6 39.5h69q0 -22 14 -42t47 -20q32 0 46 20.5t14 41.5z" />
<glyph unicode="&#x104;" horiz-adv-x="663" d="M653 0h-121h-8l-53 152h-285l-54 -152h-122l256 674h136zM330 551h-4l-108 -308h220zM473 -157q0 69 59 157h75q-43 -80 -43 -135q0 -44 52 -44q13 0 37 8v-65q-42 -14 -77 -14q-15 0 -30 3t-33 12t-29 29t-11 49z" />
<glyph unicode="&#x105;" horiz-adv-x="497" d="M415 -174q11 0 37 7v-65q-26 -13 -77 -13q-15 0 -29.5 3t-32.5 11.5t-29 28.5t-11 49q0 82 67 169l-4 48h-4q-48 -74 -147 -74q-69 0 -112 45.5t-43 114.5q0 47 24 82t64.5 54t86.5 28t97 9h28v16q0 82 -106 82q-68 0 -124 -28q-2 -1 -5.5 -3t-6.5 -3t-5 -1q-9 0 -9 11 q-3 51 -3 75q85 33 163 33q208 0 208 -181v-197q0 -66 9 -127h-46q-41 -74 -41 -131q0 -43 51 -43zM330 216v35h-25q-163 0 -163 -98q0 -34 21.5 -57.5t58.5 -23.5q50 0 79 41t29 103z" />
<glyph unicode="&#x106;" horiz-adv-x="575" d="M545 656l-14 -101q-74 32 -151 32q-92 0 -153 -64.5t-61 -185.5q0 -42 11 -83t34 -80t67 -63t102 -24q59 0 151 33l14 -101q-87 -29 -156 -29q-178 0 -263.5 95t-85.5 252q0 71 18 130.5t57 109.5t109 78.5t165 28.5q80 0 156 -28zM280 736h-60l80 147h108z" />
<glyph unicode="&#x107;" horiz-adv-x="442" d="M277 504q64 0 130 -33q0 -31 -3 -70q0 -15 -9 -15q-3 0 -11 4q-50 25 -97 25q-135 0 -135 -168t134 -168q43 0 89 21q18 8 20 8q7 0 9 -11q3 -36 3 -74q-62 -33 -131 -33q-112 0 -176.5 65.5t-64.5 191.5q0 121 62 189t180 68zM274 594h-60l80 147h108z" />
<glyph unicode="&#x108;" horiz-adv-x="575" d="M545 656l-14 -101q-74 32 -151 32q-92 0 -153 -64.5t-61 -185.5q0 -42 11 -83t34 -80t67 -63t102 -24q59 0 151 33l14 -101q-87 -29 -156 -29q-178 0 -263.5 95t-85.5 252q0 71 18 130.5t57 109.5t109 78.5t165 28.5q80 0 156 -28zM530 736h-73l-68 88l-70 -88h-69 l90 147h100z" />
<glyph unicode="&#x109;" horiz-adv-x="453" d="M277 504q-118 0 -180 -68t-62 -189q0 -126 64.5 -191.5t176.5 -65.5q69 0 131 33q0 38 -3 74q-2 11 -9 11q-2 0 -20 -8q-46 -21 -89 -21q-134 0 -134 168t135 168q47 0 97 -25q8 -4 11 -4q9 0 9 15q3 39 3 70q-66 33 -130 33zM418 594h-73l-68 88l-70 -88h-69l90 147h100 z" />
<glyph unicode="&#x10a;" horiz-adv-x="575" d="M545 656l-14 -101q-74 32 -151 32q-92 0 -153 -64.5t-61 -185.5q0 -42 11 -83t34 -80t67 -63t102 -24q59 0 151 33l14 -101q-87 -29 -156 -29q-178 0 -263.5 95t-85.5 252q0 71 18 130.5t57 109.5t109 78.5t165 28.5q80 0 156 -28zM336 770v103h104v-103h-104z" />
<glyph unicode="&#x10b;" horiz-adv-x="442" d="M277 504q-118 0 -180 -68t-62 -189q0 -126 64.5 -191.5t176.5 -65.5q69 0 131 33q0 38 -3 74q-2 11 -9 11q-2 0 -20 -8q-46 -21 -89 -21q-134 0 -134 168t135 168q47 0 97 -25q8 -4 11 -4q9 0 9 15q3 39 3 70q-66 33 -130 33zM224 612v103h104v-103h-104z" />
<glyph unicode="&#x10c;" horiz-adv-x="575" d="M545 656l-14 -101q-74 32 -151 32q-92 0 -153 -64.5t-61 -185.5q0 -42 11 -83t34 -80t67 -63t102 -24q59 0 151 33l14 -101q-87 -29 -156 -29q-178 0 -263.5 95t-85.5 252q0 71 18 130.5t57 109.5t109 78.5t165 28.5q80 0 156 -28zM174 883h74l68 -88l70 88h69l-90 -147 h-100z" />
<glyph unicode="&#x10d;" horiz-adv-x="452" d="M277 504q-118 0 -180 -68t-62 -189q0 -126 64.5 -191.5t176.5 -65.5q69 0 131 33q0 38 -3 74q-2 11 -9 11q-2 0 -20 -8q-46 -21 -89 -21q-134 0 -134 168t135 168q47 0 97 -25q8 -4 11 -4q9 0 9 15q3 39 3 70q-66 33 -130 33zM136 741h74l68 -88l70 88h69l-90 -147h-100z " />
<glyph unicode="&#x10e;" horiz-adv-x="679" d="M80 674v-674h221q166 0 252 94.5t86 242.5q0 159 -91.5 248t-246.5 89h-221zM199 91v491q50 5 76 5q113 0 177 -64t64 -186q0 -118 -62 -184t-179 -66q-52 0 -76 4zM204 883h74l68 -88l70 88h69l-90 -147h-100z" />
<glyph unicode="&#x10f;" horiz-adv-x="648" d="M372 494v233h113v-576q0 -86 5 -151h-90q-13 0 -13 13l-1 62h-4q-45 -85 -151 -85q-49 0 -86 16t-57.5 40t-33 57.5t-16 61.5t-3.5 59q0 127 70.5 203.5t190.5 76.5q49 0 76 -10zM295 417q-143 0 -143 -187q0 -70 22 -111.5t83 -41.5q48 0 81.5 42.5t33.5 125.5v162 q-33 10 -77 10zM572 560v114h116v-96q0 -53 -27.5 -90.5t-66.5 -56.5l-19 22q56 36 52 107h-55z" />
<glyph unicode="&#x110;" horiz-adv-x="689" d="M311 674q155 0 246.5 -89t91.5 -248q0 -148 -86 -242.5t-252 -94.5h-221v293h-70v92h70v289h221zM285 87q117 0 179 66t62 184q0 122 -64 186t-177 64q-26 0 -76 -5v-197h176v-92h-176v-202q24 -4 76 -4z" />
<glyph unicode="&#x111;" horiz-adv-x="561" d="M521 655v-87h-36v-417q0 -86 5 -151h-90q-13 0 -13 13l-1 62h-4q-45 -85 -151 -85q-49 0 -86 16t-57.5 40t-33 57.5t-16 61.5t-3.5 59q0 127 70.5 203.5t190.5 76.5q49 0 76 -10v74h-91v87h91v62h113v-62h36zM295 417q-143 0 -143 -187q0 -70 22 -111.5t83 -41.5 q48 0 81.5 42.5t33.5 125.5v162q-33 10 -77 10z" />
<glyph unicode="&#x112;" horiz-adv-x="496" d="M80 0v674h364v-92h-245v-190h232v-92h-232v-208h247v-92h-366zM387 883v-85h-221v85h221z" />
<glyph unicode="&#x113;" horiz-adv-x="506" d="M260 504q58 0 101 -19.5t66 -52t33.5 -67.5t10.5 -73q0 -30 -4 -70h-317q0 -64 39.5 -104.5t113.5 -40.5q54 0 107 24q16 7 18 7q8 0 9 -11q4 -52 4 -80q-73 -27 -149 -27q-257 0 -257 256q0 118 60 188t165 70zM152 298h207q0 1 0.5 5.5t0.5 6.5q0 42 -23.5 77t-77.5 35 q-32 0 -54.5 -13.5t-33 -34t-15 -39.5t-4.5 -37zM371 741v-85h-221v85h221z" />
<glyph unicode="&#x114;" horiz-adv-x="486" d="M80 674v-674h366v92h-247v208h232v92h-232v190h245v92h-364zM303 883h70q0 -49 -32 -88.5t-100 -39.5q-36 0 -62.5 13.5t-40 34t-19.5 41t-6 39.5h69q0 -22 14 -42t47 -20q32 0 46 20.5t14 41.5z" />
<glyph unicode="&#x115;" horiz-adv-x="506" d="M260 504q-105 0 -165 -70t-60 -188q0 -256 257 -256q76 0 149 27q0 28 -4 80q-1 11 -9 11q-2 0 -18 -7q-53 -24 -107 -24q-74 0 -113.5 40.5t-39.5 104.5h317q4 40 4 70q0 38 -10.5 73t-33.5 67.5t-66 52t-101 19.5zM152 298q0 18 4.5 37t15 39.5t33 34t54.5 13.5 q54 0 77.5 -35t23.5 -77q0 -2 -0.5 -6.5t-0.5 -5.5h-207zM313 674h70q0 -49 -32 -88.5t-100 -39.5q-36 0 -62.5 13.5t-40 34t-19.5 41t-6 39.5h69q0 -22 14 -42t47 -20q32 0 46 20.5t14 41.5z" />
<glyph unicode="&#x116;" horiz-adv-x="496" d="M80 674v-674h366v92h-247v208h232v92h-232v190h245v92h-364zM220 770v103h104v-103h-104z" />
<glyph unicode="&#x117;" horiz-adv-x="506" d="M260 504q-105 0 -165 -70t-60 -188q0 -256 257 -256q76 0 149 27q0 28 -4 80q-1 11 -9 11q-2 0 -18 -7q-53 -24 -107 -24q-74 0 -113.5 40.5t-39.5 104.5h317q4 40 4 70q0 38 -10.5 73t-33.5 67.5t-66 52t-101 19.5zM152 298q0 18 4.5 37t15 39.5t33 34t54.5 13.5 q54 0 77.5 -35t23.5 -77q0 -2 -0.5 -6.5t-0.5 -5.5h-207zM208 612v103h104v-103h-104z" />
<glyph unicode="&#x118;" horiz-adv-x="496" d="M446 0h-45q-43 -80 -43 -136q0 -43 51 -43q15 0 37 8v-65q-31 -14 -77 -14q-15 0 -29.5 3t-32.5 11.5t-29 29t-11 49.5q0 69 59 157h-246v674h364v-92h-245v-190h232v-92h-232v-208h247v-92z" />
<glyph unicode="&#x119;" horiz-adv-x="506" d="M471 292q0 -30 -4 -70h-317q0 -64 39.5 -104.5t113.5 -40.5q53 0 106 24l19 7q8 0 9 -11q3 -42 3 -81q-51 -20 -120 -25q-39 -73 -39 -127q0 -43 52 -43q9 0 37 7v-65q-39 -13 -77 -13q-15 0 -29.5 3t-32.5 11.5t-29 28.5t-11 49q0 69 54 150q-210 23 -210 254 q0 118 60 188t165 70q58 0 101 -19.5t66 -52t33.5 -67.5t10.5 -73zM359 298v12q0 42 -23 77t-77 35q-32 0 -54.5 -13.5t-33 -34t-15 -39.5t-4.5 -37h207z" />
<glyph unicode="&#x11a;" horiz-adv-x="496" d="M80 674v-674h366v92h-247v208h232v92h-232v190h245v92h-364zM146 883h74l68 -88l70 88h69l-90 -147h-100z" />
<glyph unicode="&#x11b;" horiz-adv-x="506" d="M260 504q-105 0 -165 -70t-60 -188q0 -256 257 -256q76 0 149 27q0 28 -4 80q-1 11 -9 11q-2 0 -18 -7q-53 -24 -107 -24q-74 0 -113.5 40.5t-39.5 104.5h317q4 40 4 70q0 38 -10.5 73t-33.5 67.5t-66 52t-101 19.5zM152 298q0 18 4.5 37t15 39.5t33 34t54.5 13.5 q54 0 77.5 -35t23.5 -77q0 -2 -0.5 -6.5t-0.5 -5.5h-207zM118 741h74l68 -88l70 88h69l-90 -147h-100z" />
<glyph unicode="&#x11c;" horiz-adv-x="668" d="M534 736h-73l-68 88l-70 -88h-69l90 147h100zM586 657l-14 -102l-6 3q-5 2 -12 4.5t-18 6t-25 6.5t-30.5 6t-37.5 4.5t-43 1.5q-101 0 -167.5 -67.5t-66.5 -182.5q0 -109 63.5 -179.5t164.5 -70.5q73 0 100 10v203h-108v92h227v-363q-89 -39 -218 -39q-91 0 -160.5 28.5 t-111 77.5t-62.5 110t-21 131q0 69 21 130t62.5 110.5t110.5 78t158 28.5q121 0 194 -27z" />
<glyph unicode="&#x11d;" horiz-adv-x="532" d="M408 594h-73l-68 88l-70 -88h-69l90 147h100zM504 -59q0 -81 -70 -135t-185 -54q-105 0 -159.5 39.5t-54.5 111.5q0 45 27.5 73t60.5 39q-54 19 -54 74q0 59 65 80q-32 10 -60 46.5t-28 98.5q0 81 59 135.5t160 54.5q36 0 81 -10h166q0 -30 -3 -60q-2 -23 -29 -23h-44 q12 -8 23 -30.5t11 -51.5q0 -82 -55.5 -131.5t-156.5 -49.5q-31 0 -56 5q-10 -2 -19.5 -11.5t-9.5 -21.5q0 -42 64 -42h95q86 0 129 -35.5t43 -101.5zM394 -72q0 66 -98 66h-75q-21 0 -29 1q-18 -8 -34 -28t-16 -49q0 -38 31 -59t84 -21q66 0 101.5 25t35.5 65zM364 323 q0 47 -27.5 74t-76.5 27q-51 0 -79 -27.5t-28 -72.5q0 -48 27 -74t79 -26q49 0 77 26t28 73z" />
<glyph unicode="&#x11e;" horiz-adv-x="668" d="M421 883h70q0 -49 -32 -88.5t-100 -39.5q-36 0 -62.5 13.5t-40 34t-19.5 41t-6 39.5h69q0 -22 14 -42t47 -20q32 0 46 20.5t14 41.5zM586 657l-14 -102l-6 3q-5 2 -12 4.5t-18 6t-25 6.5t-30.5 6t-37.5 4.5t-43 1.5q-101 0 -167.5 -67.5t-66.5 -182.5q0 -109 63.5 -179.5 t164.5 -70.5q73 0 100 10v203h-108v92h227v-363q-89 -39 -218 -39q-91 0 -160.5 28.5t-111 77.5t-62.5 110t-21 131q0 69 21 130t62.5 110.5t110.5 78t158 28.5q121 0 194 -27z" />
<glyph unicode="&#x11f;" horiz-adv-x="532" d="M350 741h70q0 -49 -32 -88.5t-100 -39.5q-36 0 -62.5 13.5t-40 34t-19.5 41t-6 39.5h69q0 -22 14 -42t47 -20q32 0 46 20.5t14 41.5zM504 -59q0 -81 -70 -135t-185 -54q-105 0 -159.5 39.5t-54.5 111.5q0 45 27.5 73t60.5 39q-54 19 -54 74q0 59 65 80q-32 10 -60 46.5 t-28 98.5q0 81 59 135.5t160 54.5q36 0 81 -10h166q0 -30 -3 -60q-2 -23 -29 -23h-44q12 -8 23 -30.5t11 -51.5q0 -82 -55.5 -131.5t-156.5 -49.5q-31 0 -56 5q-10 -2 -19.5 -11.5t-9.5 -21.5q0 -42 64 -42h95q86 0 129 -35.5t43 -101.5zM394 -72q0 66 -98 66h-75 q-21 0 -29 1q-18 -8 -34 -28t-16 -49q0 -38 31 -59t84 -21q66 0 101.5 25t35.5 65zM364 323q0 47 -27.5 74t-76.5 27q-51 0 -79 -27.5t-28 -72.5q0 -48 27 -74t79 -26q49 0 77 26t28 73z" />
<glyph unicode="&#x120;" horiz-adv-x="668" d="M342 770v103h104v-103h-104zM586 657l-14 -102l-6 3q-5 2 -12 4.5t-18 6t-25 6.5t-30.5 6t-37.5 4.5t-43 1.5q-101 0 -167.5 -67.5t-66.5 -182.5q0 -109 63.5 -179.5t164.5 -70.5q73 0 100 10v203h-108v92h227v-363q-89 -39 -218 -39q-91 0 -160.5 28.5t-111 77.5 t-62.5 110t-21 131q0 69 21 130t62.5 110.5t110.5 78t158 28.5q121 0 194 -27z" />
<glyph unicode="&#x121;" horiz-adv-x="532" d="M214 612v103h104v-103h-104zM504 -59q0 -81 -70 -135t-185 -54q-105 0 -159.5 39.5t-54.5 111.5q0 45 27.5 73t60.5 39q-54 19 -54 74q0 59 65 80q-32 10 -60 46.5t-28 98.5q0 81 59 135.5t160 54.5q36 0 81 -10h166q0 -30 -3 -60q-2 -23 -29 -23h-44q12 -8 23 -30.5 t11 -51.5q0 -82 -55.5 -131.5t-156.5 -49.5q-31 0 -56 5q-10 -2 -19.5 -11.5t-9.5 -21.5q0 -42 64 -42h95q86 0 129 -35.5t43 -101.5zM394 -72q0 66 -98 66h-75q-21 0 -29 1q-18 -8 -34 -28t-16 -49q0 -38 31 -59t84 -21q66 0 101.5 25t35.5 65zM364 323q0 47 -27.5 74 t-76.5 27q-51 0 -79 -27.5t-28 -72.5q0 -48 27 -74t79 -26q49 0 77 26t28 73z" />
<glyph unicode="&#x122;" horiz-adv-x="668" d="M337 -168v114h116v-96q0 -53 -27.5 -90.5t-66.5 -56.5l-19 22q56 36 52 107h-55zM586 657l-14 -102l-6 3q-5 2 -12 4.5t-18 6t-25 6.5t-30.5 6t-37.5 4.5t-43 1.5q-101 0 -167.5 -67.5t-66.5 -182.5q0 -109 63.5 -179.5t164.5 -70.5q73 0 100 10v203h-108v92h227v-363 q-89 -39 -218 -39q-91 0 -160.5 28.5t-111 77.5t-62.5 110t-21 131q0 69 21 130t62.5 110.5t110.5 78t158 28.5q121 0 194 -27z" />
<glyph unicode="&#x123;" horiz-adv-x="532" d="M292 594h-61l81 147h107zM504 -59q0 -81 -70 -135t-185 -54q-105 0 -159.5 39.5t-54.5 111.5q0 45 27.5 73t60.5 39q-54 19 -54 74q0 59 65 80q-32 10 -60 46.5t-28 98.5q0 81 59 135.5t160 54.5q36 0 81 -10h166q0 -30 -3 -60q-2 -23 -29 -23h-44q12 -8 23 -30.5 t11 -51.5q0 -82 -55.5 -131.5t-156.5 -49.5q-31 0 -56 5q-10 -2 -19.5 -11.5t-9.5 -21.5q0 -42 64 -42h95q86 0 129 -35.5t43 -101.5zM394 -72q0 66 -98 66h-75q-21 0 -29 1q-18 -8 -34 -28t-16 -49q0 -38 31 -59t84 -21q66 0 101.5 25t35.5 65zM364 323q0 47 -27.5 74 t-76.5 27q-51 0 -79 -27.5t-28 -72.5q0 -48 27 -74t79 -26q49 0 77 26t28 73z" />
<glyph unicode="&#x124;" horiz-adv-x="696" d="M497 674h119v-674h-119v300h-298v-300h-119v674h119v-282h298v282zM490 736h-73l-68 88l-70 -88h-69l90 147h100z" />
<glyph unicode="&#x125;" horiz-adv-x="559" d="M70 0h112v243q0 83 34 128.5t82 45.5q79 0 79 -102v-315h112v347q0 66 -43 111.5t-122 45.5q-90 0 -138 -66h-4v236h-112v-674zM461 736h-73l-68 88l-70 -88h-69l90 147h100z" />
<glyph unicode="&#x126;" horiz-adv-x="638" d="M666 582v-92h-60v-490h-118v300h-299v-300h-119v490h-70v92h70v93h119v-93h299v93h118v-93h60zM488 392v98h-299v-98h299z" />
<glyph unicode="&#x127;" horiz-adv-x="545" d="M310 504q78 0 121.5 -45.5t43.5 -111.5v-347h-112v315q0 102 -80 102q-47 0 -81 -45.5t-34 -128.5v-243h-112v571h-55v86h55v60h112v-60h191v-86h-191v-133h4q46 66 138 66z" />
<glyph unicode="&#x128;" horiz-adv-x="279" d="M78 0v674h119v-674h-119zM-7 752l-33 51q48 63 108 63q40 0 82 -24t71 -24q37 0 67 34l32 -51q-49 -64 -107 -64q-41 0 -82.5 24t-72.5 24q-36 0 -65 -33z" />
<glyph unicode="&#x129;" horiz-adv-x="256" d="M186 0h-112v494h112v-494zM-19 627l-33 51q48 63 108 63q40 0 82 -24t71 -24q37 0 67 34l32 -51q-49 -64 -107 -64q-41 0 -82.5 24t-72.5 24q-36 0 -65 -33z" />
<glyph unicode="&#x12a;" horiz-adv-x="279" d="M77 0v674h119v-674h-119zM250 883v-85h-221v85h221z" />
<glyph unicode="&#x12b;" horiz-adv-x="256" d="M188 0h-112v494h112v-494zM238 741v-85h-221v85h221z" />
<glyph unicode="&#x12c;" horiz-adv-x="279" d="M80 0v674h119v-674h-119zM200 883h70q0 -49 -32 -88.5t-100 -39.5q-36 0 -62.5 13.5t-40 34t-19.5 41t-6 39.5h69q0 -22 14 -42t47 -20q32 0 46 20.5t14 41.5z" />
<glyph unicode="&#x12d;" horiz-adv-x="256" d="M72 0h112v494h-112v-494zM188 720h70q0 -49 -32 -88.5t-100 -39.5q-36 0 -62.5 13.5t-40 34t-19.5 41t-6 39.5h69q0 -22 14 -42t47 -20q32 0 46 20.5t14 41.5z" />
<glyph unicode="&#x12e;" horiz-adv-x="279" d="M121 0h-43v674h118v-674q-43 -80 -43 -136q0 -43 51 -43q11 0 37 7v-65q-26 -13 -77 -13q-15 0 -29.5 3t-32.5 11.5t-29 28.5t-11 49q0 67 59 158z" />
<glyph unicode="&#x12f;" horiz-adv-x="256" d="M176 -160q10 0 33 7v-58q-30 -12 -69 -12q-14 0 -26.5 2.5t-28.5 10t-26 25.5t-10 44q0 64 53 141h-45v494h112v-494q-39 -69 -39 -121q0 -39 46 -39zM61 612v103h104v-103h-104z" />
<glyph unicode="&#x130;" horiz-adv-x="279" d="M79 0v674h119v-674h-119zM86 770v103h104v-103h-104z" />
<glyph unicode="&#x131;" horiz-adv-x="256" d="M182 0h-112v494h112v-494z" />
<glyph unicode="&#x132;" horiz-adv-x="625" d="M80 0v674h119v-674h-119zM426 178v496h119v-474q0 -210 -178 -210q-55 0 -88 10v98q33 -11 62 -11q39 0 62 24t23 67z" />
<glyph unicode="&#x133;" horiz-adv-x="493" d="M57 0h112v494h-112v-494zM304 -81q0 -40 -21.5 -58t-50.5 -18q-17 0 -32.5 4t-16.5 4q-10 0 -10 -14q-5 -55 -7 -73q24 -11 70 -11q84 0 132 43t48 132v566h-112v-575zM307 612v103h104v-103h-104zM60 612v103h104v-103h-104z" />
<glyph unicode="&#x134;" horiz-adv-x="346" d="M147 178v496h119v-474q0 -210 -178 -210q-55 0 -88 10v98q33 -11 62 -11q39 0 62 24t23 67zM348 738h-73l-68 88l-70 -88h-69l90 147h100z" />
<glyph unicode="&#x135;" horiz-adv-x="267" d="M78 -81q0 -40 -21.5 -58t-50.5 -18q-17 0 -32.5 4t-16.5 4q-10 0 -10 -14q-5 -55 -7 -73q24 -11 70 -11q84 0 132 43t48 132v566h-112v-575zM275 594h-73l-68 88l-70 -88h-69l90 147h100z" />
<glyph unicode="&#x136;" horiz-adv-x="598" d="M588 0h-145l-245 330v-330h-118v674h118v-312l245 312h135l-257 -325zM254 -168v114h116v-96q0 -53 -27.5 -90.5t-66.5 -56.5l-19 22q56 36 52 107h-55z" />
<glyph unicode="&#x137;" horiz-adv-x="492" d="M182 0h-112v717h112v-432l160 209h132l-183 -226l201 -268h-140l-170 250v-250zM206 -168v114h116v-96q0 -53 -27.5 -90.5t-66.5 -56.5l-19 22q56 36 52 107h-55z" />
<glyph unicode="&#x138;" horiz-adv-x="492" d="M182 0h-112v494h112v-209l160 209h132l-183 -226l201 -268h-140l-170 250v-250z" />
<glyph unicode="&#x139;" horiz-adv-x="464" d="M255 736h-60l80 147h108zM199 674v-582h245v-92h-364v674h119z" />
<glyph unicode="&#x13a;" horiz-adv-x="252" d="M141 766h-60l80 147h108zM182 0h-112v717h112v-717z" />
<glyph unicode="&#x13b;" horiz-adv-x="464" d="M199 674v-582h245v-92h-364v674h119zM208 -168v114h116v-96q0 -53 -27.5 -90.5t-66.5 -56.5l-19 22q56 36 52 107h-55z" />
<glyph unicode="&#x13c;" horiz-adv-x="252" d="M168 0h-112v717h112v-717zM55 -168v114h116v-96q0 -53 -27.5 -90.5t-66.5 -56.5l-19 22q56 36 52 107h-55z" />
<glyph unicode="&#x13d;" horiz-adv-x="469" d="M199 674v-582h245v-92h-364v674h119zM353 560v114h116v-96q0 -53 -27.5 -90.5t-66.5 -56.5l-19 22q56 36 52 107h-55z" />
<glyph unicode="&#x13e;" horiz-adv-x="361" d="M182 0h-112v717h112v-717zM285 560v114h116v-96q0 -53 -27.5 -90.5t-66.5 -56.5l-19 22q56 36 52 107h-55z" />
<glyph unicode="&#x13f;" horiz-adv-x="464" d="M199 674v-582h245v-92h-364v674h119zM327 329v103h104v-103h-104z" />
<glyph unicode="&#x140;" horiz-adv-x="367" d="M182 0h-112v717h112v-717zM263 294v103h104v-103h-104z" />
<glyph unicode="&#x141;" horiz-adv-x="469" d="M204 294v-202h245v-92h-363v250l-74 -28l-32 86l106 40v326h118v-282l115 42l32 -86z" />
<glyph unicode="&#x142;" horiz-adv-x="252" d="M238 420l32 -86l-88 -33v-301h-112v259l-56 -21l-32 86l88 33v360h112v-318z" />
<glyph unicode="&#x143;" horiz-adv-x="705" d="M186 0h-106v674h151l284 -516h4v516h106v-674h-147l-288 525h-4v-525zM344 736h-60l80 147h108z" />
<glyph unicode="&#x144;" horiz-adv-x="565" d="M187 0h-112v343q0 56 -5 151h89q13 0 13 -13l1 -62h4q48 85 151 85q78 0 122.5 -45.5t44.5 -111.5v-347h-113v315q0 102 -79 102q-48 0 -82 -45.5t-34 -128.5v-243zM306 594h-60l80 147h108z" />
<glyph unicode="&#x145;" horiz-adv-x="705" d="M186 0h-106v674h151l284 -516h4v516h106v-674h-147l-288 525h-4v-525zM281 -168v114h116v-96q0 -53 -27.5 -90.5t-66.5 -56.5l-19 22q56 36 52 107h-55z" />
<glyph unicode="&#x146;" horiz-adv-x="565" d="M187 0h-112v343q0 56 -5 151h89q13 0 13 -13l1 -62h4q48 85 151 85q78 0 122.5 -45.5t44.5 -111.5v-347h-113v315q0 102 -79 102q-48 0 -82 -45.5t-34 -128.5v-243zM227 -168v114h116v-96q0 -53 -27.5 -90.5t-66.5 -56.5l-19 22q56 36 52 107h-55z" />
<glyph unicode="&#x147;" horiz-adv-x="705" d="M80 0h106v525h4l288 -525h147v674h-106v-516h-4l-284 516h-151v-674zM251 883h74l68 -88l70 88h69l-90 -147h-100z" />
<glyph unicode="&#x148;" horiz-adv-x="565" d="M75 0h112v243q0 83 34 128.5t82 45.5q79 0 79 -102v-315h113v347q0 66 -44.5 111.5t-122.5 45.5q-103 0 -151 -85h-4q-1 50 -1 62q0 13 -13 13h-89q5 -95 5 -151v-343zM177 741h74l68 -88l70 88h69l-90 -147h-100z" />
<glyph unicode="&#x149;" horiz-adv-x="623" d="M153 0h112v243q0 83 34 128.5t82 45.5q79 0 79 -102v-315h113v347q0 66 -44.5 111.5t-122.5 45.5q-103 0 -151 -85h-4q-1 50 -1 62q0 13 -13 13h-89q5 -95 5 -151v-343zM19 606v114h116v-96q0 -53 -27.5 -90.5t-66.5 -56.5l-19 22q56 36 52 107h-55z" />
<glyph unicode="&#x14a;" horiz-adv-x="705" d="M625 674v-747q0 -89 -48 -131.5t-132 -42.5q-46 0 -70 11l6 73q1 13 11 13q1 0 16.5 -3.5t32.5 -3.5q28 0 50 18t22 57v83l-323 524h-4v-525h-106v674h151l275 -446h13v446h106z" />
<glyph unicode="&#x14b;" horiz-adv-x="565" d="M328 504q78 0 122.5 -45.5t44.5 -112.5v-422q0 -89 -48.5 -132t-132.5 -43q-47 0 -69 11l6 73q2 14 10 14q1 0 17 -4t32 -4q29 0 50.5 18t21.5 58v399q0 103 -79 103q-48 0 -82 -46t-34 -128v-243h-112v343q0 53 -5 151h89q13 0 13 -14l1 -62h4q49 86 151 86z" />
<glyph unicode="&#x14c;" horiz-adv-x="727" d="M364 684q152 0 237.5 -95t85.5 -252t-85.5 -252t-237.5 -95q-148 0 -236 92.5t-88 254.5q0 161 87.5 254t236.5 93zM166 337q0 -116 53.5 -183t144.5 -67q90 0 143.5 67.5t53.5 182.5q0 117 -54 183.5t-143 66.5q-90 0 -144 -66t-54 -184zM474 883v-85h-221v85h221z" />
<glyph unicode="&#x14d;" horiz-adv-x="550" d="M275 415q-57 0 -90.5 -44t-33.5 -124q0 -30 6 -57t19 -53.5t38.5 -42t60.5 -15.5q57 0 90 45t33 123q0 75 -32 121.5t-91 46.5zM35 247q0 50 13 94.5t40 82t75 59t112 21.5q117 0 178.5 -71t61.5 -186q0 -111 -60 -184t-180 -73q-112 0 -176 67.5t-64 189.5zM380 741v-85 h-221v85h221z" />
<glyph unicode="&#x14e;" horiz-adv-x="727" d="M364 684q-149 0 -236.5 -93t-87.5 -254q0 -162 88 -254.5t236 -92.5q152 0 237.5 95t85.5 252t-85.5 252t-237.5 95zM166 337q0 118 54 184t144 66q89 0 143 -66.5t54 -183.5q0 -115 -53.5 -182.5t-143.5 -67.5q-91 0 -144.5 67t-53.5 183zM423 883h70q0 -49 -32 -88.5 t-100 -39.5q-36 0 -62.5 13.5t-40 34t-19.5 41t-6 39.5h69q0 -22 14 -42t47 -20q32 0 46 20.5t14 41.5z" />
<glyph unicode="&#x14f;" horiz-adv-x="550" d="M275 415q-57 0 -90.5 -44t-33.5 -124q0 -30 6 -57t19 -53.5t38.5 -42t60.5 -15.5q57 0 90 45t33 123q0 75 -32 121.5t-91 46.5zM35 247q0 50 13 94.5t40 82t75 59t112 21.5q117 0 178.5 -71t61.5 -186q0 -111 -60 -184t-180 -73q-112 0 -176 67.5t-64 189.5zM335 674h70 q0 -49 -32 -88.5t-100 -39.5q-36 0 -62.5 13.5t-40 34t-19.5 41t-6 39.5h69q0 -22 14 -42t47 -20q32 0 46 20.5t14 41.5z" />
<glyph unicode="&#x150;" horiz-adv-x="727" d="M364 684q152 0 237.5 -95t85.5 -252t-85.5 -252t-237.5 -95q-148 0 -236 92.5t-88 254.5q0 161 87.5 254t236.5 93zM166 337q0 -116 53.5 -183t144.5 -67q90 0 143.5 67.5t53.5 182.5q0 117 -54 183.5t-143 66.5q-90 0 -144 -66t-54 -184zM273 736h-61l81 147h107z M434 736h-60l80 147h108z" />
<glyph unicode="&#x151;" horiz-adv-x="550" d="M275 415q-57 0 -90.5 -44t-33.5 -124q0 -30 6 -57t19 -53.5t38.5 -42t60.5 -15.5q57 0 90 45t33 123q0 75 -32 121.5t-91 46.5zM35 247q0 50 13 94.5t40 82t75 59t112 21.5q117 0 178.5 -71t61.5 -186q0 -111 -60 -184t-180 -73q-112 0 -176 67.5t-64 189.5zM179 594h-61 l81 147h107zM340 594h-60l80 147h108z" />
<glyph unicode="&#x152;" horiz-adv-x="976" d="M680 92h246v-92h-365v49q-79 -59 -198 -59q-148 0 -235.5 92t-87.5 255q0 161 87 254t236 93q117 0 198 -60v50h363v-92h-244v-190h231v-92h-231v-208zM165 337q0 -116 53.5 -183t144.5 -67q90 0 144 67.5t54 182.5q0 117 -54.5 183.5t-143.5 66.5q-90 0 -144 -66 t-54 -184z" />
<glyph unicode="&#x153;" horiz-adv-x="869" d="M515 298h207q1 2 1 12q0 42 -23.5 77t-77.5 35q-41 0 -67 -24t-32.5 -49t-7.5 -51zM152 247q0 -30 6 -57t19 -53.5t38 -42t60 -15.5q57 0 90.5 45t33.5 123q0 75 -32 121.5t-92 46.5q-57 0 -90 -44t-33 -124zM830 222h-316q0 -64 39.5 -104.5t113.5 -40.5q53 0 106 24 q16 7 18 7q8 0 9 -11q4 -52 4 -80q-73 -27 -149 -27q-135 0 -200 73q-62 -73 -180 -73q-112 0 -176 68t-64 189q0 108 58.5 182.5t181.5 74.5q118 0 181 -73q59 73 167 73q58 0 101 -19.5t66 -52t33.5 -67.5t10.5 -73q0 -30 -4 -70z" />
<glyph unicode="&#x154;" horiz-adv-x="593" d="M296 736h-60l80 147h108zM286 268l150 -268h137l-166 283q15 5 32 14t43.5 29.5t43.5 59t17 87.5q0 92 -63 146.5t-177 54.5h-223v-674h118v268h88zM266 353q-47 0 -68 3v232q1 0 11.5 0.5t26.5 1t30 0.5q78 0 116 -32t38 -85q0 -55 -39 -87.5t-115 -32.5z" />
<glyph unicode="&#x155;" horiz-adv-x="389" d="M70 494h88q14 0 14 -13q0 -5 0.5 -30.5t0.5 -31.5h4q2 6 5 12t14 21t24 25t37 18.5t53 8.5q37 0 59 -11q-2 -66 -4 -80q0 -11 -8 -11q-4 0 -19 5q-13 4 -34 4q-50 0 -83.5 -40t-33.5 -126v-245h-112v355q0 4 -5 139zM201 594h-60l80 147h108z" />
<glyph unicode="&#x156;" horiz-adv-x="593" d="M259 -168v114h116v-96q0 -53 -27.5 -90.5t-66.5 -56.5l-19 22q56 36 52 107h-55zM436 0l-150 268h-88v-268h-118v674h223q114 0 177 -54.5t63 -146.5q0 -49 -17 -87.5t-43.5 -59t-43.5 -29.5t-32 -14l166 -283h-137zM266 353q76 0 115 32.5t39 87.5q0 53 -38 85t-116 32 q-14 0 -30 -0.5t-26.5 -1t-11.5 -0.5v-232q21 -3 68 -3z" />
<glyph unicode="&#x157;" horiz-adv-x="389" d="M70 494h88q14 0 14 -13q0 -5 0.5 -30.5t0.5 -31.5h4q2 6 5 12t14 21t24 25t37 18.5t53 8.5q37 0 59 -11q-2 -66 -4 -80q0 -11 -8 -11q-4 0 -19 5q-13 4 -34 4q-50 0 -83.5 -40t-33.5 -126v-245h-112v355q0 4 -5 139zM73 -168v114h116v-96q0 -53 -27.5 -90.5t-66.5 -56.5 l-19 22q56 36 52 107h-55z" />
<glyph unicode="&#x158;" horiz-adv-x="593" d="M171 883h74l68 -88l70 88h69l-90 -147h-100zM286 268l150 -268h137l-166 283q15 5 32 14t43.5 29.5t43.5 59t17 87.5q0 92 -63 146.5t-177 54.5h-223v-674h118v268h88zM266 353q-47 0 -68 3v232q1 0 11.5 0.5t26.5 1t30 0.5q78 0 116 -32t38 -85q0 -55 -39 -87.5 t-115 -32.5z" />
<glyph unicode="&#x159;" horiz-adv-x="401" d="M70 494q5 -135 5 -139v-355h112v245q0 86 33.5 126t83.5 40q21 0 34 -4q15 -5 19 -5q8 0 8 11q2 14 4 80q-22 11 -59 11q-29 0 -53 -8.5t-37 -18.5t-24 -25t-14 -21t-5 -12h-4q0 6 -0.5 31.5t-0.5 30.5q0 13 -14 13h-88zM100 741h74l68 -88l70 88h69l-90 -147h-100z" />
<glyph unicode="&#x15a;" horiz-adv-x="493" d="M417 673l-6 -102q-45 17 -118 17q-67 0 -99 -25t-32 -63q0 -58 78 -89l67 -28q156 -63 156 -188q0 -94 -69.5 -149.5t-186.5 -55.5q-95 0 -145 16l6 105q72 -24 132 -24q70 0 106 24.5t36 69.5q0 34 -25 57t-72 42l-64 27q-141 57 -141 189q0 84 68 136.5t190 52.5 q81 0 119 -12zM261 736h-60l80 147h108z" />
<glyph unicode="&#x15b;" horiz-adv-x="394" d="M223 504q-77 0 -132.5 -38.5t-55.5 -108.5q0 -100 96 -136l56 -21q62 -23 62 -63q0 -24 -24 -41t-69 -17q-27 0 -82 11q-12 3 -16 3q-9 0 -11 -13q-4 -36 -4 -81q30 -9 109 -9q89 0 150.5 39t61.5 120q0 50 -30.5 83t-68.5 47l-52 20q-35 13 -50 27.5t-15 39.5 q0 24 22 40.5t63 16.5q39 0 76 -15q9 -3 12 -3q9 0 11 20q1 15 2.5 40t1.5 29q-50 10 -113 10zM217 594h-61l81 147h107z" />
<glyph unicode="&#x15c;" horiz-adv-x="493" d="M417 673l-6 -102q-45 17 -118 17q-67 0 -99 -25t-32 -63q0 -58 78 -89l67 -28q156 -63 156 -188q0 -94 -69.5 -149.5t-186.5 -55.5q-95 0 -145 16l6 105q72 -24 132 -24q70 0 106 24.5t36 69.5q0 34 -25 57t-72 42l-64 27q-141 57 -141 189q0 84 68 136.5t190 52.5 q81 0 119 -12zM439 736h-73l-68 88l-70 -88h-69l90 147h100z" />
<glyph unicode="&#x15d;" horiz-adv-x="394" d="M223 504q-77 0 -132.5 -38.5t-55.5 -108.5q0 -100 96 -136l56 -21q62 -23 62 -63q0 -24 -24 -41t-69 -17q-27 0 -82 11q-12 3 -16 3q-9 0 -11 -13q-4 -36 -4 -81q30 -9 109 -9q89 0 150.5 39t61.5 120q0 50 -30.5 83t-68.5 47l-52 20q-35 13 -50 27.5t-15 39.5 q0 24 22 40.5t63 16.5q39 0 76 -15q9 -3 12 -3q9 0 11 20q1 15 2.5 40t1.5 29q-50 10 -113 10zM364 594h-73l-68 88l-70 -88h-69l90 147h100z" />
<glyph unicode="&#x15e;" horiz-adv-x="493" d="M417 673l-6 -102q-45 17 -118 17q-67 0 -99 -25t-32 -63q0 -58 78 -89l67 -28q156 -63 156 -188q0 -86 -58.5 -140t-159.5 -63l-25 -45q10 4 27 4q32 0 51 -20t19 -51q0 -45 -42 -84t-93 -46l-28 37q38 7 65.5 30t27.5 52q0 40 -52 40h-31l24 81q-81 3 -126 16l6 105 q72 -24 132 -24q70 0 106 24.5t36 69.5q0 34 -25 57t-72 42l-64 27q-141 57 -141 189q0 84 68 136.5t190 52.5q81 0 119 -12z" />
<glyph unicode="&#x15f;" horiz-adv-x="394" d="M223 504q63 0 113 -10q0 -4 -1.5 -29t-2.5 -40q-2 -20 -11 -20q-3 0 -12 3q-38 15 -76 15q-41 0 -63 -16.5t-22 -40.5q0 -25 15 -39.5t50 -27.5l52 -20q38 -14 68.5 -47t30.5 -83q0 -68 -43.5 -105.5t-112.5 -48.5l-20 -37q10 4 28 4q32 0 51.5 -20.5t19.5 -52.5 q0 -45 -43 -84.5t-95 -47.5l-28 38q39 8 66.5 30.5t27.5 52.5q0 17 -12.5 29t-39.5 12h-32l21 71q-79 0 -109 9q0 45 4 81q2 13 11 13q4 0 16 -3q55 -11 82 -11q45 0 69 17t24 41q0 40 -62 63l-56 21q-96 36 -96 136q0 70 55.5 108.5t132.5 38.5z" />
<glyph unicode="&#x160;" horiz-adv-x="492" d="M410 571l6 101q-36 12 -118 12q-122 0 -190 -53t-68 -137q0 -133 141 -189l63 -26q48 -19 73 -42t25 -57q0 -45 -36 -69.5t-107 -24.5q-59 0 -131 24l-7 -105q49 -15 145 -15q117 0 186.5 55t69.5 149q0 126 -155 187l-68 28q-38 16 -57.5 36.5t-19.5 53.5q0 38 32 63 t99 25q66 0 117 -16zM338 883h73l-90 -147h-100l-90 147h69l69 -88z" />
<glyph unicode="&#x161;" horiz-adv-x="394" d="M223 505q-76 0 -132 -38.5t-56 -108.5q0 -100 96 -136l56 -21q62 -23 62 -64q0 -24 -23.5 -40.5t-69.5 -16.5q-45 0 -82 11q-12 3 -15 3q-12 0 -12 -14q-4 -64 -4 -81q40 -8 109 -8q89 0 150.5 38.5t61.5 120.5q0 49 -30 82t-68 48l-53 20q-35 13 -50 27.5t-15 38.5 q0 25 22 41.5t63 16.5q39 0 76 -15q6 -3 12 -3q10 0 11 20q4 32 4 69q-45 10 -113 10zM263 741h74l-91 -147h-99l-91 147h69l70 -88z" />
<glyph unicode="&#x162;" horiz-adv-x="520" d="M319 582v-582h-118v582h-181v92h480v-92h-181zM203 -168v114h116v-96q0 -53 -27.5 -90.5t-66.5 -56.5l-19 22q56 36 52 107h-55z" />
<glyph unicode="&#x163;" horiz-adv-x="345" d="M256 -10q-168 0 -168 174v245h-68v85h68v109h113v-109h118v-85h-118v-263q0 -67 62 -67q18 0 36 4.5t20 4.5q10 0 10 -14q4 -55 6 -73q-30 -11 -79 -11zM156 -168v114h116v-96q0 -53 -27.5 -90.5t-66.5 -56.5l-19 22q56 36 52 107h-55z" />
<glyph unicode="&#x164;" horiz-adv-x="520" d="M319 0v582h181v92h-480v-92h181v-582h118zM328 883h74l-91 -147h-99l-91 147h69l70 -88z" />
<glyph unicode="&#x165;" horiz-adv-x="456" d="M256 -10q49 0 79 11l-6 73q0 14 -10 14q-2 0 -20 -4.5t-36 -4.5q-62 0 -62 67v263h118v85h-118v109h-113v-109h-68v-85h68v-245q0 -174 168 -174zM378 560v114h116v-96q0 -53 -27.5 -90.5t-66.5 -56.5l-19 22q56 36 52 107h-55z" />
<glyph unicode="&#x166;" horiz-adv-x="520" d="M319 300v-300h-118v300h-181v92h181v190h-181v92h480v-92h-181v-190h181v-92h-181z" />
<glyph unicode="&#x167;" horiz-adv-x="345" d="M256 -10q-168 0 -168 174v61h-68v85h68v99h-68v85h68v109h113v-109h118v-85h-118v-99h118v-85h-118v-79q0 -67 62 -67q18 0 36 4.5t20 4.5q10 0 10 -14q4 -55 6 -73q-30 -11 -79 -11z" />
<glyph unicode="&#x168;" horiz-adv-x="692" d="M612 242q0 -118 -67 -185t-199 -67q-137 0 -201.5 69t-64.5 183v432h119v-430q0 -76 39 -116.5t108 -40.5q75 0 111 45t36 112v430h119v-432zM192 769l-33 51q48 63 108 63q40 0 82 -24t71 -24q37 0 67 34l32 -51q-49 -64 -107 -64q-41 0 -82.5 24t-72.5 24 q-37 0 -65 -33z" />
<glyph unicode="&#x169;" horiz-adv-x="565" d="M377 494h112v-343q0 -73 6 -151h-89q-13 0 -13 13l-1 62h-4q-48 -85 -152 -85q-78 0 -122 45.5t-44 111.5v347h112v-315q0 -102 79 -102q48 0 82 45.5t34 128.5v243zM133 627l-33 51q48 63 108 63q40 0 82 -24t71 -24q37 0 67 34l32 -51q-49 -64 -107 -64q-41 0 -82.5 24 t-72.5 24q-36 0 -65 -33z" />
<glyph unicode="&#x16a;" horiz-adv-x="692" d="M612 242q0 -118 -67 -185t-199 -67q-137 0 -201.5 69t-64.5 183v432h119v-430q0 -76 39 -116.5t108 -40.5q75 0 111 45t36 112v430h119v-432zM469 883v-85h-221v85h221z" />
<glyph unicode="&#x16b;" horiz-adv-x="565" d="M377 494h112v-343q0 -73 6 -151h-89q-13 0 -13 13l-1 62h-4q-48 -85 -152 -85q-78 0 -122 45.5t-44 111.5v347h112v-315q0 -102 79 -102q48 0 82 45.5t34 128.5v243zM386 741v-85h-221v85h221z" />
<glyph unicode="&#x16c;" horiz-adv-x="692" d="M612 242q0 -118 -67 -185t-199 -67q-137 0 -201.5 69t-64.5 183v432h119v-430q0 -76 39 -116.5t108 -40.5q75 0 111 45t36 112v430h119v-432zM408 883h70q0 -49 -32 -88.5t-100 -39.5q-36 0 -62.5 13.5t-40 34t-19.5 41t-6 39.5h69q0 -22 14 -42t47 -20q32 0 46 20.5 t14 41.5z" />
<glyph unicode="&#x16d;" horiz-adv-x="565" d="M489 494h-112v-243q0 -83 -34 -128.5t-82 -45.5q-79 0 -79 102v315h-112v-347q0 -66 44 -111.5t122 -45.5q104 0 152 85h4q1 -50 1 -62q0 -13 13 -13h89q-6 78 -6 151v343zM341 741h70q0 -49 -32 -88.5t-100 -39.5q-36 0 -62.5 13.5t-40 34t-19.5 41t-6 39.5h69 q0 -22 14 -42t47 -20q32 0 46 20.5t14 41.5z" />
<glyph unicode="&#x16e;" horiz-adv-x="692" d="M612 242q0 -118 -67 -185t-199 -67q-137 0 -201.5 69t-64.5 183v432h119v-430q0 -76 39 -116.5t108 -40.5q75 0 111 45t36 112v430h119v-432zM446 784q0 -41 -29 -70t-70 -29t-70 29t-29 70t29 70t70 29t70 -29t29 -70zM347 826q-17 0 -29.5 -12.5t-12.5 -29.5 t12.5 -29.5t29.5 -12.5q18 0 30.5 12.5t12.5 29.5t-12.5 29.5t-30.5 12.5z" />
<glyph unicode="&#x16f;" horiz-adv-x="565" d="M377 494h112v-343q0 -73 6 -151h-89q-13 0 -13 13l-1 62h-4q-48 -85 -152 -85q-78 0 -122 45.5t-44 111.5v347h112v-315q0 -102 79 -102q48 0 82 45.5t34 128.5v243zM374 642q0 -41 -29 -70t-70 -29t-70 29t-29 70t29 70t70 29t70 -29t29 -70zM275 684q-17 0 -29.5 -12.5 t-12.5 -29.5t12.5 -29.5t29.5 -12.5q18 0 30.5 12.5t12.5 29.5t-12.5 29.5t-30.5 12.5z" />
<glyph unicode="&#x170;" horiz-adv-x="692" d="M612 242q0 -118 -67 -185t-199 -67q-137 0 -201.5 69t-64.5 183v432h119v-430q0 -76 39 -116.5t108 -40.5q75 0 111 45t36 112v430h119v-432zM300 736h-61l81 147h107zM461 736h-60l80 147h108z" />
<glyph unicode="&#x171;" horiz-adv-x="565" d="M377 494h112v-343q0 -73 6 -151h-89q-13 0 -13 13l-1 62h-4q-48 -85 -152 -85q-78 0 -122 45.5t-44 111.5v347h112v-315q0 -102 79 -102q48 0 82 45.5t34 128.5v243zM189 594h-61l81 147h107zM350 594h-60l80 147h108z" />
<glyph unicode="&#x172;" horiz-adv-x="691" d="M492 674h119v-432q0 -103 -51 -167.5t-152 -79.5q-40 -75 -40 -130q0 -43 51 -43q15 0 37 8v-65q-39 -14 -77 -14q-15 0 -29.5 3t-32.5 11.5t-29 29t-11 49.5q0 66 53 146q-128 5 -189 73t-61 179v432h119v-430q0 -76 39 -116.5t108 -40.5q75 0 110.5 45t35.5 112v430z " />
<glyph unicode="&#x173;" horiz-adv-x="565" d="M503 -179q15 0 37 8v-65q-28 -14 -77 -14q-15 0 -29.5 3t-32.5 12t-29 29t-11 49q0 69 59 157h-15q-13 0 -13 14l-1 61h-4q-49 -85 -150 -85q-78 0 -122.5 45.5t-44.5 112.5v347h113v-315q0 -103 79 -103q48 0 82 45.5t34 128.5v244h112v-344q0 -11 5 -151 q-43 -74 -43 -135q0 -44 51 -44z" />
<glyph unicode="&#x174;" horiz-adv-x="964" d="M30 674l176 -674h134l136 546h4l139 -546h142l173 674h-115l-123 -521h-4l-139 521h-137l-135 -521h-4l-124 521h-123zM621 736h-73l-68 88l-70 -88h-69l90 147h100z" />
<glyph unicode="&#x175;" horiz-adv-x="789" d="M10 494l148 -494h129l104 364h4l104 -364h127l153 494h-107l-100 -366h-7l-106 366h-122l-106 -366h-7l-99 366h-115zM541 594h-73l-68 88l-70 -88h-69l90 147h100z" />
<glyph unicode="&#x176;" horiz-adv-x="562" d="M227 0v233l-217 441h128l150 -322l146 322h118l-206 -441v-233h-119zM428 736h-73l-68 88l-70 -88h-69l90 147h100z" />
<glyph unicode="&#x177;" horiz-adv-x="520" d="M30 494l184 -493q-16 -41 -29 -75q-14 -36 -35 -55.5t-36.5 -23.5t-38.5 -4q-16 0 -32 4t-17 4q-8 0 -10 -13l-6 -74q25 -11 88 -11q40 0 72 13t51 28.5t39.5 51t29 56t26.5 68.5l194 524h-119l-112 -344h-4l-119 344h-126zM416 594h-73l-68 88l-70 -88h-69l90 147h100z " />
<glyph unicode="&#x178;" horiz-adv-x="562" d="M227 233v-233h119v233l206 441h-118l-146 -322l-150 322h-128zM336 770v103h104v-103h-104zM141 770v103h104v-103h-104z" />
<glyph unicode="&#x179;" horiz-adv-x="515" d="M30 0v92l305 490h-297v92h437v-92l-305 -490h315v-92h-455zM256 736h-60l80 147h108z" />
<glyph unicode="&#x17a;" horiz-adv-x="421" d="M225 594h-60l80 147h108zM45 409v85h342v-71l-217 -338h221v-85h-361v76l215 333h-200z" />
<glyph unicode="&#x17b;" horiz-adv-x="515" d="M30 0v92l305 490h-297v92h437v-92l-305 -490h315v-92h-455zM213 770v103h104v-103h-104z" />
<glyph unicode="&#x17c;" horiz-adv-x="421" d="M45 494v-85h200l-215 -333v-76h361v85h-221l217 338v71h-342zM172 612v103h104v-103h-104z" />
<glyph unicode="&#x17d;" horiz-adv-x="514" d="M30 92v-92h454v92h-314l304 490v92h-437v-92h297zM331 883h74l-91 -147h-99l-91 147h69l70 -88z" />
<glyph unicode="&#x17e;" horiz-adv-x="386" d="M15 494v-85h201l-215 -332v-77h361v86h-222l218 336v72h-343zM239 741h74l-91 -147h-99l-91 147h69l70 -88z" />
<glyph unicode="&#x192;" horiz-adv-x="478" d="M392 587q-85 0 -95 -118q0 -4 -1 -14t-2.5 -29t-2.5 -34h124l-7 -92h-125l-29 -328q-7 -80 -40.5 -131t-74 -69.5t-88.5 -18.5q-51 0 -71 8l11 96q31 -7 45 -7q91 0 100 101l31 349h-79l7 92h81q7 75 7 83q18 209 200 209q47 0 75 -7l-11 -96q-15 6 -55 6z" />
<glyph unicode="&#x1fc;" horiz-adv-x="856" d="M806 0h-340v152h-230l-99 -152h-147l435 674h379v-92h-220v-190h207v-92h-207v-208h222v-92zM466 537h-4l-171 -294h175v294zM520 736h-60l80 147h108z" />
<glyph unicode="&#x1fd;" horiz-adv-x="801" d="M305 223q-162 0 -162 -81q0 -28 19.5 -49t59.5 -21q43 0 76 37.5t33 83.5v30h-26zM762 223h-317q0 -64 39.5 -105t113.5 -41q53 0 106 24l19 7q8 0 9 -11q3 -39 3 -80q-69 -27 -148 -27q-158 0 -219 98h-3q-58 -98 -180 -98q-73 0 -114 40.5t-41 109.5q0 80 78 119.5 t195 39.5h28v40q0 81 -106 81q-69 0 -125 -28q-12 -6 -16 -6q-9 0 -9 10q-3 54 -3 76q78 32 162 32q117 0 168 -57q59 57 153 57q58 0 101 -19.5t66 -52t33.5 -67.5t10.5 -73q0 -33 -4 -69zM447 299h207v11q0 42 -23 77t-77 35q-32 0 -54.5 -13t-33 -34t-15 -39.5 t-4.5 -36.5zM366 594h-60l80 147h108z" />
<glyph unicode="&#x1fe;" horiz-adv-x="727" d="M686 337q0 -157 -85.5 -252t-237.5 -95q-40 0 -78 8l-33 -94l-77 24l34 95q-81 39 -125 119.5t-44 194.5q0 161 87.5 254t235.5 93q43 0 77 -7l38 105l76 -24l-37 -106q81 -40 125 -122t44 -193zM249 124l162 458q-25 5 -48 5q-90 0 -144 -66t-54 -184q0 -148 84 -213z M477 550l-163 -457q24 -6 49 -6q90 0 144 67.5t54 182.5q0 148 -84 213zM364 736h-60l80 147h108z" />
<glyph unicode="&#x1ff;" horiz-adv-x="550" d="M275 594h-60l80 147h108zM515 247q0 -111 -60 -184t-180 -73q-28 0 -56 5l-40 -103l-76 24l41 106q-109 64 -109 225q0 50 13 94.5t40 82t75 59t112 21.5q30 0 53 -4l37 97l77 -23l-39 -101q112 -63 112 -226zM185 123l112 290q-14 2 -22 2q-57 0 -90 -44t-33 -124 q0 -79 33 -124zM360 376l-113 -294q13 -3 28 -3q57 0 90 44.5t33 123.5q0 83 -38 129z" />
<glyph unicode="&#x218;" horiz-adv-x="473" d="M407 673l-6 -102q-45 17 -118 17q-67 0 -99 -25t-32 -63q0 -58 78 -89l67 -28q156 -63 156 -188q0 -94 -69.5 -149.5t-186.5 -55.5q-95 0 -145 16l6 105q72 -24 132 -24q70 0 106 24.5t36 69.5q0 34 -25 57t-72 42l-64 27q-141 57 -141 189q0 84 68 136.5t190 52.5 q81 0 119 -12zM148 -168v114h116v-96q0 -53 -27.5 -90.5t-66.5 -56.5l-19 22q56 36 52 107h-55z" />
<glyph unicode="&#x219;" horiz-adv-x="394" d="M223 504q63 0 113 -10q0 -4 -1.5 -29t-2.5 -40q-2 -20 -11 -20q-3 0 -12 3q-38 15 -76 15q-41 0 -63 -16.5t-22 -40.5q0 -25 15 -39.5t50 -27.5l52 -20q38 -14 68.5 -47t30.5 -83q0 -81 -61.5 -120t-150.5 -39q-79 0 -109 9q0 45 4 81q2 13 11 13q4 0 16 -3 q55 -11 82 -11q45 0 69 17t24 41q0 40 -62 63l-56 21q-96 36 -96 136q0 70 55.5 108.5t132.5 38.5zM99 -168v114h116v-96q0 -53 -27.5 -90.5t-66.5 -56.5l-19 22q56 36 52 107h-55z" />
<glyph unicode="&#x21a;" horiz-adv-x="500" d="M309 582v-582h-118v582h-181v92h480v-92h-181zM193 -168v114h116v-96q0 -53 -27.5 -90.5t-66.5 -56.5l-19 22q56 36 52 107h-55z" />
<glyph unicode="&#x21b;" horiz-adv-x="346" d="M257 -10q-168 0 -168 174v245h-88v85h88v109h113v-109h128v-85h-128v-263q0 -67 62 -67q18 0 36 4.5t20 4.5q10 0 10 -14q4 -55 6 -73q-30 -11 -79 -11zM164 -168v114h116v-96q0 -53 -27.5 -90.5t-66.5 -56.5l-19 22q56 36 52 107h-55z" />
<glyph unicode="&#x237;" horiz-adv-x="267" d="M78 -81v575h112v-566q0 -89 -48 -132t-132 -43q-46 0 -70 11l7 73q0 14 10 14q1 0 16.5 -4t32.5 -4q29 0 50.5 18t21.5 58z" />
<glyph unicode="&#x2c6;" horiz-adv-x="320" d="M300 573h-73l-68 88l-70 -88h-69l90 147h100z" />
<glyph unicode="&#x2c7;" horiz-adv-x="321" d="M20 720h74l68 -88l70 88h69l-90 -147h-100z" />
<glyph unicode="&#x2d8;" horiz-adv-x="300" d="M210 720h70q0 -49 -32 -88.5t-100 -39.5q-36 0 -62.5 13.5t-40 34t-19.5 41t-6 39.5h69q0 -22 14 -42t47 -20q32 0 46 20.5t14 41.5z" />
<glyph unicode="&#x2d9;" horiz-adv-x="160" d="M28 612v103h104v-103h-104z" />
<glyph unicode="&#x2da;" horiz-adv-x="238" d="M218 621q0 -41 -29 -70t-70 -29t-70 29t-29 70t29 70t70 29t70 -29t29 -70zM119 663q-17 0 -29.5 -12.5t-12.5 -29.5t12.5 -29.5t29.5 -12.5q18 0 30.5 12.5t12.5 29.5t-12.5 29.5t-30.5 12.5z" />
<glyph unicode="&#x2db;" horiz-adv-x="220" d="M160 0q-49 -85 -49 -144q0 -44 52 -44q13 0 37 8v-65q-42 -14 -77 -14q-15 0 -30 3t-33 12t-29 29t-11 49q0 72 66 166h74z" />
<glyph unicode="&#x2dc;" horiz-adv-x="400" d="M53 606l-33 51q48 63 108 63q40 0 82 -24t71 -24q37 0 67 34l32 -51q-49 -64 -107 -64q-41 0 -82.5 24t-72.5 24q-36 0 -65 -33z" />
<glyph unicode="&#x2dd;" horiz-adv-x="390" d="M81 573h-61l81 147h107zM242 573h-60l80 147h108z" />
<glyph unicode="&#x401;" horiz-adv-x="496" d="M80 674v-674h366v92h-247v208h232v92h-232v190h245v92h-364zM312 770v103h104v-103h-104zM117 770v103h104v-103h-104z" />
<glyph unicode="&#x402;" horiz-adv-x="715" d="M557 168q0 83 -39.5 133t-103.5 50q-32 0 -59 -8.5t-36 -15.5v-327h-119v582h-180v92h479v-92h-180v-168q4 3 19.5 8.5t44.5 11.5t55 6q119 0 178 -73t59 -186q0 -121 -66.5 -206.5t-148.5 -116.5l-46 83q20 10 39.5 24.5t45.5 41.5t42 69t16 92z" />
<glyph unicode="&#x403;" horiz-adv-x="463" d="M198 582v-582h-118v674h363v-92h-245zM287 736h-61l80 147h108z" />
<glyph unicode="&#x404;" horiz-adv-x="575" d="M389 684q83 0 156 -27l-14 -102q-76 33 -151 33q-80 0 -138 -50.5t-72 -145.5h290v-92h-292q10 -87 61.5 -150t150.5 -63q80 0 151 33l14 -101q-87 -29 -156 -29q-178 0 -263.5 95t-85.5 252q0 71 18 130.5t57 109.5t109 78.5t165 28.5z" />
<glyph unicode="&#x405;" horiz-adv-x="493" d="M417 673l-6 -102q-45 17 -118 17q-67 0 -99 -25t-32 -63q0 -58 78 -89l67 -28q156 -63 156 -188q0 -94 -69.5 -149.5t-186.5 -55.5q-95 0 -145 16l6 105q72 -24 132 -24q70 0 106 24.5t36 69.5q0 34 -25 57t-72 42l-64 27q-141 57 -141 189q0 84 68 136.5t190 52.5 q81 0 119 -12z" />
<glyph unicode="&#x406;" horiz-adv-x="279" d="M80 0v674h119v-674h-119z" />
<glyph unicode="&#x407;" horiz-adv-x="279" d="M81 675v-675h119v675h-119zM185 770v103h104v-103h-104zM-10 770v103h104v-103h-104z" />
<glyph unicode="&#x408;" horiz-adv-x="346" d="M147 178v496h119v-474q0 -210 -178 -210q-55 0 -88 10v98q33 -11 62 -11q39 0 62 24t23 67z" />
<glyph unicode="&#x409;" horiz-adv-x="927" d="M646 434q107 0 174 -60t67 -163t-68 -162t-203 -59q-87 0 -186 24v568h-186v-244q0 -55 -8 -101.5t-17.5 -78t-29 -59.5t-32 -42.5t-37.5 -30.5t-34 -20.5t-32 -15.5l-44 83q18 11 30 19t30 26.5t28.5 38.5t18.5 53t8 73v391h424v-255q43 15 97 15zM621 76q63 0 106 34 t43 102q0 64 -38.5 100.5t-110.5 36.5q-42 0 -72 -10v-253q30 -10 72 -10z" />
<glyph unicode="&#x40a;" horiz-adv-x="931" d="M651 434q107 0 173.5 -60t66.5 -163t-68 -162t-203 -59q-89 0 -185 24v286h-236v-300h-119v674h119v-282h236v282h118v-255q45 15 98 15zM625 76q63 0 106 34t43 102q0 64 -38.5 100.5t-110.5 36.5q-42 0 -72 -10v-253q30 -10 72 -10z" />
<glyph unicode="&#x40b;" horiz-adv-x="734" d="M448 440q97 0 151.5 -56t54.5 -137v-247h-118v234q0 54 -29.5 85.5t-84.5 31.5q-56 0 -103 -28v-323h-119v582h-180v92h479v-92h-180v-173q14 9 51 20t78 11z" />
<glyph unicode="&#x40c;" horiz-adv-x="598" d="M344 736h-61l80 147h108zM588 0h-145l-244 330v-330h-119v674h119v-312l244 312h135l-256 -325z" />
<glyph unicode="&#x40e;" horiz-adv-x="561" d="M350 854h70q0 -49 -32 -88.5t-101 -39.5q-47 0 -77.5 24t-40 50.5t-9.5 53.5h68q0 -21 14.5 -42t46.5 -21q33 0 47 20.5t14 42.5zM229 238q-25 -54 -33 -70q-40 -83 -99 -83q-19 0 -27 4l-14 -81q24 -8 58 -8q70 0 118.5 54.5t111.5 187.5l207 442h-118l-145 -322 l-150 322h-128z" />
<glyph unicode="&#x40f;" horiz-adv-x="678" d="M598 0h-214v-156h-98v156h-206v674h119v-582h281v582h118v-674z" />
<glyph unicode="&#x410;" horiz-adv-x="663" d="M10 0l256 674h136l251 -674h-129l-53 152h-285l-54 -152h-122zM330 551h-4l-108 -308h220z" />
<glyph unicode="&#x411;" horiz-adv-x="576" d="M296 434q107 0 173.5 -60t66.5 -163t-67.5 -162t-202.5 -59q-90 0 -186 24v660h353v-92h-234v-163q42 15 97 15zM271 76q63 0 106 34t43 102q0 64 -38.5 100.5t-110.5 36.5q-42 0 -72 -10v-253q30 -10 72 -10z" />
<glyph unicode="&#x412;" horiz-adv-x="575" d="M80 0v674h235q63 0 107.5 -15t66.5 -41t31.5 -53t9.5 -58q0 -38 -14 -67.5t-37 -45t-36 -21.5t-26 -10v-4q42 -7 85 -46t43 -113q0 -87 -59 -143.5t-182 -56.5h-224zM199 591v-200h75q136 0 136 101t-136 101q-16 0 -34 -0.5t-30 -0.5zM199 308v-216q19 -3 74 -3 q150 0 150 110q0 109 -150 109h-74z" />
<glyph unicode="&#x413;" horiz-adv-x="463" d="M199 582v-582h-119v674h363v-92h-244z" />
<glyph unicode="&#x414;" horiz-adv-x="694" d="M595 92h69v-247h-98v155h-438v-155h-98v247h67q21 26 33 45t25 68.5t13 115.5v353h427v-582zM476 92v490h-189v-253q0 -47 -7 -86t-21 -69.5t-22.5 -44.5t-24.5 -37h264z" />
<glyph unicode="&#x415;" horiz-adv-x="496" d="M80 0v674h364v-92h-245v-190h232v-92h-232v-208h247v-92h-366z" />
<glyph unicode="&#x416;" horiz-adv-x="821" d="M351 330l-196 -330h-145l225 349l-215 325h135l196 -312v312h119v-312l195 312h136l-215 -325l225 -349h-145l-196 330v-330h-119v330z" />
<glyph unicode="&#x417;" horiz-adv-x="452" d="M41 550l-21 93q79 41 182 41q88 0 146.5 -47.5t58.5 -127.5q0 -35 -13.5 -64t-34.5 -45.5t-36 -25t-27 -12.5v-4q17 -6 33.5 -15.5t40 -28t38 -50.5t14.5 -72q0 -92 -67 -147t-189 -55q-73 0 -132 21l-6 99q51 -23 134 -23q65 0 105 29t40 80q0 50 -37.5 80.5 t-119.5 30.5h-34v81h31q64 0 106 30.5t42 79.5q0 37 -29.5 63t-83.5 26q-31 0 -65 -8.5t-50.5 -16t-25.5 -12.5z" />
<glyph unicode="&#x418;" horiz-adv-x="705" d="M625 0h-106v525h-4l-288 -525h-147v674h106v-516h4l284 516h151v-674z" />
<glyph unicode="&#x419;" horiz-adv-x="705" d="M519 0h106v674h-151l-284 -516h-4v516h-106v-674h147l288 526h4v-526zM426 844h69q0 -49 -32 -88.5t-100 -39.5q-36 0 -62.5 13.5t-40 34t-19.5 41t-6 39.5h69q0 -22 14 -42t47 -20q32 0 46.5 20.5t14.5 41.5z" />
<glyph unicode="&#x41a;" horiz-adv-x="598" d="M588 0h-145l-245 330v-330h-118v674h118v-312l245 312h135l-257 -325z" />
<glyph unicode="&#x41b;" horiz-adv-x="712" d="M125 674h507v-674h-119v582h-269v-244q0 -55 -8 -101.5t-18 -78.5t-29 -59.5t-32 -42.5t-37.5 -30.5t-34 -20.5t-31.5 -15l-44 83q18 11 30 19t30 26.5t28.5 38.5t18.5 53t8 73v391z" />
<glyph unicode="&#x41c;" horiz-adv-x="859" d="M140 0h-110l95 674h139l161 -526l168 526h135l101 -674h-116l-69 512h-4l-155 -512h-129l-152 512h-4z" />
<glyph unicode="&#x41d;" horiz-adv-x="696" d="M497 674h119v-674h-119v300h-298v-300h-119v674h119v-282h298v282z" />
<glyph unicode="&#x41e;" horiz-adv-x="727" d="M364 684q152 0 237.5 -95t85.5 -252t-85.5 -252t-237.5 -95q-148 0 -236 92.5t-88 254.5q0 161 87.5 254t236.5 93zM166 337q0 -116 53.5 -183t144.5 -67q90 0 143.5 67.5t53.5 182.5q0 117 -54 183.5t-143 66.5q-90 0 -144 -66t-54 -184z" />
<glyph unicode="&#x41f;" horiz-adv-x="678" d="M80 674h518v-674h-118v582h-281v-582h-119v674z" />
<glyph unicode="&#x420;" horiz-adv-x="550" d="M199 339q14 -2 50 -2q73 0 110.5 34t37.5 93t-38.5 92t-109.5 33q-42 0 -50 -2v-248zM272 247q-37 0 -73 4v-251h-119v674h200q112 0 176 -59t64 -149q0 -103 -66 -161t-182 -58z" />
<glyph unicode="&#x421;" horiz-adv-x="575" d="M545 656l-14 -101q-74 32 -151 32q-92 0 -153 -64.5t-61 -185.5q0 -42 11 -83t34 -80t67 -63t102 -24q59 0 151 33l14 -101q-87 -29 -156 -29q-178 0 -263.5 95t-85.5 252q0 71 18 130.5t57 109.5t109 78.5t165 28.5q80 0 156 -28z" />
<glyph unicode="&#x422;" horiz-adv-x="520" d="M319 582v-582h-118v582h-181v92h480v-92h-181z" />
<glyph unicode="&#x423;" horiz-adv-x="562" d="M197 159l32 69l-219 446h128l150 -322l146 322h118q-130 -277 -207 -441q-63 -133 -111.5 -188t-118.5 -55q-35 0 -59 8l14 81l4 -1q4 0 10.5 -1t12.5 -1q59 0 100 83z" />
<glyph unicode="&#x424;" horiz-adv-x="753" d="M713 334q0 -118 -74.5 -197.5t-202.5 -95.5v-117h-119v117q-125 15 -201 92.5t-76 200.5q0 122 75.5 200t201.5 93v117h119v-117q128 -16 202.5 -95t74.5 -198zM157 334q0 -81 44 -134t116 -69v406q-72 -16 -116 -68t-44 -135zM436 131q72 16 116 69.5t44 133.5 q0 82 -44.5 134.5t-115.5 68.5v-406z" />
<glyph unicode="&#x425;" horiz-adv-x="609" d="M232 342l-209 332h135l146 -232l146 232h129l-208 -319l228 -355h-142l-157 252l-157 -252h-133z" />
<glyph unicode="&#x426;" horiz-adv-x="698" d="M598 92h70v-248h-98v156h-490v674h119v-582h281v582h118v-582z" />
<glyph unicode="&#x427;" horiz-adv-x="594" d="M395 674h119v-674h-119v266q-14 -9 -51 -20t-78 -11q-97 0 -151.5 56t-54.5 137v246h119v-233q0 -55 29 -86t84 -31q31 0 61.5 10t41.5 18v322z" />
<glyph unicode="&#x428;" horiz-adv-x="890" d="M691 674h119v-674h-730v674h119v-582h187v582h118v-582h187v582z" />
<glyph unicode="&#x429;" horiz-adv-x="910" d="M810 92h70v-247h-98v155h-702v674h119v-582h187v582h119v-582h187v582h118v-582z" />
<glyph unicode="&#x42a;" horiz-adv-x="641" d="M361 434q107 0 173.5 -60t66.5 -163t-68 -162t-203 -59q-89 0 -185 24v568h-124v92h242v-255q45 15 98 15zM335 76q63 0 106 34t43 102q0 64 -38.5 100.5t-110.5 36.5q-42 0 -72 -10v-253q30 -10 72 -10z" />
<glyph unicode="&#x42b;" horiz-adv-x="831" d="M297 434q107 0 173.5 -60t66.5 -163t-68 -162t-203 -59q-87 0 -186 24v660h119v-255q42 15 98 15zM271 76q63 0 106 34t43 102q0 64 -38.5 100.5t-110.5 36.5q-42 0 -72 -10v-253q30 -10 72 -10zM751 674v-674h-119v674h119z" />
<glyph unicode="&#x42c;" horiz-adv-x="576" d="M296 434q107 0 173.5 -60t66.5 -163t-67.5 -162t-202.5 -59q-90 0 -186 24v660h119v-255q42 15 97 15zM271 76q63 0 106 34t43 102q0 64 -38.5 100.5t-110.5 36.5q-42 0 -72 -10v-253q30 -10 72 -10z" />
<glyph unicode="&#x42d;" horiz-adv-x="585" d="M196 684q95 0 165 -28.5t109 -78.5t57 -109.5t18 -130.5q0 -157 -85.5 -252t-263.5 -95q-69 0 -156 29l14 101q86 -33 151 -33q99 0 150.5 63t61.5 150h-292v91h290q-14 95 -72 145.5t-138 50.5q-69 0 -151 -32l-14 101q76 28 156 28z" />
<glyph unicode="&#x42e;" horiz-adv-x="999" d="M636 684q152 0 237.5 -95t85.5 -252t-85.5 -252t-237.5 -95q-138 0 -225 82t-97 228h-115v-300h-119v674h119v-282h116q15 137 100.5 214.5t220.5 77.5zM636 87q90 0 144 67.5t54 182.5q0 117 -54.5 183.5t-143.5 66.5q-90 0 -144 -66t-54 -184q0 -116 53.5 -183 t144.5 -67z" />
<glyph unicode="&#x42f;" horiz-adv-x="593" d="M307 268l-150 -268h-137l166 283q-15 5 -32 14t-43.5 29.5t-43.5 59t-17 87.5q0 92 63 146.5t177 54.5h223v-674h-118v268h-88zM327 353q47 0 68 3v232q-1 0 -11.5 0.5t-26.5 1t-30 0.5q-78 0 -116 -32t-38 -85q0 -55 39 -87.5t115 -32.5z" />
<glyph unicode="&#x430;" horiz-adv-x="496" d="M71 472q82 32 163 32q208 0 208 -180v-197q0 -66 9 -127h-94q-11 0 -14 5.5t-4 16.5l-3 41h-4q-48 -73 -147 -73q-69 0 -112 45.5t-43 114.5q0 47 24 82t64.5 54t86.5 28t97 9h28v16q0 81 -106 81q-68 0 -124 -28q-15 -6 -17 -6q-3 0 -5 1.5t-2.5 3t-1.5 3.5v2 q-3 54 -3 76zM305 251q-162 0 -162 -99q0 -34 21 -57t58 -23q50 0 79 41t29 102v36h-25z" />
<glyph unicode="&#x431;" horiz-adv-x="554" d="M279 504q117 0 178.5 -71t61.5 -186q0 -111 -60 -184t-180 -73q-59 0 -103.5 18t-71 46t-42.5 70t-21.5 83.5t-5.5 92.5q0 384 264 384h39q30 0 31 30h82v-30q0 -39 -25.5 -62t-62.5 -23h-57q-132 0 -154 -139h4q39 44 123 44zM279 79q57 0 90 45t33 123q0 75 -32 121.5 t-91 46.5q-57 0 -90.5 -44t-33.5 -124q0 -67 29 -117.5t95 -50.5z" />
<glyph unicode="&#x432;" horiz-adv-x="535" d="M183 216v-137q63 -7 81 -7q112 0 112 72t-112 72h-81zM183 413v-127h71q106 0 106 67q0 28 -25 47t-81 19q-50 0 -71 -6zM381 260q12 -1 28 -8t35.5 -20t32.5 -37t13 -54q0 -80 -62 -115.5t-190 -35.5q-47 0 -168 11v493h226q84 0 131 -31.5t47 -92.5q0 -84 -93 -106v-4z " />
<glyph unicode="&#x433;" horiz-adv-x="416" d="M182 0h-112v494h316v-85h-204v-409z" />
<glyph unicode="&#x434;" horiz-adv-x="601" d="M581 85v-240h-98v155h-365v-155h-98v240h51q2 3 11.5 17t13.5 20.5t12.5 21t12.5 26.5l9.5 28.5t7.5 35.5t2 39v221h373v-409h68zM177 85h224v324h-149v-129q0 -32 -5 -59t-15 -49t-17.5 -34.5t-21 -30t-16.5 -22.5z" />
<glyph unicode="&#x435;" horiz-adv-x="506" d="M260 504q58 0 101 -19.5t66 -52t33.5 -67.5t10.5 -73q0 -30 -4 -70h-317q0 -64 39.5 -104.5t113.5 -40.5q54 0 107 24q16 7 18 7q8 0 9 -11q4 -52 4 -80q-73 -27 -149 -27q-257 0 -257 256q0 118 60 188t165 70zM152 298h207q0 1 0.5 5.5t0.5 6.5q0 42 -23.5 77t-77.5 35 q-32 0 -54.5 -13.5t-33 -34t-15 -39.5t-4.5 -37z" />
<glyph unicode="&#x436;" horiz-adv-x="743" d="M542 268l201 -268h-140l-170 250v-250h-112v250l-170 -250h-141l201 268l-182 226h132l160 -209v209h112v-209l159 209h133z" />
<glyph unicode="&#x437;" horiz-adv-x="448" d="M199 504q101 0 144.5 -37.5t43.5 -97.5q0 -83 -93 -105v-4q37 -6 73 -36t36 -83q0 -151 -227 -151q-99 0 -156 41l29 70q52 -29 123 -29q116 0 116 71q0 73 -116 73h-64v70h63q47 0 74.5 16.5t27.5 48.5q0 31 -24.5 49.5t-73.5 18.5q-61 0 -108 -28l-31 70q78 43 163 43z " />
<glyph unicode="&#x438;" horiz-adv-x="604" d="M203 0h-133v494h102v-375h7l222 375h133v-494h-102v374h-7z" />
<glyph unicode="&#x439;" horiz-adv-x="604" d="M203 0l222 374h7v-374h102v494h-133l-222 -375h-7v375h-102v-494h133zM362 741h69q0 -49 -31.5 -88.5t-100.5 -39.5q-36 0 -62.5 13.5t-39.5 34.5t-19 41t-6 39h68q0 -21 14.5 -42t46.5 -21t46.5 20.5t14.5 42.5z" />
<glyph unicode="&#x43a;" horiz-adv-x="492" d="M182 0h-112v494h112v-209l160 209h132l-183 -226l201 -268h-140l-170 250v-250z" />
<glyph unicode="&#x43b;" horiz-adv-x="604" d="M107 494h427v-494h-113v409h-201v-178q0 -117 -43 -177t-129 -74l-28 81q50 17 68.5 48.5t18.5 97.5v287z" />
<glyph unicode="&#x43c;" horiz-adv-x="717" d="M144 0h-104l51 494h168l104 -328h4l105 328h161l44 -494h-105l-31 391h-6l-130 -391h-90l-130 391h-4z" />
<glyph unicode="&#x43d;" horiz-adv-x="566" d="M384 494h112v-494h-112v213h-202v-213h-112v494h112v-196h202v196z" />
<glyph unicode="&#x43e;" horiz-adv-x="550" d="M275 415q-57 0 -90.5 -44t-33.5 -124q0 -30 6 -57t19 -53.5t38.5 -42t60.5 -15.5q57 0 90 45t33 123q0 75 -32 121.5t-91 46.5zM35 247q0 50 13 94.5t40 82t75 59t112 21.5q117 0 178.5 -71t61.5 -186q0 -111 -60 -184t-180 -73q-112 0 -176 67.5t-64 189.5z" />
<glyph unicode="&#x43f;" horiz-adv-x="566" d="M70 494h426v-494h-112v409h-202v-409h-112v494z" />
<glyph unicode="&#x440;" horiz-adv-x="561" d="M188 0v-231h-112v574q0 75 -6 151h89q13 0 13 -13l1 -62h4q45 85 152 85q49 0 86 -16t57.5 -40t33 -57.5t16.5 -61.5t4 -59q0 -127 -71 -203.5t-190 -76.5q-50 0 -77 10zM265 77q70 0 107 47.5t37 139.5q0 70 -22.5 111.5t-83.5 41.5q-48 0 -81.5 -43t-33.5 -125v-162 q33 -10 77 -10z" />
<glyph unicode="&#x441;" horiz-adv-x="442" d="M277 504q64 0 130 -33q0 -31 -3 -70q0 -15 -9 -15q-3 0 -11 4q-50 25 -97 25q-135 0 -135 -168t134 -168q43 0 89 21q18 8 20 8q7 0 9 -11q3 -36 3 -74q-62 -33 -131 -33q-112 0 -176.5 65.5t-64.5 191.5q0 121 62 189t180 68z" />
<glyph unicode="&#x442;" horiz-adv-x="449" d="M281 0h-112v409h-139v85h389v-85h-138v-409z" />
<glyph unicode="&#x443;" horiz-adv-x="520" d="M214 1l-184 493h126l119 -344h4l112 344h119q-149 -405 -194 -524q-18 -48 -26.5 -68.5t-29 -56t-39.5 -51t-51 -28.5t-72 -13q-63 0 -88 11q3 40 6 74q2 13 10 13q1 0 17 -4t32 -4q23 0 38.5 4t36.5 23.5t35 55.5z" />
<glyph unicode="&#x444;" horiz-adv-x="699" d="M296 79v336q-62 0 -103 -43.5t-41 -124.5q0 -68 36.5 -118t107.5 -50zM403 415v-336q70 0 107 50.5t37 117.5q0 82 -41 125t-103 43zM406 -10l-1 -223h-112v223q-109 0 -183.5 67.5t-74.5 189.5q0 107 69.5 182t188.5 75v170h113v-170q119 0 188.5 -75t69.5 -182 q0 -122 -74.5 -189.5t-183.5 -67.5z" />
<glyph unicode="&#x445;" horiz-adv-x="517" d="M198 248l-170 246h135l102 -165l107 165h122l-167 -238l180 -256h-144l-105 169l-119 -169h-129z" />
<glyph unicode="&#x446;" horiz-adv-x="570" d="M370 494h112v-409h68v-240h-98v155h-382v494h113v-408h187v408z" />
<glyph unicode="&#x447;" horiz-adv-x="529" d="M347 494h112v-494h-112v173q-48 -41 -133 -41q-82 0 -128 51t-46 124v187h112v-161q0 -55 28.5 -85t78.5 -30q29 0 54.5 11.5t33.5 19.5v245z" />
<glyph unicode="&#x448;" horiz-adv-x="778" d="M596 494h112v-494h-638v494h113v-408h150v408h112v-408h151v408z" />
<glyph unicode="&#x449;" horiz-adv-x="796" d="M708 85h68v-240h-98v155h-608v494h112v-408h151v408h112v-408h151v408h112v-409z" />
<glyph unicode="&#x44a;" horiz-adv-x="598" d="M330 325q115 0 174 -46.5t59 -121.5q0 -79 -63 -123t-190 -44q-31 0 -70 3t-63 6.5t-30 4.5v405h-127v85h239v-174q30 5 71 5zM323 66q58 0 92.5 23.5t34.5 67.5q0 43 -33 67.5t-96 24.5q-26 0 -62 -6v-172q27 -5 64 -5z" />
<glyph unicode="&#x44b;" horiz-adv-x="734" d="M664 0h-112v494h112v-494zM254 325q114 0 173.5 -46.5t59.5 -121.5q0 -79 -63.5 -123t-190.5 -44q-93 0 -163 14v490h113v-174q30 5 71 5zM246 66q59 0 93.5 23t34.5 68q0 42 -33 67t-96 25q-47 0 -62 -6v-172q25 -5 63 -5z" />
<glyph unicode="&#x44c;" horiz-adv-x="521" d="M253 325q114 0 173.5 -46.5t59.5 -121.5q0 -79 -63.5 -123t-190.5 -44q-99 0 -162 14v490h112v-174q30 5 71 5zM245 66q59 0 93.5 23t34.5 68q0 43 -33 67.5t-96 24.5q-44 0 -62 -6v-172q25 -5 63 -5z" />
<glyph unicode="&#x44d;" horiz-adv-x="446" d="M169 504q119 0 180.5 -68t61.5 -189q0 -127 -64 -192t-177 -65q-72 0 -130 33q0 35 3 74q0 11 9 11q2 0 20 -8q42 -21 88 -21q116 0 132 126h-190v85h190q-16 125 -132 125q-47 0 -97 -25q-8 -4 -12 -4q-3 0 -5 2t-2.5 4t-1 5t-0.5 4q0 5 -1 30.5t-1 39.5q62 33 129 33z " />
<glyph unicode="&#x44e;" horiz-adv-x="810" d="M535 504q117 0 178.5 -71t61.5 -186q0 -111 -60 -184t-180 -73q-102 0 -164.5 56t-73.5 158h-115v-204h-112v494h112v-205h115q11 94 69 154.5t169 60.5zM535 79q57 0 90 44.5t33 123.5q0 75 -32 121.5t-91 46.5q-57 0 -90 -44t-33 -124q0 -67 28.5 -117.5t94.5 -50.5z " />
<glyph unicode="&#x44f;" horiz-adv-x="536" d="M353 271v137q-63 7 -81 7q-112 0 -112 -72t112 -72h81zM138 0h-128l137 209q-102 27 -102 138q0 79 57 118t186 39q84 0 178 -11v-493h-113v190h-104z" />
<glyph unicode="&#x451;" horiz-adv-x="506" d="M260 504q58 0 101 -19.5t66 -52t33.5 -67.5t10.5 -73q0 -34 -4 -70h-317q0 -64 40 -105t114 -41q63 0 105 25q12 7 19 7q8 0 9 -11q4 -56 4 -81q-59 -26 -149 -26q-257 0 -257 255q0 118 60 188.5t165 70.5zM152 297h207q0 1 0.5 5.5t0.5 6.5q0 43 -23.5 78t-77.5 35 q-32 0 -54.5 -13.5t-33 -34.5t-15 -40t-4.5 -37zM306 612v103h104v-103h-104zM111 612v103h104v-103h-104z" />
<glyph unicode="&#x452;" horiz-adv-x="573" d="M296 439q118 0 177.5 -73t59.5 -186q0 -121 -67 -206.5t-149 -116.5l-45 83q20 11 39 25.5t45 41.5t42 68t16 89q0 90 -40 138t-104 48q-53 0 -94 -23v-327h-112v542h-54v86h54v99h112v-99h192v-86h-192v-129q5 3 21 8.5t44.5 11.5t54.5 6z" />
<glyph unicode="&#x453;" horiz-adv-x="417" d="M183 0h-113v494h317v-85h-204v-409zM247 594h-60l80 147h107z" />
<glyph unicode="&#x454;" horiz-adv-x="441" d="M277 504q67 0 129 -33q0 -14 -1 -39.5t-1 -30.5q0 -1 -0.5 -4t-1 -5t-2.5 -4t-5 -2q-4 0 -12 4q-50 25 -97 25q-116 0 -132 -125h190v-85h-190q16 -126 132 -126q46 0 88 21q18 8 20 8q9 0 9 -11q3 -39 3 -74q-62 -33 -130 -33q-113 0 -177 65t-64 192q0 121 61.5 189 t180.5 68z" />
<glyph unicode="&#x455;" horiz-adv-x="394" d="M223 504q63 0 113 -10q0 -4 -1.5 -29t-2.5 -40q-2 -20 -11 -20q-3 0 -12 3q-38 15 -76 15q-41 0 -63 -16.5t-22 -40.5q0 -25 15 -39.5t50 -27.5l52 -20q38 -14 68.5 -47t30.5 -83q0 -81 -61.5 -120t-150.5 -39q-79 0 -109 9q0 45 4 81q2 13 11 13q4 0 16 -3 q55 -11 82 -11q45 0 69 17t24 41q0 40 -62 63l-56 21q-96 36 -96 136q0 70 55.5 108.5t132.5 38.5z" />
<glyph unicode="&#x456;" horiz-adv-x="256" d="M73 0h112v494h-112v-494zM70 606v114h116v-114h-116z" />
<glyph unicode="&#x457;" horiz-adv-x="256" d="M71 0v494h112v-494h-112zM174 612v103h104v-103h-104zM-21 612v103h104v-103h-104z" />
<glyph unicode="&#x458;" horiz-adv-x="267" d="M78 -81q0 -40 -21.5 -58t-50.5 -18q-17 0 -32.5 4t-16.5 4q-10 0 -10 -14q-5 -55 -7 -73q24 -11 70 -11q84 0 132 43t48 132v566h-112v-575zM76 606v114h116v-114h-116z" />
<glyph unicode="&#x459;" horiz-adv-x="841" d="M573 325q114 0 173.5 -46.5t59.5 -121.5q0 -79 -63.5 -123t-190.5 -44q-31 0 -70 3t-63 6.5t-30 4.5v405h-169v-178q0 -117 -43 -177t-129 -74l-28 81q50 17 69 48.5t19 96.5v288h393v-174q30 5 72 5zM565 66q58 0 92.5 23.5t34.5 67.5q0 43 -33 67.5t-96 24.5 q-26 0 -62 -6v-172q55 -5 64 -5z" />
<glyph unicode="&#x45a;" horiz-adv-x="814" d="M546 325q114 0 173.5 -46.5t59.5 -121.5q0 -79 -63.5 -123t-190.5 -44q-99 0 -162 14v209h-180v-213h-113v494h113v-196h180v196h112v-174q30 5 71 5zM538 66q59 0 93.5 23t34.5 68q0 43 -33 67.5t-96 24.5q-26 0 -62 -6v-172q50 -5 63 -5z" />
<glyph unicode="&#x45b;" horiz-adv-x="554" d="M319 504q78 0 121.5 -45.5t43.5 -111.5v-347h-112v314q0 55 -22.5 79t-57.5 24q-48 0 -81.5 -45.5t-33.5 -128.5v-243h-113v575h-54v80h54v72h113v-72h206v-80h-206v-137h4q41 66 138 66z" />
<glyph unicode="&#x45c;" horiz-adv-x="492" d="M182 0h-112v494h112v-209l159 209h133l-183 -226l201 -268h-140l-170 250v-250zM280 594h-60l80 147h108z" />
<glyph unicode="&#x45e;" horiz-adv-x="520" d="M336 741h70q0 -49 -32 -88.5t-100 -39.5q-36 0 -62.5 13.5t-40 34t-19.5 41t-6 39.5h69q0 -21 14 -41.5t46 -20.5q33 0 47 20t14 42zM214 1l-184 493h126l119 -344h4l112 344h119q-148 -405 -194 -524q-13 -35 -19 -49.5t-19 -43.5t-23 -42t-27 -32.5t-34 -27.5 t-41.5 -15t-53.5 -7q-59 0 -89 10q4 40 7 75q0 12 10 12q1 0 16.5 -3.5t32.5 -3.5q23 0 38 3.5t36 23t35 56.5z" />
<glyph unicode="&#x45f;" horiz-adv-x="552" d="M370 494h112v-494h-158v-155h-97v155h-157v494h112v-407h188v407z" />
<glyph unicode="&#x490;" horiz-adv-x="463" d="M443 796v-214h-244v-582h-119v674h280v122h83z" />
<glyph unicode="&#x491;" horiz-adv-x="417" d="M182 0h-112v494h247v99h70v-184h-205v-409z" />
<glyph unicode="&#x4d9;" horiz-adv-x="506" d="M246 -10q-58 0 -101 19.5t-66 52t-33.5 67.5t-10.5 73q0 30 4 70h317q0 64 -39.5 104.5t-113.5 40.5q-53 0 -106 -24q-16 -7 -19 -7q-8 0 -9 11q-3 42 -3 81q78 26 149 26q256 0 256 -256q0 -118 -60 -188t-165 -70zM354 196h-207v-12q0 -42 23 -77t78 -35q41 0 66.5 24 t32.5 49t7 51z" />
<glyph unicode="&#x1e02;" horiz-adv-x="575" d="M80 674v-674h224q123 0 182 56.5t59 143.5q0 74 -43 113t-85 46v4q13 4 26 10t36 21.5t37 45t14 67.5q0 31 -9.5 58t-31.5 53t-66.5 41t-107.5 15h-235zM199 391v200l11 1q12 0 30 0.5t34 0.5q136 0 136 -101t-136 -101h-75zM199 92v216h74q150 0 150 -109 q0 -110 -150 -110q-55 0 -74 3zM214 770v103h104v-103h-104z" />
<glyph unicode="&#x1e03;" horiz-adv-x="555" d="M305 415q-57 0 -90 -51t-33 -117v-161q30 -11 78 -11q143 0 143 185q0 155 -98 155zM182 426h4q50 78 147 78q187 0 187 -234q0 -57 -15 -105.5t-46.5 -88.5t-85 -63t-124.5 -23q-91 0 -179 24v703h112v-291zM281 770v103h104v-103h-104z" />
<glyph unicode="&#x1e0a;" horiz-adv-x="679" d="M80 674v-674h221q166 0 252 94.5t86 242.5q0 159 -91.5 248t-246.5 89h-221zM199 91v491q50 5 76 5q113 0 177 -64t64 -186q0 -118 -62 -184t-179 -66q-52 0 -76 4zM249 770v103h104v-103h-104z" />
<glyph unicode="&#x1e0b;" horiz-adv-x="560" d="M372 494q-27 10 -76 10q-120 0 -190.5 -76.5t-70.5 -203.5q0 -31 3.5 -59t16 -61.5t33 -57.5t57.5 -40t86 -16q106 0 151 85h4q0 -50 1 -62q0 -13 13 -13h90q-5 65 -5 151v566h-113v-223zM295 417q44 0 77 -10v-162q0 -83 -33.5 -125.5t-81.5 -42.5q-61 0 -83 41.5 t-22 111.5q0 187 143 187zM243 770v103h104v-103h-104z" />
<glyph unicode="&#x1e1e;" horiz-adv-x="494" d="M80 674v-674h119v300h231v92h-231v190h245v92h-364zM222 770v103h104v-103h-104z" />
<glyph unicode="&#x1e1f;" horiz-adv-x="354" d="M295 727q49 0 79 -11l-6 -73q0 -14 -10 -14l-19 4q-19 4 -40 4q-93 0 -93 -105v-38h119v-85h-119v-409h-112v409h-69v85h69v29q0 204 201 204zM244 770v103h104v-103h-104z" />
<glyph unicode="&#x1e40;" horiz-adv-x="859" d="M378 770v103h104v-103h-104zM140 0h-110l95 674h139l161 -526l168 526h135l101 -674h-116l-69 512h-4l-155 -512h-129l-152 512h-4z" />
<glyph unicode="&#x1e41;" horiz-adv-x="852" d="M70 494q5 -85 5 -149v-345h112v255q0 64 26 112t77 48q83 0 83 -103v-312h112v255q0 67 27 113.5t77 46.5q49 0 65 -31.5t16 -83.5v-300h112v340q0 84 -47 124t-119 40q-61 0 -98 -28.5t-53 -61.5q-15 34 -49 62t-93 28q-36 0 -65 -10.5t-45.5 -27t-24 -27.5t-11.5 -20 h-4q-1 55 -1 61q0 14 -15 14h-87zM410 612v103h104v-103h-104z" />
<glyph unicode="&#x1e56;" horiz-adv-x="550" d="M199 339q14 -2 50 -2q73 0 110.5 34t37.5 93t-38.5 92t-109.5 33q-42 0 -50 -2v-248zM272 247q-37 0 -73 4v-251h-119v674h200q112 0 176 -59t64 -149q0 -103 -66 -161t-182 -58zM227 770v103h104v-103h-104z" />
<glyph unicode="&#x1e57;" horiz-adv-x="561" d="M188 0q27 -10 77 -10q119 0 190 76.5t71 203.5q0 31 -4 59t-16.5 61.5t-33 57.5t-57.5 40t-86 16q-107 0 -152 -85h-4q-1 50 -1 62q0 13 -13 13h-89q6 -76 6 -151v-574h112v231zM265 77q-44 0 -77 10v162q0 82 33.5 125t81.5 43q61 0 83.5 -41.5t22.5 -111.5 q0 -92 -37 -139.5t-107 -47.5zM277 612v103h104v-103h-104z" />
<glyph unicode="&#x1e60;" horiz-adv-x="493" d="M417 673l-6 -102q-45 17 -118 17q-67 0 -99 -25t-32 -63q0 -58 78 -89l67 -28q156 -63 156 -188q0 -94 -69.5 -149.5t-186.5 -55.5q-95 0 -145 16l6 105q72 -24 132 -24q70 0 106 24.5t36 69.5q0 34 -25 57t-72 42l-64 27q-141 57 -141 189q0 84 68 136.5t190 52.5 q81 0 119 -12zM213 770v103h104v-103h-104z" />
<glyph unicode="&#x1e61;" horiz-adv-x="394" d="M223 504q-77 0 -132.5 -38.5t-55.5 -108.5q0 -100 96 -136l56 -21q62 -23 62 -63q0 -24 -24 -41t-69 -17q-27 0 -82 11q-12 3 -16 3q-9 0 -11 -13q-4 -36 -4 -81q30 -9 109 -9q89 0 150.5 39t61.5 120q0 50 -30.5 83t-68.5 47l-52 20q-35 13 -50 27.5t-15 39.5 q0 24 22 40.5t63 16.5q39 0 76 -15q9 -3 12 -3q9 0 11 20q1 15 2.5 40t1.5 29q-50 10 -113 10zM164 612v103h104v-103h-104z" />
<glyph unicode="&#x1e6a;" horiz-adv-x="520" d="M319 0v582h181v92h-480v-92h181v-582h118zM207 770v103h104v-103h-104z" />
<glyph unicode="&#x1e6b;" horiz-adv-x="365" d="M276 -10q49 0 79 11l-6 73q0 14 -10 14q-2 0 -20 -4.5t-36 -4.5q-62 0 -62 67v263h128v85h-128v100h-113v-100h-88v-85h88v-245q0 -174 168 -174zM112 666v103h104v-103h-104z" />
<glyph unicode="&#x1e80;" horiz-adv-x="964" d="M30 674l176 -674h134l136 546h4l139 -546h142l173 674h-115l-123 -521h-4l-139 521h-137l-135 -521h-4l-124 521h-123zM559 736h-60l-128 147h108z" />
<glyph unicode="&#x1e81;" horiz-adv-x="789" d="M10 494l148 -494h129l104 364h4l104 -364h127l153 494h-107l-100 -366h-7l-106 366h-122l-106 -366h-7l-99 366h-115zM454 594h-60l-128 147h108z" />
<glyph unicode="&#x1e82;" horiz-adv-x="964" d="M206 0l-176 674h123l124 -521h4l135 521h137l139 -521h4l123 521h115l-173 -674h-142l-139 546h-4l-136 -546h-134zM447 736h-60l80 147h108z" />
<glyph unicode="&#x1e83;" horiz-adv-x="789" d="M158 0l-148 494h115l99 -366h7l106 366h122l106 -366h7l100 366h107l-153 -494h-127l-104 364h-4l-104 -364h-129zM367 594h-60l80 147h108z" />
<glyph unicode="&#x1e84;" horiz-adv-x="964" d="M206 0l-176 674h123l124 -521h4l135 521h137l139 -521h4l123 521h115l-173 -674h-142l-139 546h-4l-136 -546h-134zM526 770v103h104v-103h-104zM331 770v103h104v-103h-104z" />
<glyph unicode="&#x1e85;" horiz-adv-x="789" d="M158 0l-148 494h115l99 -366h7l106 366h122l106 -366h7l100 366h107l-153 -494h-127l-104 364h-4l-104 -364h-129zM447 612v103h104v-103h-104zM252 612v103h104v-103h-104z" />
<glyph unicode="&#x1ef2;" horiz-adv-x="562" d="M227 0v233l-217 441h128l150 -322l146 322h118l-206 -441v-233h-119zM339 736h-60l-128 147h108z" />
<glyph unicode="&#x1ef3;" horiz-adv-x="520" d="M30 494l184 -493q-16 -41 -29 -75q-14 -36 -35 -55.5t-36.5 -23.5t-38.5 -4q-16 0 -32 4t-17 4q-8 0 -10 -13l-6 -74q25 -11 88 -11q40 0 72 13t51 28.5t39.5 51t29 56t26.5 68.5l194 524h-119l-112 -344h-4l-119 344h-126zM335 594h-60l-128 147h108z" />
<glyph unicode="&#x2013;" horiz-adv-x="597" d="M517 288v-87h-437v87h437z" />
<glyph unicode="&#x2014;" horiz-adv-x="775" d="M695 288v-87h-615v87h615z" />
<glyph unicode="&#x2018;" horiz-adv-x="216" d="M166 554v-114h-116v96q0 53 27.5 90.5t66.5 56.5l19 -22q-56 -36 -52 -107h55z" />
<glyph unicode="&#x2019;" horiz-adv-x="225" d="M52 560v114h116v-96q0 -53 -27.5 -90.5t-66.5 -56.5l-19 22q56 36 52 107h-55z" />
<glyph unicode="&#x201a;" horiz-adv-x="236" d="M60 0v114h116v-96q0 -53 -27.5 -90.5t-66.5 -56.5l-19 22q56 36 52 107h-55z" />
<glyph unicode="&#x201c;" horiz-adv-x="421" d="M166 554v-114h-116v96q0 53 27.5 90.5t66.5 56.5l19 -22q-56 -36 -52 -107h55zM371 554v-114h-116v96q0 53 27.5 90.5t66.5 56.5l19 -22q-56 -36 -52 -107h55z" />
<glyph unicode="&#x201d;" horiz-adv-x="421" d="M255 560v114h116v-96q0 -53 -27.5 -90.5t-66.5 -56.5l-19 22q56 36 52 107h-55zM50 560v114h116v-96q0 -53 -27.5 -90.5t-66.5 -56.5l-19 22q56 36 52 107h-55z" />
<glyph unicode="&#x201e;" horiz-adv-x="443" d="M267 0v114h116v-96q0 -53 -27.5 -90.5t-66.5 -56.5l-19 22q56 36 52 107h-55zM60 0v114h116v-96q0 -53 -27.5 -90.5t-66.5 -56.5l-19 22q56 36 52 107h-55z" />
<glyph unicode="&#x2020;" horiz-adv-x="477" d="M254 -247h-30l-56 546l30 110h-158v86h157l-31 179h145l-30 -179h156v-86h-157l29 -110z" />
<glyph unicode="&#x2021;" horiz-adv-x="478" d="M438 340v-86h-133l-52 -502h-29l-51 502h-132v86h138l19 68h-158v86h157l-31 179h145l-30 -179h156v-86h-157l18 -68h140z" />
<glyph unicode="&#x2022;" horiz-adv-x="353" d="M100 168v151h153v-151h-153z" />
<glyph unicode="&#x2026;" horiz-adv-x="693" d="M60 0v114h116v-114h-116zM288 0v114h116v-114h-116zM517 0v114h116v-114h-116z" />
<glyph unicode="&#x2030;" horiz-adv-x="1211" d="M574 674l-403 -674h94l403 674h-94zM60 524q0 76 39.5 122.5t121.5 46.5q79 0 120.5 -46t41.5 -123q0 -75 -40.5 -122t-121.5 -47q-78 0 -119.5 44t-41.5 125zM221 617q-35 0 -52.5 -25t-17.5 -68q0 -44 18 -68.5t52 -24.5t52 25t18 68t-18 68t-52 25zM463 158 q0 76 39.5 122.5t122.5 46.5q79 0 120 -45.5t41 -123.5q0 -75 -40 -121.5t-121 -46.5q-78 0 -120 44t-42 124zM625 252q-35 0 -52.5 -25.5t-17.5 -68.5q0 -44 18 -68.5t52 -24.5t52 25t18 68t-18 68.5t-52 25.5zM828 158q0 76 39.5 122.5t122.5 46.5q79 0 120 -45.5 t41 -123.5q0 -75 -40 -121.5t-121 -46.5q-78 0 -120 43.5t-42 124.5zM990 252q-35 0 -52.5 -25.5t-17.5 -68.5q0 -44 18 -68.5t52 -24.5q33 0 51 25t18 68t-17.5 68.5t-51.5 25.5z" />
<glyph unicode="&#x2039;" horiz-adv-x="336" d="M50 237l171 210l65 -43l-138 -167l138 -168l-65 -42z" />
<glyph unicode="&#x203a;" horiz-adv-x="405" d="M149 447l171 -210l-171 -210l-64 42l137 168l-137 167z" />
<glyph unicode="&#x2044;" horiz-adv-x="240" d="M283 674h77l-403 -674h-77z" />
<glyph unicode="&#x2070;" horiz-adv-x="311" d="M30 506q0 173 126 173q44 0 74 -30.5t40.5 -67.5t10.5 -75q0 -70 -32.5 -122t-92.5 -52q-126 0 -126 174zM156 381q32 0 49.5 32.5t17.5 92.5q0 16 -2 32t-7.5 40t-20.5 38.5t-37 14.5q-39 0 -53.5 -31t-14.5 -94q0 -64 15 -94.5t53 -30.5z" />
<glyph unicode="&#x2074;" horiz-adv-x="303" d="M173 467v156h-4l-90 -156h94zM173 422h-139l-9 43l127 209h77v-207h54v-45h-54v-85h-56v85z" />
<glyph unicode="&#x2075;" horiz-adv-x="267" d="M106 628v-84q9 3 29 3q46 0 74 -30t28 -73q0 -51 -36 -81.5t-101 -30.5q-36 0 -48 3l-2 49q15 -3 52 -3q33 0 55 17t22 47q0 27 -22 44t-60 17q-12 0 -47 -5v173h174v-46h-118z" />
<glyph unicode="&#x2076;" horiz-adv-x="298" d="M90 440q0 -28 17.5 -45.5t43.5 -17.5q27 0 44.5 18t17.5 45q0 29 -18 46.5t-44 17.5t-43.5 -17.5t-17.5 -46.5zM162 552q46 0 76 -29t30 -79q0 -14 -4.5 -30.5t-16 -36t-36.5 -32.5t-60 -13q-30 0 -52.5 10t-35.5 24.5t-20.5 35t-10 38t-2.5 36.5q0 101 49.5 152 t123.5 51q24 0 39 -3l-6 -50q-12 5 -36 5q-26 0 -46.5 -9.5t-32 -22t-19 -29t-10 -27t-3.5 -19.5l3 -2q3 4 9.5 10t23.5 13t37 7z" />
<glyph unicode="&#x2077;" horiz-adv-x="233" d="M118 337h-60q10 52 39.5 140t58.5 151h-146v46h203v-45q-26 -56 -55 -145.5t-40 -146.5z" />
<glyph unicode="&#x2078;" horiz-adv-x="287" d="M144 537q51 25 51 57q0 18 -14.5 29t-37.5 11q-22 0 -37 -11t-15 -28q0 -13 8.5 -24t17.5 -17.5t27 -16.5zM201 422q0 32 -62 64q-53 -30 -53 -64q0 -20 17.5 -31t43.5 -11q25 0 39.5 12t14.5 30zM30 418q0 13 4 24.5t9 20t14.5 17t14.5 12.5t14 10l9 6q-58 35 -58 81 q0 38 27.5 64t78.5 26q56 0 81 -22.5t25 -54.5q0 -26 -12 -44.5t-48 -42.5q68 -39 68 -90q0 -40 -31.5 -66.5t-88.5 -26.5q-47 0 -77 22t-30 64z" />
<glyph unicode="&#x2079;" horiz-adv-x="298" d="M208 571q0 28 -17.5 45.5t-44.5 17.5q-26 0 -43.5 -18t-17.5 -45q0 -28 17.5 -45.5t43.5 -17.5t44 17.5t18 45.5zM136 460q-47 0 -76.5 28.5t-29.5 78.5q0 15 4.5 31.5t16 36t36 32t59.5 12.5q37 0 63 -14t38 -37.5t16.5 -45.5t4.5 -46q0 -101 -49.5 -152.5t-123.5 -51.5 q-12 0 -25.5 1.5t-14.5 1.5l6 51q15 -5 36 -5q32 0 55.5 13t34.5 33.5t15.5 33.5t6.5 26l-3 2l-4 -3q-3 -3 -6.5 -6t-9.5 -6.5t-13 -6.5t-17 -5t-20 -2z" />
<glyph unicode="&#x2080;" horiz-adv-x="311" d="M30 169q0 173 125 173q44 0 74.5 -31t41 -68t10.5 -74q0 -70 -33 -122t-93 -52q-125 0 -125 174zM155 44q32 0 50 33t18 92q0 16 -2 32t-7.5 40t-20.5 38.5t-38 14.5q-38 0 -53 -31.5t-15 -93.5q0 -64 15 -94.5t53 -30.5z" />
<glyph unicode="&#x2081;" horiz-adv-x="188" d="M138 0h-56v277q-25 -16 -63 -20l-9 44q26 3 50.5 15t34.5 26h43v-342z" />
<glyph unicode="&#x2082;" horiz-adv-x="259" d="M20 45q60 69 70 82q59 68 59 111q0 23 -14.5 39.5t-42.5 16.5q-33 0 -61 -20l-9 48q30 20 80 20q49 0 77.5 -28t28.5 -69q0 -58 -58 -126l-59 -73h128v-46h-199v45z" />
<glyph unicode="&#x2083;" horiz-adv-x="252" d="M39 282l-9 45q35 15 74 15q44 0 72.5 -23.5t28.5 -63.5q0 -23 -12.5 -40.5t-23.5 -23t-20 -8.5v-4q12 -4 24 -11t25.5 -26.5t13.5 -45.5q0 -46 -33.5 -73.5t-94.5 -27.5q-27 0 -47 5l-3 48q35 -5 48 -5q33 0 53 14.5t20 40.5q0 56 -79 56h-17v40h15q32 0 53 15t21 40 q0 20 -14 34t-42 14t-53 -15z" />
<glyph unicode="&#x2084;" horiz-adv-x="302" d="M173 130v156h-4l-91 -156h95zM173 84h-139l-9 44l128 209h76v-207h53v-46h-53v-84h-56v84z" />
<glyph unicode="&#x2085;" horiz-adv-x="267" d="M106 291v-84q9 3 29 3q46 0 74 -30t28 -73q0 -51 -36 -81.5t-101 -30.5q-36 0 -48 3l-2 49q15 -3 52 -3q33 0 55 17t22 47q0 27 -22 44t-60 17q-12 0 -47 -5v173h174v-46h-118z" />
<glyph unicode="&#x2086;" horiz-adv-x="298" d="M90 103q0 -28 17.5 -45.5t43.5 -17.5q27 0 44.5 18t17.5 45q0 29 -18 46.5t-44 17.5q-25 0 -43 -17.5t-18 -46.5zM162 214q47 0 76.5 -28.5t29.5 -78.5q0 -14 -4.5 -30.5t-16 -36t-36.5 -32.5t-60 -13q-37 0 -63 14t-37.5 37.5t-16 45.5t-4.5 46q0 101 49.5 152.5 t123.5 51.5q24 0 39 -3l-6 -50q-13 5 -36 5q-32 0 -55.5 -13t-35 -32.5t-16.5 -34.5t-6 -26l3 -2q3 4 10 9.5t24.5 12t37.5 6.5z" />
<glyph unicode="&#x2087;" horiz-adv-x="233" d="M117 0h-59q10 51 39 139t58 152h-145v46h203v-45q-26 -54 -54.5 -143t-41.5 -149z" />
<glyph unicode="&#x2088;" horiz-adv-x="286" d="M144 200q50 25 50 57q0 18 -14 29t-37 11t-37.5 -11t-14.5 -28q0 -13 8.5 -24t17.5 -17.5t27 -16.5zM200 85q0 31 -61 64q-53 -32 -53 -64q0 -20 17 -31t43 -11q25 0 39.5 12t14.5 30zM30 81q0 57 65 90q-58 34 -58 81q0 38 27.5 64t78.5 26q56 0 81 -22.5t25 -54.5 q0 -26 -12.5 -44.5t-48.5 -42.5q68 -38 68 -90q0 -40 -31 -66.5t-88 -26.5q-47 0 -77 22t-30 64z" />
<glyph unicode="&#x2089;" horiz-adv-x="298" d="M208 234q0 28 -17.5 45.5t-43.5 17.5q-27 0 -44 -18t-17 -45q0 -28 17.5 -45.5t43.5 -17.5t43.5 17t17.5 46zM137 123q-47 0 -77 28.5t-30 78.5q0 14 5 31t16 36.5t36 32t60 12.5q121 0 121 -143q0 -101 -49 -152.5t-123 -51.5q-12 0 -25.5 1.5t-14.5 1.5l6 50 q10 -4 36 -4q32 0 55.5 13t34.5 33.5t15.5 33.5t6.5 26l-3 1q-2 -4 -9 -9.5t-24 -12t-37 -6.5z" />
<glyph unicode="&#x20ac;" horiz-adv-x="682" d="M628 120l14 -101q-81 -29 -155 -29q-138 0 -220.5 58t-111.5 161h-95l49 92h30q-1 12 -1 36q0 29 2 44h-80l49 91h48q67 212 330 212q79 0 155 -28l-31 -95q-71 26 -134 26q-60 0 -109 -29t-77 -86h292l-30 -91h-287q-2 -14 -2 -44q0 -24 2 -36h261l-29 -92h-208 q53 -122 187 -122q72 0 151 33z" />
<glyph unicode="&#x2122;" horiz-adv-x="536" d="M60 674h151v-33h-54v-167h-43v167h-54v33zM216 474l29 200h56l46 -145h4l42 145h53l30 -200h-41l-20 147h-4l-45 -147h-44l-45 147h-4l-15 -147h-42z" />
<glyph unicode="&#x2153;" horiz-adv-x="625" d="M413 327l9 -45q25 15 53 15q27 0 41.5 -14t14.5 -34q0 -24 -21 -39.5t-53 -15.5h-15v-40h17q78 0 78 -56q0 -26 -20 -40.5t-52 -14.5q-9 0 -49 5l3 -48q20 -5 47 -5q62 0 95.5 27.5t33.5 73.5q0 26 -13.5 45.5t-25.5 26.5t-24 11v4q9 3 19.5 8.5t23 23t12.5 40.5 q0 40 -28 63.5t-72 23.5q-41 0 -74 -15zM128 337h-56v277q-25 -16 -63 -20l-9 44q27 3 51 15t34 26h43v-342zM49 0l402 674h78l-403 -674h-77z" />
<glyph unicode="&#x2154;" horiz-adv-x="697" d="M111 464q58 70 58 111q0 23 -14.5 39.5t-42.5 16.5q-33 0 -61 -20l-9 48q30 20 80 20q49 0 77.5 -28t28.5 -69q0 -57 -57 -126l-59 -73h127v-46h-199v45q60 69 71 82zM494 282l-9 45q35 15 74 15q44 0 72.5 -23.5t28.5 -63.5q0 -23 -12.5 -40.5t-23.5 -23t-20 -8.5v-4 q12 -4 24 -11t25.5 -26.5t13.5 -45.5q0 -46 -33.5 -73.5t-94.5 -27.5q-27 0 -47 5l-3 48q35 -5 48 -5q33 0 53 14.5t20 40.5q0 56 -79 56h-17v40h15q33 0 53.5 15t20.5 40q0 20 -14 34t-42 14t-53 -15zM121 0l403 674h77l-403 -674h-77z" />
<glyph unicode="&#x215b;" horiz-adv-x="630" d="M129 337h-56v277q-25 -16 -63 -20l-9 44q27 3 51 15t34 27h43v-343zM488 200q50 27 50 57q0 19 -14.5 29.5t-37.5 10.5q-22 0 -37 -11t-15 -27q0 -19 13.5 -31.5t40.5 -27.5zM544 85q0 31 -61 64q-53 -32 -53 -64q0 -20 17 -31t43 -11q25 0 39.5 12t14.5 30zM374 81 q0 11 2.5 21t8 18.5t10.5 15t12.5 13t11.5 9.5t11 7.5t8 5.5q-58 35 -58 81q0 39 27.5 65t79.5 26q55 0 80.5 -23t25.5 -55q0 -25 -12.5 -44t-48.5 -43q68 -39 68 -90q0 -40 -31.5 -66.5t-88.5 -26.5q-46 0 -76 22t-30 64zM450 675l-404 -675h78l403 675h-77z" />
<glyph unicode="&#x215c;" horiz-adv-x="686" d="M49 620l-9 45q35 15 75 15q44 0 72 -24t28 -64q0 -51 -56 -71v-4q63 -25 63 -84q0 -46 -33.5 -73t-94.5 -27q-12 0 -22.5 1t-17 2t-7.5 1l-3 49q18 -5 48 -5q33 0 53 14.5t20 39.5q0 56 -79 56h-17v41h15q33 0 53.5 15t20.5 40q0 20 -14 34t-42 14q-16 0 -53 -15z M543 200q51 26 51 57q0 19 -14.5 29.5t-37.5 10.5q-22 0 -37 -11t-15 -27q0 -19 13 -31.5t40 -27.5zM600 85q0 32 -62 64q-53 -32 -53 -64q0 -20 17.5 -31t43.5 -11q25 0 39.5 12t14.5 30zM429 81q0 13 4 24.5t9 20t14.5 17t14.5 12.5t14 10l9 6q-58 35 -58 81q0 39 27.5 65 t79.5 26q55 0 80.5 -23t25.5 -55q0 -25 -12.5 -44t-48.5 -43q68 -39 68 -90q0 -40 -31.5 -66.5t-88.5 -26.5q-47 0 -77 22t-30 64zM102 0l403 675h78l-403 -675h-78z" />
<glyph unicode="&#x215d;" horiz-adv-x="674" d="M106 629v-84q9 3 29 3q46 0 74 -30t28 -74q0 -51 -36 -81.5t-101 -30.5q-32 0 -48 4l-2 49q8 -4 52 -4q33 0 55 17.5t22 46.5q0 28 -21.5 44.5t-60.5 16.5q-29 0 -47 -5v174h175v-46h-119zM531 200q50 25 50 57q0 19 -14 29.5t-37 10.5t-37.5 -11t-14.5 -27 q0 -19 13 -31.5t40 -27.5zM588 85q0 31 -62 64q-53 -32 -53 -64q0 -20 17 -31t43 -11t40.5 12t14.5 30zM417 81q0 51 65 90q-59 34 -59 81q0 38 28 64.5t79 26.5q56 0 81 -23t25 -55q0 -26 -12 -44.5t-48 -42.5q68 -39 68 -90q0 -40 -31.5 -66.5t-88.5 -26.5q-47 0 -77 22 t-30 64zM493 675l-403 -675h77l403 675h-77z" />
<glyph unicode="&#x215e;" horiz-adv-x="632" d="M108 337h-60q10 51 39.5 139t58.5 153h-146v46h204v-45q-26 -56 -55 -145t-41 -148zM489 200q50 25 50 57q0 19 -14 29.5t-37 10.5t-37.5 -11t-14.5 -27q0 -19 13 -31.5t40 -27.5zM546 85q0 32 -62 64q-53 -32 -53 -64q0 -20 17 -31t43 -11t40.5 12t14.5 30zM375 81 q0 53 65 90q-58 34 -58 81q0 39 27.5 65t78.5 26q56 0 81 -23t25 -55q0 -26 -12 -44.5t-48 -42.5q68 -39 68 -90q0 -40 -31.5 -66.5t-88.5 -26.5q-47 0 -77 22t-30 64zM48 0l403 675h77l-403 -675h-77z" />
<glyph unicode="&#x2212;" d="M55 288h512v-87h-512v87z" />
<glyph unicode="&#x2260;" d="M568 293h-187l-36 -92h223v-87h-258l-45 -114h-110l45 114h-146v87h180l37 92h-217v87h251l52 131h110l-52 -131h153v-87z" />
<glyph unicode="&#x2264;" d="M89 0v87h443v-87h-443zM449 182l-63 -59l-257 247l259 246l63 -64l-197 -183z" />
<glyph unicode="&#x2265;" d="M532 0v87h-443v-87h443zM230 123l-63 59l195 187l-197 183l63 64l259 -246z" />
<glyph unicode="&#x25fc;" horiz-adv-x="495" d="M0 495h495v-495h-495v495z" />
<glyph unicode="&#xf6e1;" horiz-adv-x="236" d="M60 0v114h116v-96q0 -53 -27.5 -90.5t-66.5 -56.5l-19 22q56 36 52 107h-55z" />
<glyph unicode="&#xf6e3;" />
<glyph unicode="&#xf6e7;" horiz-adv-x="236" d="M60 0v114h116v-114h-116z" />
<glyph unicode="&#xf6f9;" horiz-adv-x="376" d="M366 88v-88h-300v195l-49 -18l-32 82l81 31v243h116v-200l106 38l31 -84l-137 -48v-151h184z" />
<glyph unicode="&#xf6fa;" horiz-adv-x="795" d="M304 82q69 0 107 49t38 135q0 78 -34.5 131.5t-110.5 53.5q-69 0 -107 -50t-38 -135t38 -134.5t107 -49.5zM765 88v-88h-313v26q-62 -35 -148 -35q-129 0 -199 73.5t-70 201.5q0 125 68.5 200.5t200.5 75.5q84 0 148 -35v26h306v-88h-190v-130h172v-84h-172v-143h197z " />
<glyph unicode="&#xf6fd;" horiz-adv-x="425" d="M365 522l-14 -90q-39 18 -103 18q-88 0 -88 -58q0 -16 5.5 -27.5t18 -19.5t19.5 -11.5t22 -9.5l45 -17q46 -17 78.5 -52.5t32.5 -92.5q0 -78 -59 -125t-164 -47q-69 0 -123 19l13 88q48 -16 104 -16q53 0 78.5 19.5t25.5 50.5q0 19 -12 34t-25.5 22t-33.5 15l-39 16 q-107 45 -107 147q0 75 54 115.5t158 40.5q64 0 114 -19zM109 734h74l68 -88l70 88h69l-90 -147h-100z" />
<glyph unicode="&#xf6ff;" horiz-adv-x="435" d="M30 0v82l235 369h-229v82h362v-82l-236 -369h243v-82h-375zM94 734h74l68 -88l70 88h69l-90 -147h-100z" />
<glyph unicode="&#xf721;" horiz-adv-x="239" d="M160 155h-83l-13 378h109zM69 0v103h104v-103h-104z" />
<glyph unicode="&#xf726;" horiz-adv-x="585" d="M440 315h107q-6 -112 -63 -198q53 -40 81 -58l-63 -70q-28 17 -83 58q-77 -57 -177 -57q-91 0 -149 46.5t-58 116.5q0 35 17.5 64t36 43t48.5 32q-60 63 -60 120q0 52 45.5 91t126.5 39q75 0 114 -34.5t39 -83.5q0 -27 -9.5 -49t-30 -40t-34.5 -27.5t-41 -24.5 q38 -36 115 -99q33 61 38 131zM194 416q0 -36 35 -76q18 10 28 17.5t23 24.5t13 36t-12.5 31t-34.5 12q-24 0 -38 -13t-14 -32zM150 151q0 -35 25.5 -57t72.5 -22q48 0 94 39q-17 14 -141 120q-51 -37 -51 -80z" />
<glyph unicode="&#xf73f;" horiz-adv-x="340" d="M20 435l8 91q45 15 98 15q81 0 130 -40.5t49 -99.5q0 -18 -3.5 -33.5t-7 -25t-13.5 -22.5t-13.5 -17t-17.5 -16.5t-16 -14.5q-15 -14 -23 -24t-15 -28.5t-7 -41.5v-23h-102v28q0 52 17.5 82.5t49.5 55.5q40 31 40 66q0 28 -22.5 46.5t-63.5 18.5q-47 0 -88 -17zM86 0v103 h104v-103h-104z" />
<glyph unicode="&#xf760;" horiz-adv-x="0" />
<glyph unicode="&#xf761;" horiz-adv-x="563" d="M127 0h-117l204 533h139l200 -533h-127l-37 103h-223zM361 183l-83 234h-4l-81 -234h168z" />
<glyph unicode="&#xf762;" horiz-adv-x="475" d="M60 0v533h199q101 0 144 -37.5t43 -94.5q0 -81 -87 -113v-4q9 -2 23 -8.5t31.5 -20t29.5 -39t12 -57.5q0 -68 -52 -113.5t-169 -45.5h-174zM175 455v-145h45q105 0 105 74q0 73 -105 73q-31 0 -45 -2zM175 236v-156q22 -2 50 -2q109 0 109 79t-109 79h-50z" />
<glyph unicode="&#xf763;" horiz-adv-x="466" d="M446 518l-19 -94q-54 27 -107 27q-77 0 -120 -50.5t-43 -134.5q0 -87 45 -135.5t119 -48.5q50 0 106 26l19 -93q-62 -24 -127 -24q-131 0 -207.5 73t-76.5 202q0 134 78.5 205t205.5 71q73 0 127 -24z" />
<glyph unicode="&#xf764;" horiz-adv-x="573" d="M175 441v-349q30 -5 66 -5q87 0 132 49t45 130q0 79 -43.5 129.5t-133.5 50.5q-38 0 -66 -5zM60 0v533h188q148 0 219 -71.5t71 -195.5q0 -127 -72.5 -196.5t-217.5 -69.5h-188z" />
<glyph unicode="&#xf765;" horiz-adv-x="403" d="M373 88v-88h-313v533h306v-88h-190v-130h172v-84h-172v-143h197z" />
<glyph unicode="&#xf766;" horiz-adv-x="403" d="M373 533v-88h-197v-144h172v-84h-172v-217h-116v533h313z" />
<glyph unicode="&#xf767;" horiz-adv-x="555" d="M505 28q-93 -37 -186 -37q-131 0 -207.5 73t-76.5 202q0 135 79.5 205.5t212.5 70.5q104 0 169 -26l-20 -97q-64 32 -141 32q-90 0 -134 -49.5t-44 -135.5q0 -87 44.5 -135.5t118.5 -48.5q42 0 70 6v143h-79v84h194v-287z" />
<glyph unicode="&#xf768;" horiz-adv-x="565" d="M390 533h115v-533h-115v232h-215v-232h-115v533h115v-217h215v217z" />
<glyph unicode="&#xf769;" horiz-adv-x="235" d="M175 533v-533h-115v533h115z" />
<glyph unicode="&#xf76a;" horiz-adv-x="317" d="M142 160v373h115v-371q0 -74 -42 -123t-126 -49q-51 0 -79 8v91q32 -8 58 -8q74 0 74 79z" />
<glyph unicode="&#xf76b;" horiz-adv-x="484" d="M483 0h-137l-171 242v-242h-115v533h115v-230l175 230h125l-199 -257z" />
<glyph unicode="&#xf76c;" horiz-adv-x="370" d="M360 88v-88h-300v533h116v-445h184z" />
<glyph unicode="&#xf76d;" horiz-adv-x="733" d="M20 0l83 533h144l123 -387h4l119 387h140l80 -533h-110l-53 392h-4l-125 -392h-117l-122 391h-4l-47 -391h-111z" />
<glyph unicode="&#xf76e;" horiz-adv-x="604" d="M165 0h-105v533h172l202 -408h4v408h106v-533h-169l-206 416h-4v-416z" />
<glyph unicode="&#xf76f;" horiz-adv-x="609" d="M304 542q132 0 201 -76t69 -200q0 -120 -68 -197.5t-202 -77.5q-129 0 -199 73.5t-70 201.5q0 125 68.5 200.5t200.5 75.5zM304 82q69 0 107 49t38 135q0 78 -34.5 131.5t-110.5 53.5q-69 0 -107 -50t-38 -135t38 -134.5t107 -49.5z" />
<glyph unicode="&#xf770;" horiz-adv-x="485" d="M221 447q-27 0 -47 -4v-178q32 -4 47 -4q52 0 81.5 24t29.5 69q0 43 -28 68t-83 25zM232 173q-23 0 -58 5v-178h-114v533h172q218 0 218 -180t-218 -180z" />
<glyph unicode="&#xf771;" horiz-adv-x="609" d="M574 266q0 -99 -46 -170.5t-137 -94.5l27 -92h-89l-24 82q-129 0 -199.5 73.5t-70.5 201.5q0 125 69 200.5t201 75.5t200.5 -76t68.5 -200zM363 93q87 37 87 173q0 78 -34.5 131.5t-110.5 53.5q-69 0 -107 -50t-38 -135q0 -75 30.5 -123.5t86.5 -58.5l-18 60h90z" />
<glyph unicode="&#xf772;" horiz-adv-x="472" d="M222 451q-30 0 -47 -5v-149q16 -4 47 -4q47 0 72 21.5t25 57.5q0 35 -24.5 57t-72.5 22zM222 211h-47v-211h-115v533h173q102 0 154.5 -43t52.5 -118q0 -38 -12.5 -67.5t-32.5 -45t-32.5 -22t-23.5 -10.5l123 -227h-129z" />
<glyph unicode="&#xf773;" horiz-adv-x="416" d="M365 522l-14 -90q-39 18 -103 18q-88 0 -88 -58q0 -16 5.5 -27.5t18 -19.5t19.5 -11.5t22 -9.5l45 -17q46 -17 78.5 -52.5t32.5 -92.5q0 -78 -59 -125t-164 -47q-69 0 -123 19l13 88q48 -16 104 -16q53 0 78.5 19.5t25.5 50.5q0 19 -12 34t-25.5 22t-33.5 15l-39 16 q-107 45 -107 147q0 75 54 115.5t158 40.5q64 0 114 -19z" />
<glyph unicode="&#xf774;" horiz-adv-x="423" d="M10 533h403v-88h-144v-445h-116v445h-143v88z" />
<glyph unicode="&#xf775;" horiz-adv-x="594" d="M297 -10q-109 0 -173 57t-64 160v326h115v-320q0 -65 33 -98.5t89 -33.5t89 33.5t33 98.5v320h115v-326q0 -103 -64 -160t-173 -57z" />
<glyph unicode="&#xf776;" horiz-adv-x="533" d="M5 533h134l128 -403h2l132 403h127l-191 -533h-147z" />
<glyph unicode="&#xf777;" horiz-adv-x="805" d="M152 0l-142 533h124l98 -368h4l105 368h135l110 -368h4l96 368h109l-136 -533h-146l-110 377h-4l-106 -377h-141z" />
<glyph unicode="&#xf778;" horiz-adv-x="511" d="M181 270l-165 263h141l104 -171l103 171h133l-167 -258l176 -275h-144l-110 184l-110 -184h-137z" />
<glyph unicode="&#xf779;" horiz-adv-x="504" d="M308 176v-176h-115v176l-183 357h121l122 -252h4l122 252h115z" />
<glyph unicode="&#xf77a;" horiz-adv-x="435" d="M30 0v82l235 369h-229v82h362v-82l-236 -369h243v-82h-375z" />
<glyph unicode="&#xf7a1;" horiz-adv-x="180" d="M102 222h-82l-13 -377h108zM9 281v103h104v-103h-104z" />
<glyph unicode="&#xf7bf;" horiz-adv-x="306" d="M286 -58l-9 -91q-43 -15 -97 -15q-81 0 -130 40.5t-49 99.5q0 18 4 34t6.5 25t13.5 22.5t13 16.5t18 17l15 14q23 21 34.5 41t11.5 53v23h102v-28q0 -87 -67 -138q-40 -31 -40 -66q0 -28 22.5 -46.5t63.5 -18.5q47 0 88 17zM115 276v103h104v-103h-104z" />
<glyph unicode="&#xf7e0;" horiz-adv-x="562" d="M308 587h-60l-128 147h108zM127 0h-117l207 533h135l200 -533h-126l-38 103h-222zM360 183l-83 233h-4l-81 -233h168z" />
<glyph unicode="&#xf7e1;" horiz-adv-x="562" d="M306 587h-60l80 147h108zM127 0h-117l207 533h135l200 -533h-126l-38 103h-222zM361 183l-83 233h-4l-81 -233h168z" />
<glyph unicode="&#xf7e2;" horiz-adv-x="562" d="M419 587h-73l-69 88l-69 -88h-70l91 147h99zM127 0h-117l207 533h135l200 -533h-126l-38 103h-222zM361 183l-83 233h-4l-81 -233h168z" />
<glyph unicode="&#xf7e3;" horiz-adv-x="562" d="M128 605l-33 51q12 20 42 41.5t66 21.5q40 0 82 -24t70 -24q37 0 68 33l32 -50q-52 -64 -108 -64q-41 0 -82.5 24t-71.5 24q-37 0 -65 -33zM127 0h-117l207 533h135l200 -533h-126l-38 103h-222zM361 183l-83 233h-4l-81 -233h168z" />
<glyph unicode="&#xf7e4;" horiz-adv-x="562" d="M127 0h-117l207 533h135l200 -533h-126l-38 103h-222zM360 183l-82 233h-4l-81 -233h167zM323 612v103h104v-103h-104zM128 612v103h104v-103h-104z" />
<glyph unicode="&#xf7e5;" horiz-adv-x="562" d="M375 663q0 -41 -29 -70t-70 -29t-70 29t-29 70t29 70t70 29t70 -29t29 -70zM276 705q-17 0 -29.5 -12.5t-12.5 -29.5q0 -18 12.5 -30.5t29.5 -12.5q18 0 30.5 12.5t12.5 30.5q0 17 -12.5 29.5t-30.5 12.5zM127 0h-117l207 533h135l200 -533h-126l-38 103h-222zM360 183 l-82 233h-4l-81 -233h167z" />
<glyph unicode="&#xf7e6;" horiz-adv-x="715" d="M393 183v249h-11l-137 -249h148zM685 88v-88h-292v103h-196l-61 -103h-126l311 533h357v-88h-169v-130h151v-84h-151v-143h176z" />
<glyph unicode="&#xf7e7;" horiz-adv-x="466" d="M446 15q-48 -23 -118 -25l-15 -27q10 4 28 4q32 0 51.5 -20.5t19.5 -52.5q0 -45 -43 -84.5t-95 -46.5l-28 37q39 8 66.5 31t27.5 52q0 17 -12.5 29t-39.5 12h-32l20 68q-112 12 -176.5 84t-64.5 189q0 134 78.5 205t205.5 71q71 0 127 -25l-19 -93q-54 27 -107 27 q-77 0 -120 -50.5t-43 -134.5q0 -87 45 -135.5t118 -48.5q57 0 107 27z" />
<glyph unicode="&#xf7e8;" horiz-adv-x="403" d="M373 0v88h-197v143h172v84h-172v130h191v88h-307v-533h313zM294 587h-60l-127 147h107z" />
<glyph unicode="&#xf7e9;" horiz-adv-x="403" d="M373 0v88h-197v143h172v84h-172v130h191v88h-307v-533h313zM212 587h-60l80 147h108z" />
<glyph unicode="&#xf7ea;" horiz-adv-x="403" d="M373 0v88h-198v143h173v84h-173v130h191v88h-306v-533h313zM348 587h-73l-69 88l-69 -88h-70l91 147h99z" />
<glyph unicode="&#xf7eb;" horiz-adv-x="408" d="M378 0v88h-197v143h173v84h-173v130h191v88h-306v-533h312zM266 612v103h104v-103h-104zM71 612v103h104v-103h-104z" />
<glyph unicode="&#xf7ec;" horiz-adv-x="235" d="M175 0v533h-115v-533h115zM148 587h-60l-128 147h108z" />
<glyph unicode="&#xf7ed;" horiz-adv-x="235" d="M175 0v533h-115v-533h115zM147 587h-61l80 147h108z" />
<glyph unicode="&#xf7ee;" horiz-adv-x="235" d="M174 0v533h-115v-533h115zM258 587h-73l-69 88l-69 -88h-69l90 147h100z" />
<glyph unicode="&#xf7ef;" horiz-adv-x="235" d="M175 0v533h-115v-533h115zM164 612v103h104v-103h-104zM-31 612v103h104v-103h-104z" />
<glyph unicode="&#xf7f0;" horiz-adv-x="573" d="M0 231v84h60v218h188q148 0 219 -71.5t71 -195.5q0 -127 -72.5 -196.5t-217.5 -69.5h-188v231h-60zM175 441v-126h81v-84h-81v-139q30 -5 66 -5q87 0 132 49t45 130q0 79 -43.5 129.5t-133.5 50.5q-38 0 -66 -5z" />
<glyph unicode="&#xf7f1;" horiz-adv-x="604" d="M60 0h105v415h4l205 -415h170v533h-106v-408h-4l-202 408h-172v-533zM164 605l-32 51q52 63 107 63q40 0 82 -24t71 -24q36 0 67 33l32 -50q-49 -64 -107 -64q-41 0 -82.5 24t-72.5 24q-37 0 -65 -33z" />
<glyph unicode="&#xf7f2;" horiz-adv-x="608" d="M304 541q-131 0 -200 -75.5t-69 -199.5q0 -128 70 -201.5t199 -73.5q134 0 201.5 77t67.5 198q0 124 -68.5 199.5t-200.5 75.5zM304 81q-69 0 -107 50t-38 135t38 134.5t107 49.5q52 0 85.5 -28t46.5 -67.5t13 -88.5q0 -86 -38 -135.5t-107 -49.5zM336 587h-61l-127 147 h107z" />
<glyph unicode="&#xf7f3;" horiz-adv-x="608" d="M304 540q-131 0 -200 -75.5t-69 -199.5q0 -128 70 -201.5t199 -73.5q134 0 201.5 77t67.5 198q0 124 -68.5 199.5t-200.5 75.5zM304 80q-69 0 -107 50t-38 135t38 134.5t107 49.5q52 0 85.5 -28t46.5 -67.5t13 -88.5q0 -86 -38 -135.5t-107 -49.5zM333 586h-60l80 147 h108z" />
<glyph unicode="&#xf7f4;" horiz-adv-x="609" d="M305 541q-132 0 -201 -75.5t-69 -199.5q0 -128 70.5 -201.5t199.5 -73.5q133 0 201 77t68 198q0 124 -68.5 199.5t-200.5 75.5zM305 81q-69 0 -107.5 50t-38.5 135t38.5 134.5t107.5 49.5q75 0 110 -53.5t35 -130.5q0 -86 -38 -135.5t-107 -49.5zM446 587h-73l-68 88 l-70 -88h-69l90 147h100z" />
<glyph unicode="&#xf7f5;" horiz-adv-x="609" d="M305 540q-132 0 -201 -75.5t-69 -199.5q0 -128 70.5 -201.5t199.5 -73.5q133 0 201 77t68 198q0 124 -68.5 199.5t-200.5 75.5zM305 80q-69 0 -107.5 50t-38.5 135t38.5 134.5t107.5 49.5q75 0 110 -53.5t35 -130.5q0 -86 -38.5 -135.5t-106.5 -49.5zM155 604l-32 51 q52 63 107 63q40 0 82 -24t71 -24q37 0 67 34l32 -51q-49 -64 -107 -64q-41 0 -82.5 24t-72.5 24q-35 0 -65 -33z" />
<glyph unicode="&#xf7f6;" horiz-adv-x="608" d="M304 540q132 0 200.5 -75.5t68.5 -199.5q0 -121 -67.5 -198t-201.5 -77q-129 0 -199 73.5t-70 201.5q0 124 69 199.5t200 75.5zM304 80q69 0 107 49.5t38 135.5q0 49 -13 88.5t-46.5 67.5t-85.5 28q-69 0 -107 -49.5t-38 -134.5t38 -135t107 -50zM349 612v103h104v-103 h-104zM154 612v103h104v-103h-104z" />
<glyph unicode="&#xf7f8;" horiz-adv-x="609" d="M574 266q0 -121 -69 -198.5t-201 -77.5q-38 0 -64 6l-34 -87l-76 24l34 88q-129 65 -129 245q0 120 66 198t203 78q42 0 60 -5l28 77l77 -23l-30 -77q135 -66 135 -248zM205 122l127 327q-7 2 -28 2q-66 0 -105.5 -47.5t-39.5 -137.5q0 -95 46 -144zM397 417l-128 -331 q18 -4 35 -4q68 0 106.5 49t38.5 135q0 104 -52 151z" />
<glyph unicode="&#xf7f9;" horiz-adv-x="593" d="M60 208v325h115v-319q0 -66 33 -99.5t88 -33.5q56 0 89 33.5t33 99.5v319h115v-325q0 -103 -64 -160t-173 -57t-172.5 57t-63.5 160zM374 587h-61l-127 147h107z" />
<glyph unicode="&#xf7fa;" horiz-adv-x="593" d="M60 208v325h115v-319q0 -66 33 -99.5t89 -33.5q55 0 88 33.5t33 99.5v319h115v-325q0 -103 -63.5 -160t-172.5 -57t-173 57t-64 160zM314 587h-61l80 147h108z" />
<glyph unicode="&#xf7fb;" horiz-adv-x="593" d="M60 208v325h115v-319q0 -66 33 -99.5t88 -33.5q56 0 89 33.5t33 99.5v319h115v-325q0 -103 -64 -160t-173 -57q-108 0 -172 57t-64 160zM431 587h-73l-69 88l-69 -88h-69l90 147h100z" />
<glyph unicode="&#xf7fc;" horiz-adv-x="593" d="M60 208q0 -103 63.5 -160t172.5 -57t173 57t64 160v325h-115v-319q0 -66 -33 -99.5t-89 -33.5q-55 0 -88 33.5t-33 99.5v319h-115v-325zM338 612v103h104v-103h-104zM143 612v103h104v-103h-104z" />
<glyph unicode="&#xf7fd;" horiz-adv-x="504" d="M308 0v176l186 357h-115l-122 -252h-4l-122 252h-121l183 -357v-176h115zM283 587h-61l80 147h108z" />
<glyph unicode="&#xf7fe;" horiz-adv-x="485" d="M221 366q-27 0 -47 -4v-178q32 -4 47 -4q52 0 81.5 24t29.5 69q0 43 -28 68t-83 25zM232 92q-23 0 -58 5v-97h-114v533h114v-81h58q218 0 218 -180t-218 -180z" />
<glyph unicode="&#xf7ff;" horiz-adv-x="505" d="M309 0v176l186 357h-115l-122 -252h-4l-122 252h-122l184 -357v-176h115zM299 612v103h104v-103h-104zM104 612v103h104v-103h-104z" />
<glyph unicode="&#xfe6b;" horiz-adv-x="654" d="M306 -10q-113 0 -189.5 68t-76.5 183q0 123 92 207t246 84q112 0 174 -62.5t62 -138.5q0 -86 -46 -141.5t-114 -55.5q-28 0 -45.5 13.5t-21.5 26t-4 22.5h-2q-31 -62 -95 -62q-41 0 -64 27t-23 76q0 65 44.5 119.5t127.5 54.5q50 0 88 -12q-31 -171 -32 -172q0 -3 -2 -14 t-2 -15q0 -32 34 -32q37 0 62.5 53t25.5 112q0 73 -45.5 121.5t-133.5 48.5q-103 0 -180 -76.5t-77 -188.5q0 -99 55.5 -155.5t150.5 -56.5q68 0 130 28l7 -37l-2 -1q-48 -24 -144 -24zM359 361q-37 0 -63.5 -39t-26.5 -89q0 -52 39 -52q46 0 61 86q1 8 4.5 27t7 40t3.5 23 q-16 4 -25 4z" />
<glyph horiz-adv-x="467" d="M292 30v503h115v-501q0 -74 -42 -123t-126 -49q-51 0 -79 8v91q32 -8 58 -8q74 0 74 79zM175 0v533h-115v-533h115z" />
<glyph horiz-adv-x="235" d="M175 0v533h-115v-533h115zM64 612v103h104v-103h-104z" />
<glyph horiz-adv-x="235" d="M178 726h70q0 -49 -32 -88.5t-100 -39.5q-36 0 -62.5 13.5t-40 34t-19.5 41t-6 39.5h69q0 -22 14 -42t47 -20q32 0 46 20.5t14 41.5zM175 0v533h-115v-533h115z" />
<glyph horiz-adv-x="235" d="M175 533v-533h-115v533h115zM228 674v-85h-221v85h221z" />
<glyph horiz-adv-x="235" d="M185 533v-533h-115v533h115zM60 -138q0 64 47 138h78q-34 -66 -34 -116q0 -44 52 -44q13 0 37 8v-65q-42 -14 -77 -14q-15 0 -30 3t-33 12t-29 29t-11 49z" />
<glyph horiz-adv-x="235" d="M176 0v533h-115v-533h115zM-30 605l-32 51q52 63 107 63q40 0 82 -24t71 -24q36 0 67 33l32 -50q-49 -64 -107 -64q-41 0 -82.5 24t-72.5 24q-37 0 -65 -33z" />
<glyph horiz-adv-x="492" d="M182 0h-112v717h112v-432l160 209h132l-183 -226l201 -268h-140l-170 250v-250zM213 -168v114h116v-96q0 -53 -27.5 -90.5t-66.5 -56.5l-19 22q56 36 52 107h-55z" />
<glyph horiz-adv-x="715" d="M393 432v-249h-148l137 249h11zM685 0v88h-176v143h151v84h-151v130h169v88h-357l-311 -533h126l61 103h196v-103h292zM484 587h-60l80 147h108z" />
<glyph horiz-adv-x="480" d="M446 518l-19 -94q-54 27 -107 27q-77 0 -120 -50.5t-43 -134.5q0 -87 45 -135.5t119 -48.5q50 0 106 26l19 -93q-62 -24 -127 -24q-131 0 -207.5 73t-76.5 202q0 134 78.5 205t205.5 71q73 0 127 -24zM332 587h-60l80 147h108z" />
<glyph horiz-adv-x="475" d="M174 734h74l68 -88l70 88h69l-90 -147h-100zM446 518l-19 -94q-54 27 -107 27q-77 0 -120 -50.5t-43 -134.5q0 -87 45 -135.5t119 -48.5q50 0 106 26l19 -93q-62 -24 -127 -24q-131 0 -207.5 73t-76.5 202q0 134 78.5 205t205.5 71q73 0 127 -24z" />
<glyph horiz-adv-x="480" d="M460 587h-73l-68 88l-70 -88h-69l90 147h100zM446 518l-19 -94q-54 27 -107 27q-77 0 -120 -50.5t-43 -134.5q0 -87 45 -135.5t119 -48.5q50 0 106 26l19 -93q-62 -24 -127 -24q-131 0 -207.5 73t-76.5 202q0 134 78.5 205t205.5 71q73 0 127 -24z" />
<glyph horiz-adv-x="466" d="M446 518l-19 -94q-54 27 -107 27q-77 0 -120 -50.5t-43 -134.5q0 -87 45 -135.5t119 -48.5q50 0 106 26l19 -93q-62 -24 -127 -24q-131 0 -207.5 73t-76.5 202q0 134 78.5 205t205.5 71q73 0 127 -24zM267 612v103h104v-103h-104z" />
<glyph horiz-adv-x="573" d="M100 734h74l68 -88l70 88h69l-90 -147h-100zM175 441v-349q30 -5 66 -5q87 0 132 49t45 130q0 79 -43.5 129.5t-133.5 50.5q-38 0 -66 -5zM60 0v533h188q148 0 219 -71.5t71 -195.5q0 -127 -72.5 -196.5t-217.5 -69.5h-188z" />
<glyph horiz-adv-x="573" d="M0 231v84h60v218h188q148 0 219 -71.5t71 -195.5q0 -127 -72.5 -196.5t-217.5 -69.5h-188v231h-60zM175 441v-126h102v-84h-102v-139q30 -5 66 -5q87 0 132 49t45 130q0 79 -43.5 129.5t-133.5 50.5q-38 0 -66 -5z" />
<glyph horiz-adv-x="403" d="M273 722h70q0 -49 -32 -88.5t-100 -39.5q-36 0 -62.5 13.5t-40 34t-19.5 41t-6 39.5h69q0 -22 14 -42t47 -20q32 0 46 20.5t14 41.5zM373 0v88h-197v143h172v84h-172v130h190v88h-306v-533h313z" />
<glyph horiz-adv-x="403" d="M81 734h74l68 -88l70 88h69l-90 -147h-100zM373 0v88h-197v143h172v84h-172v130h190v88h-306v-533h313z" />
<glyph horiz-adv-x="403" d="M373 0v88h-197v143h172v84h-172v130h190v88h-306v-533h313zM167 612v103h104v-103h-104z" />
<glyph horiz-adv-x="403" d="M325 702v-85h-221v85h221zM373 88v-88h-313v533h306v-88h-190v-130h172v-84h-172v-143h197z" />
<glyph horiz-adv-x="408" d="M373 88v-88h-313v533h306v-88h-190v-130h172v-84h-172v-143h197zM248 -138q0 64 47 138h77q-33 -64 -33 -116q0 -44 52 -44q13 0 37 8v-65q-42 -14 -77 -14q-15 0 -30 3t-33 12t-29 29t-11 49z" />
<glyph horiz-adv-x="555" d="M389 727h70q0 -49 -32 -88.5t-100 -39.5q-36 0 -62.5 13.5t-40 34t-19.5 41t-6 39.5h69q0 -22 14 -42t47 -20q32 0 46 20.5t14 41.5zM505 28q-93 -37 -186 -37q-131 0 -207.5 73t-76.5 202q0 135 79.5 205.5t212.5 70.5q104 0 169 -26l-20 -97q-64 32 -141 32 q-90 0 -134 -49.5t-44 -135.5q0 -87 44.5 -135.5t118.5 -48.5q42 0 70 6v143h-79v84h194v-287z" />
<glyph horiz-adv-x="555" d="M468 587h-73l-68 88l-70 -88h-69l90 147h100zM505 28q-93 -37 -186 -37q-131 0 -207.5 73t-76.5 202q0 135 79.5 205.5t212.5 70.5q104 0 169 -26l-20 -97q-64 32 -141 32q-90 0 -134 -49.5t-44 -135.5q0 -87 44.5 -135.5t118.5 -48.5q42 0 70 6v143h-79v84h194v-287z " />
<glyph horiz-adv-x="555" d="M261 -168v114h116v-96q0 -53 -27.5 -90.5t-66.5 -56.5l-19 22q56 36 52 107h-55zM505 28q-93 -37 -186 -37q-131 0 -207.5 73t-76.5 202q0 135 79.5 205.5t212.5 70.5q104 0 169 -26l-20 -97q-64 32 -141 32q-90 0 -134 -49.5t-44 -135.5q0 -87 44.5 -135.5t118.5 -48.5 q42 0 70 6v143h-79v84h194v-287z" />
<glyph horiz-adv-x="555" d="M276 612v103h104v-103h-104zM505 28q-93 -37 -186 -37q-131 0 -207.5 73t-76.5 202q0 135 79.5 205.5t212.5 70.5q104 0 169 -26l-20 -97q-64 32 -141 32q-90 0 -134 -49.5t-44 -135.5q0 -87 44.5 -135.5t118.5 -48.5q42 0 70 6v143h-79v84h194v-287z" />
<glyph horiz-adv-x="577" d="M25 381v84h41v68h115v-68h215v68h115v-68h41v-84h-41v-381h-115v232h-215v-232h-115v381h-41zM181 316h215v65h-215v-65z" />
<glyph horiz-adv-x="565" d="M425 587h-73l-68 88l-70 -88h-69l90 147h100zM390 533h115v-533h-115v232h-215v-232h-115v533h115v-217h215v217z" />
<glyph horiz-adv-x="317" d="M340 587h-73l-68 88l-70 -88h-69l90 147h100zM142 160v373h115v-371q0 -74 -42 -123t-126 -49q-51 0 -79 8v91q32 -8 58 -8q74 0 74 79z" />
<glyph horiz-adv-x="484" d="M483 0h-137l-171 242v-242h-115v533h115v-230l175 230h125l-199 -257zM203 -168v114h116v-96q0 -53 -27.5 -90.5t-66.5 -56.5l-19 22q56 36 52 107h-55z" />
<glyph horiz-adv-x="484" d="M483 0h-137l-171 242v-242h-115v533h115v-230l175 230h125l-199 -257z" />
<glyph horiz-adv-x="370" d="M150 587h-60l80 147h108zM360 88v-88h-300v533h116v-445h184z" />
<glyph horiz-adv-x="423" d="M360 88v-88h-300v533h116v-445h184zM307 419v114h116v-96q0 -53 -27.5 -90.5t-66.5 -56.5l-19 22q56 36 52 107h-55z" />
<glyph horiz-adv-x="370" d="M360 88v-88h-300v533h116v-445h184zM156 -168v114h116v-96q0 -53 -27.5 -90.5t-66.5 -56.5l-19 22q56 36 52 107h-55z" />
<glyph horiz-adv-x="370" d="M360 88v-88h-300v533h116v-445h184zM249 261v103h104v-103h-104z" />
<glyph horiz-adv-x="598" d="M588 0h-145l-245 330v-330h-118v674h118v-312l245 312h135l-257 -325zM246 -168v114h116v-96q0 -53 -27.5 -90.5t-66.5 -56.5l-19 22q56 36 52 107h-55z" />
<glyph horiz-adv-x="604" d="M335 587h-60l80 147h108zM165 0h-105v533h172l202 -408h4v408h106v-533h-169l-206 416h-4v-416z" />
<glyph horiz-adv-x="604" d="M176 734h74l68 -88l70 88h69l-90 -147h-100zM60 0h105v416h4l206 -416h169v533h-106v-408h-4l-202 408h-172v-533z" />
<glyph horiz-adv-x="604" d="M165 0h-105v533h172l202 -408h4v408h106v-533h-169l-206 416h-4v-416zM209 -168v114h116v-96q0 -53 -27.5 -90.5t-66.5 -56.5l-19 22q56 36 52 107h-55z" />
<glyph horiz-adv-x="609" d="M366 727h70q0 -49 -32 -88.5t-100 -39.5q-36 0 -62.5 13.5t-40 34t-19.5 41t-6 39.5h69q0 -22 14 -42t47 -20q32 0 46 20.5t14 41.5zM304 542q-132 0 -200.5 -75.5t-68.5 -200.5q0 -128 70 -201.5t199 -73.5q134 0 202 77.5t68 197.5q0 124 -69 200t-201 76zM304 82 q-69 0 -107 49.5t-38 134.5t38 135t107 50q76 0 110.5 -53.5t34.5 -131.5q0 -86 -38 -135t-107 -49z" />
<glyph horiz-adv-x="609" d="M237 587h-61l81 147h107zM398 587h-60l80 147h108zM304 542q132 0 201 -76t69 -200q0 -120 -68 -197.5t-202 -77.5q-129 0 -199 73.5t-70 201.5q0 125 68.5 200.5t200.5 75.5zM304 82q69 0 107 49t38 135q0 78 -34.5 131.5t-110.5 53.5q-69 0 -107 -50t-38 -135 t38 -134.5t107 -49.5z" />
<glyph horiz-adv-x="609" d="M417 703v-85h-221v85h221zM304 542q132 0 201 -76t69 -200q0 -120 -68 -197.5t-202 -77.5q-129 0 -199 73.5t-70 201.5q0 125 68.5 200.5t200.5 75.5zM304 82q69 0 107 49t38 135q0 78 -34.5 131.5t-110.5 53.5q-69 0 -107 -50t-38 -135t38 -134.5t107 -49.5z" />
<glyph horiz-adv-x="609" d="M334 587h-60l80 147h108zM574 266q0 -121 -69 -198.5t-201 -77.5q-38 0 -64 6l-34 -87l-76 24l34 88q-129 65 -129 245q0 120 66 198t203 78q42 0 60 -5l28 77l77 -23l-30 -77q135 -66 135 -248zM205 122l127 327q-7 2 -28 2q-66 0 -105.5 -47.5t-39.5 -137.5 q0 -95 46 -144zM397 417l-128 -331q18 -4 35 -4q68 0 106.5 49t38.5 135q0 104 -52 151z" />
<glyph horiz-adv-x="472" d="M214 587h-60l80 147h108zM222 451q-30 0 -47 -5v-149q16 -4 47 -4q47 0 72 21.5t25 57.5q0 35 -24.5 57t-72.5 22zM222 211h-47v-211h-115v533h173q102 0 154.5 -43t52.5 -118q0 -38 -12.5 -67.5t-32.5 -45t-32.5 -22t-23.5 -10.5l123 -227h-129z" />
<glyph horiz-adv-x="472" d="M84 734h74l68 -88l70 88h69l-90 -147h-100zM222 451q-30 0 -47 -5v-149q16 -4 47 -4q47 0 72 21.5t25 57.5q0 35 -24.5 57t-72.5 22zM222 211h-47v-211h-115v533h173q102 0 154.5 -43t52.5 -118q0 -38 -12.5 -67.5t-32.5 -45t-32.5 -22t-23.5 -10.5l123 -227h-129z" />
<glyph horiz-adv-x="472" d="M222 451q-30 0 -47 -5v-149q16 -4 47 -4q47 0 72 21.5t25 57.5q0 35 -24.5 57t-72.5 22zM222 211h-47v-211h-115v533h173q102 0 154.5 -43t52.5 -118q0 -38 -12.5 -67.5t-32.5 -45t-32.5 -22t-23.5 -10.5l123 -227h-129zM196 -168v114h116v-96q0 -53 -27.5 -90.5 t-66.5 -56.5l-19 22q56 36 52 107h-55z" />
<glyph horiz-adv-x="472" d="M222 451q-30 0 -47 -5v-149q16 -4 47 -4q47 0 72 21.5t25 57.5q0 35 -24.5 57t-72.5 22zM222 211h-47v-211h-115v533h173q102 0 154.5 -43t52.5 -118q0 -38 -12.5 -67.5t-32.5 -45t-32.5 -22t-23.5 -10.5l123 -227h-129z" />
<glyph horiz-adv-x="472" d="M229 587h-60l80 147h108zM222 451q-30 0 -47 -5v-149q16 -4 47 -4q47 0 72 21.5t25 57.5q0 35 -24.5 57t-72.5 22zM222 211h-47v-211h-115v533h173q102 0 154.5 -43t52.5 -118q0 -38 -12.5 -67.5t-32.5 -45t-32.5 -22t-23.5 -10.5l123 -227h-129z" />
<glyph horiz-adv-x="472" d="M88 734h74l68 -88l70 88h69l-90 -147h-100zM222 451q-30 0 -47 -5v-149q16 -4 47 -4q47 0 72 21.5t25 57.5q0 35 -24.5 57t-72.5 22zM222 211h-47v-211h-115v533h173q102 0 154.5 -43t52.5 -118q0 -38 -12.5 -67.5t-32.5 -45t-32.5 -22t-23.5 -10.5l123 -227h-129z" />
<glyph horiz-adv-x="472" d="M222 451q-30 0 -47 -5v-149q16 -4 47 -4q47 0 72 21.5t25 57.5q0 35 -24.5 57t-72.5 22zM222 211h-47v-211h-115v533h173q102 0 154.5 -43t52.5 -118q0 -38 -12.5 -67.5t-32.5 -45t-32.5 -22t-23.5 -10.5l123 -227h-129zM197 -168v114h116v-96q0 -53 -27.5 -90.5 t-66.5 -56.5l-19 22q56 36 52 107h-55z" />
<glyph horiz-adv-x="416" d="M252 587h-60l80 147h108zM365 522l-14 -90q-39 18 -103 18q-88 0 -88 -58q0 -16 5.5 -27.5t18 -19.5t19.5 -11.5t22 -9.5l45 -17q46 -17 78.5 -52.5t32.5 -92.5q0 -78 -59 -125t-164 -47q-69 0 -123 19l13 88q48 -16 104 -16q53 0 78.5 19.5t25.5 50.5q0 19 -12 34 t-25.5 22t-33.5 15l-39 16q-107 45 -107 147q0 75 54 115.5t158 40.5q64 0 114 -19z" />
<glyph horiz-adv-x="416" d="M219 -5l-60 -5h-1q-69 0 -123 19l13 88q48 -16 104 -16q53 0 78.5 19.5t25.5 50.5q0 19 -12 34t-25.5 22t-33.5 15l-39 16q-107 45 -107 147q0 75 54 115.5t158 40.5q64 0 114 -19l-14 -90q-39 18 -103 18q-88 0 -88 -58q0 -16 5.5 -27.5t18 -19.5t19.5 -11.5t22 -9.5 l45 -17q46 -17 78.5 -52.5t32.5 -92.5q0 -66 -42.5 -110t-119.5 -57zM219 -5q-32 -5 -60 -5l-23 -81h31q52 0 52 -40q0 -29 -27.5 -52t-65.5 -30l28 -37q51 7 93 46t42 84q0 31 -19 51t-51 20q-17 0 -27 -4z" />
<glyph horiz-adv-x="427" d="M392 587h-73l-68 88l-70 -88h-69l90 147h100zM365 522l-14 -90q-39 18 -103 18q-88 0 -88 -58q0 -16 5.5 -27.5t18 -19.5t19.5 -11.5t22 -9.5l45 -17q46 -17 78.5 -52.5t32.5 -92.5q0 -78 -59 -125t-164 -47q-69 0 -123 19l13 88q48 -16 104 -16q53 0 78.5 19.5 t25.5 50.5q0 19 -12 34t-25.5 22t-33.5 15l-39 16q-107 45 -107 147q0 75 54 115.5t158 40.5q64 0 114 -19z" />
<glyph horiz-adv-x="416" d="M365 522l-14 -90q-39 18 -103 18q-88 0 -88 -58q0 -16 5.5 -27.5t18 -19.5t19.5 -11.5t22 -9.5l45 -17q46 -17 78.5 -52.5t32.5 -92.5q0 -78 -59 -125t-164 -47q-69 0 -123 19l13 88q48 -16 104 -16q53 0 78.5 19.5t25.5 50.5q0 19 -12 34t-25.5 22t-33.5 15l-39 16 q-107 45 -107 147q0 75 54 115.5t158 40.5q64 0 114 -19zM104 -168v114h116v-96q0 -53 -27.5 -90.5t-66.5 -56.5l-19 22q56 36 52 107h-55z" />
<glyph horiz-adv-x="423" d="M282 734h74l-91 -147h-99l-91 147h69l70 -88zM10 533h403v-88h-144v-445h-116v445h-143v88z" />
<glyph horiz-adv-x="423" d="M10 212v88h143v145h-143v88h403v-88h-144v-145h144v-88h-144v-212h-116v212h-143z" />
<glyph horiz-adv-x="423" d="M10 533h403v-88h-144v-445h-116v445h-143v88zM152 -168v114h116v-96q0 -53 -27.5 -90.5t-66.5 -56.5l-19 22q56 36 52 107h-55z" />
<glyph horiz-adv-x="594" d="M359 722h70q0 -49 -32 -88.5t-100 -39.5q-36 0 -62.5 13.5t-40 34t-19.5 41t-6 39.5h69q0 -22 14 -42t47 -20q32 0 46 20.5t14 41.5zM297 -10q-109 0 -173 57t-64 160v326h115v-320q0 -65 33 -98.5t89 -33.5t89 33.5t33 98.5v320h115v-326q0 -103 -64 -160t-173 -57z" />
<glyph horiz-adv-x="594" d="M245 587h-61l81 147h107zM406 587h-60l80 147h108zM297 -10q-109 0 -173 57t-64 160v326h115v-320q0 -65 33 -98.5t89 -33.5t89 33.5t33 98.5v320h115v-326q0 -103 -64 -160t-173 -57z" />
<glyph horiz-adv-x="594" d="M408 706v-85h-221v85h221zM297 -10q-109 0 -173 57t-64 160v326h115v-320q0 -65 33 -98.5t89 -33.5t89 33.5t33 98.5v320h115v-326q0 -103 -64 -160t-173 -57z" />
<glyph horiz-adv-x="594" d="M262 -8q-94 9 -148 64t-54 151v326h115v-320q0 -65 33 -98.5t89 -33.5t89 33.5t33 98.5v320h115v-326q0 -94 -52.5 -149t-144.5 -65q-38 -73 -38 -128q0 -43 51 -43q15 0 37 8v-65q-38 -14 -77 -14q-15 0 -29.5 3t-32.5 11.5t-29 29t-11 49.5q0 67 54 148z" />
<glyph horiz-adv-x="594" d="M396 663q0 -41 -29 -70t-70 -29t-70 29t-29 70t29 70t70 29t70 -29t29 -70zM297 705q-17 0 -29.5 -12.5t-12.5 -29.5t12.5 -29.5t29.5 -12.5q18 0 30.5 12.5t12.5 29.5t-12.5 29.5t-30.5 12.5zM297 -10q-109 0 -173 57t-64 160v326h115v-320q0 -65 33 -98.5t89 -33.5 t89 33.5t33 98.5v320h115v-326q0 -103 -64 -160t-173 -57z" />
<glyph horiz-adv-x="594" d="M160 607l-33 51q48 63 108 63q40 0 82 -24t71 -24q37 0 67 34l32 -51q-49 -64 -107 -64q-41 0 -82.5 24t-72.5 24q-37 0 -65 -33zM297 -10q-109 0 -173 57t-64 160v326h115v-320q0 -65 33 -98.5t89 -33.5t89 33.5t33 98.5v320h115v-326q0 -103 -64 -160t-173 -57z" />
<glyph horiz-adv-x="805" d="M429 587h-60l80 147h108zM152 0l-142 533h124l98 -368h4l105 368h135l110 -368h4l96 368h109l-136 -533h-146l-110 377h-4l-106 -377h-141z" />
<glyph horiz-adv-x="805" d="M550 587h-73l-68 88l-70 -88h-69l90 147h100zM10 533l142 -533h141l106 377h4l110 -377h146l136 533h-109l-96 -368h-4l-110 368h-135l-105 -368h-4l-98 368h-124z" />
<glyph horiz-adv-x="805" d="M152 0l-142 533h124l98 -368h4l105 368h135l110 -368h4l96 368h109l-136 -533h-146l-110 377h-4l-106 -377h-141zM450 612v103h104v-103h-104zM255 612v103h104v-103h-104z" />
<glyph horiz-adv-x="805" d="M439 587h-60l-128 147h108zM10 533l142 -533h141l106 377h4l110 -377h146l136 533h-109l-96 -368h-4l-110 368h-135l-105 -368h-4l-98 368h-124z" />
<glyph horiz-adv-x="504" d="M394 587h-73l-68 88l-70 -88h-69l90 147h100zM308 0v176l186 357h-115l-122 -252h-4l-122 252h-121l183 -357v-176h115z" />
<glyph horiz-adv-x="504" d="M286 587h-60l-128 147h108zM308 0v176l186 357h-115l-122 -252h-4l-122 252h-121l183 -357v-176h115z" />
<glyph horiz-adv-x="435" d="M219 587h-60l80 147h108zM30 0v82l235 369h-229v82h362v-82l-236 -369h243v-82h-375z" />
<glyph horiz-adv-x="435" d="M30 0v82l235 369h-229v82h362v-82l-236 -369h243v-82h-375zM165 612v103h104v-103h-104z" />
<glyph horiz-adv-x="562" d="M127 0h-117l207 533h135l200 -533h-126l-38 103h-222zM361 183l-83 233h-4l-81 -233h168zM342 722h70q0 -49 -32 -88.5t-100 -39.5q-36 0 -62.5 13.5t-40 34t-19.5 41t-6 39.5h69q0 -22 14 -42t47 -20q32 0 46 20.5t14 41.5z" />
<glyph horiz-adv-x="569" d="M361 183l-83 234h-4l-81 -234h168zM559 -152v-65q-33 -14 -77 -14q-52 0 -77.5 26t-25.5 67q0 71 47 138l-37 103h-223l-39 -103h-117l204 533h139l200 -533h-50q-33 -66 -33 -114q0 -46 50 -46q24 2 39 8z" />
<glyph horiz-adv-x="563" d="M127 0h-117l204 533h139l200 -533h-127l-37 103h-223zM361 183l-83 234h-4l-81 -234h168zM392 674v-85h-221v85h221z" />
<glyph horiz-adv-x="346" d="M123 0h-103l203 533h103z" />
<glyph horiz-adv-x="755" d="M316 0h-105v533h172l202 -408h4v408h106v-533h-169l-206 416h-4v-416zM0 419v114h116v-96q0 -53 -27.5 -90.5t-66.5 -56.5l-19 22q56 36 52 107h-55z" />
<glyph horiz-adv-x="421" d="M166 413v-114h-116v96q0 53 27.5 90.5t66.5 56.5l19 -22q-56 -36 -52 -107h55zM371 413v-114h-116v96q0 53 27.5 90.5t66.5 56.5l19 -22q-56 -36 -52 -107h55z" />
<glyph horiz-adv-x="421" d="M255 419v114h116v-96q0 -53 -27.5 -90.5t-66.5 -56.5l-19 22q56 36 52 107h-55zM50 419v114h116v-96q0 -53 -27.5 -90.5t-66.5 -56.5l-19 22q56 36 52 107h-55z" />
<glyph horiz-adv-x="216" d="M166 414v-114h-116v96q0 53 27.5 90.5t66.5 56.5l19 -22q-56 -36 -52 -107h55z" />
<glyph horiz-adv-x="216" d="M50 419v114h116v-96q0 -53 -27.5 -90.5t-66.5 -56.5l-19 22q56 36 52 107h-55z" />
<glyph horiz-adv-x="199" d="M73 312l-23 221h99l-23 -221h-53z" />
<glyph horiz-adv-x="334" d="M207 312l-23 221h100l-23 -221h-54zM73 312l-23 221h100l-24 -221h-53z" />
</font>
</defs>
</svg>
